{"glyphs":{"0":{"ha":961,"x_min":50,"x_max":911,"o":"m 479 -24 q 305 13 383 -24 q 169 116 226 49 q 81 279 113 183 q 50 493 50 375 q 81 707 50 611 q 169 870 113 803 q 306 974 226 938 q 481 1010 385 1010 q 658 974 578 1010 q 794 870 738 938 q 881 707 850 803 q 911 493 911 611 q 881 279 911 375 q 793 116 850 183 q 656 13 736 49 q 479 -24 576 -24 m 481 156 q 571 180 533 156 q 632 249 608 204 q 667 355 656 293 q 678 493 678 417 q 667 632 678 569 q 632 739 656 694 q 571 808 608 783 q 481 833 533 833 q 391 808 428 833 q 330 739 354 783 q 294 632 306 694 q 283 493 283 569 q 294 356 283 418 q 330 249 306 293 q 391 180 354 204 q 481 156 428 156 z "},"1":{"ha":607,"x_min":44,"x_max":500,"o":"m 274 646 l 44 646 l 44 797 q 228 848 153 800 q 321 999 303 896 l 500 999 l 500 0 l 274 0 l 274 646 z "},"2":{"ha":847,"x_min":43,"x_max":800,"o":"m 43 0 q 72 156 44 92 q 147 275 99 219 q 222 347 182 313 q 305 412 263 381 q 390 472 347 443 q 469 528 432 500 q 544 599 518 563 q 571 688 571 635 q 535 788 571 750 q 435 826 500 826 q 319 781 357 826 q 285 717 296 754 q 274 636 274 681 l 58 636 q 74 767 58 711 q 125 872 90 824 q 247 972 168 935 q 442 1010 326 1010 q 594 985 528 1010 q 707 918 661 961 q 776 818 753 875 q 800 694 800 761 q 765 549 800 608 q 676 444 731 490 q 592 379 638 410 q 502 319 547 349 q 416 260 457 290 q 346 193 375 229 l 346 189 l 799 189 l 799 0 l 43 0 l 43 0 z "},"3":{"ha":882,"x_min":35,"x_max":838,"o":"m 450 -24 q 281 -1 353 -24 q 154 63 208 21 q 65 178 94 110 q 35 325 36 246 l 249 325 q 263 258 251 289 q 298 203 275 226 q 356 165 321 179 q 442 151 392 151 q 565 190 521 151 q 608 299 608 229 q 561 403 608 368 q 426 438 514 438 l 367 438 l 367 596 l 421 596 q 541 627 497 596 q 585 719 585 658 q 547 808 585 775 q 443 842 508 842 q 370 828 401 842 q 319 794 339 815 q 288 747 299 774 q 275 690 276 719 l 64 690 q 91 815 65 757 q 166 917 117 874 q 285 985 215 960 q 447 1010 356 1010 q 592 991 526 1010 q 706 937 658 972 q 781 849 754 901 q 807 732 807 797 q 762 607 807 654 q 639 533 717 560 l 639 531 q 785 444 733 504 q 838 283 838 383 q 806 147 838 204 q 722 51 775 89 q 598 -5 668 14 q 450 -24 528 -24 z "},"4":{"ha":908,"x_min":74,"x_max":903,"o":"m 538 224 l 74 224 l 74 425 l 539 1000 l 756 1000 l 756 390 l 903 390 l 903 224 l 756 224 l 756 0 l 538 0 l 538 224 m 225 382 q 275 386 250 383 q 321 389 296 388 q 367 390 346 390 l 538 390 l 538 629 q 538 677 538 651 q 540 726 539 703 q 544 781 542 753 l 542 781 q 508 731 525 756 q 476 686 493 710 q 444 643 460 663 l 339 511 q 304 470 324 492 q 267 429 285 449 q 225 385 246 407 l 225 382 z "},"5":{"ha":875,"x_min":31,"x_max":829,"o":"m 435 -24 q 280 -3 351 -24 q 155 58 208 18 q 69 153 101 97 q 31 281 36 210 l 254 281 q 310 192 265 225 q 426 158 356 158 q 553 206 504 158 q 601 332 601 254 q 552 458 601 413 q 431 503 503 503 q 338 484 378 503 q 276 438 299 465 l 64 438 l 167 989 l 768 989 l 768 807 l 329 807 l 285 589 l 288 589 q 370 648 322 626 q 492 669 418 669 q 621 646 560 669 q 728 578 682 622 q 802 472 775 535 q 829 331 829 408 q 800 185 829 250 q 719 73 771 119 q 594 1 667 26 q 435 -24 521 -24 z "},"6":{"ha":907,"x_min":51,"x_max":863,"o":"m 478 -24 q 296 13 374 -24 q 165 113 218 49 q 80 276 107 181 q 53 489 53 371 q 78 710 51 610 q 168 882 106 810 q 296 977 221 944 q 476 1010 371 1010 q 615 990 553 1010 q 721 936 676 971 q 794 855 765 901 q 833 754 822 808 l 617 754 q 574 818 606 789 q 481 847 543 847 q 267 553 283 847 l 269 553 q 369 644 311 611 q 511 676 428 676 q 646 651 582 676 q 758 579 710 625 q 834 469 806 533 q 863 328 863 406 q 833 185 863 250 q 753 74 804 121 q 631 2 701 28 q 478 -24 561 -24 m 469 146 q 540 159 507 146 q 596 197 572 172 q 633 253 619 221 q 647 325 647 286 q 634 398 647 364 q 597 456 621 432 q 540 493 572 479 q 469 507 507 507 q 335 456 386 507 q 283 326 283 406 q 297 253 283 286 q 336 197 311 221 q 395 159 361 172 q 469 146 429 146 z "},"7":{"ha":800,"x_min":39,"x_max":765,"o":"m 174 0 q 215 256 179 135 q 303 481 251 378 q 419 665 356 583 q 544 803 482 747 l 544 806 q 467 801 507 803 q 390 798 432 799 q 306 797 347 797 l 39 797 l 39 989 l 765 989 l 765 815 q 636 662 699 749 q 526 472 574 575 q 447 249 478 368 q 413 0 417 131 l 174 0 l 174 0 z "},"8":{"ha":899,"x_min":42,"x_max":858,"o":"m 451 -24 q 288 -3 363 -24 q 158 58 213 18 q 72 153 103 97 q 42 282 42 210 q 92 435 42 369 q 238 531 142 501 l 238 535 q 121 615 158 563 q 83 736 83 667 q 109 848 83 797 q 183 935 135 899 q 299 990 231 971 q 450 1010 367 1010 q 601 991 533 1010 q 715 938 668 972 q 788 853 763 903 q 814 740 814 803 q 776 621 814 674 q 661 540 739 568 l 661 536 q 809 442 760 508 q 858 288 858 375 q 828 156 858 214 q 743 58 797 97 q 615 -3 689 18 q 451 -24 540 -24 m 449 600 q 561 634 522 600 q 600 725 600 668 q 561 818 600 783 q 449 853 522 853 q 337 818 376 853 q 297 725 297 783 q 337 634 297 668 q 449 600 376 600 m 451 146 q 581 187 532 146 q 629 296 629 228 q 582 410 629 368 q 451 451 535 451 q 319 410 368 451 q 271 296 271 368 q 319 186 271 226 q 451 146 367 146 z "},"9":{"ha":908,"x_min":46,"x_max":854,"o":"m 444 -24 q 301 -3 365 -24 q 189 52 236 17 q 113 135 142 88 q 76 236 85 182 l 293 236 q 338 171 303 201 q 439 140 374 140 q 590 221 540 140 q 642 428 633 289 l 639 428 q 539 342 596 374 q 403 311 482 311 q 264 336 329 311 q 150 407 199 361 q 74 517 101 453 q 46 660 46 581 q 75 802 46 738 q 156 913 104 867 q 281 984 208 958 q 438 1010 353 1010 q 594 985 524 1010 q 715 914 664 960 q 854 500 854 789 q 828 267 854 372 q 739 94 801 163 q 615 6 688 36 q 444 -24 543 -24 m 442 479 q 516 492 482 479 q 574 530 550 506 q 613 587 599 554 q 626 660 626 619 q 613 733 626 699 q 574 790 599 767 q 516 828 550 814 q 443 842 482 842 q 310 790 360 842 q 260 661 260 739 q 272 589 260 622 q 309 531 285 556 q 367 493 333 507 q 442 479 400 479 z "},"\u0000":{"ha":0,"x_min":0,"x_max":0,"o":""},"\r":{"ha":0,"x_min":0,"x_max":0,"o":""}," ":{"ha":335,"x_min":0,"x_max":0,"o":""},"!":{"ha":401,"x_min":85,"x_max":317,"o":"m 88 775 l 88 1033 l 314 1033 l 314 775 l 257 360 l 144 360 l 88 775 m 85 228 l 317 228 l 317 0 l 85 0 l 85 228 z "},"\"":{"ha":626,"x_min":72,"x_max":554,"o":"m 367 1033 l 554 1033 l 554 636 l 367 636 l 367 1033 m 72 1033 l 263 1033 l 263 636 l 72 636 l 72 1033 z "},"#":{"ha":888,"x_min":47,"x_max":839,"o":"m 129 750 l 264 750 l 303 990 l 442 990 l 403 750 l 563 750 l 601 990 l 739 990 l 700 750 l 839 750 l 811 586 l 674 586 l 647 419 l 785 419 l 757 257 l 621 257 l 581 0 l 442 0 l 483 257 l 324 257 l 283 0 l 144 0 l 185 257 l 47 257 l 76 419 l 211 419 l 238 586 l 100 586 l 129 750 m 350 419 l 510 419 l 536 586 l 376 586 l 350 419 z "},"$":{"ha":919,"x_min":36,"x_max":872,"o":"m 422 -10 q 140 88 238 1 q 36 317 42 174 l 263 317 q 310 211 271 250 q 422 163 349 172 l 422 418 q 417 419 418 418 q 279 458 343 438 q 168 510 215 478 q 94 592 121 543 q 67 718 67 640 q 94 836 67 785 q 169 923 121 888 q 282 978 217 958 q 422 1001 347 999 l 422 1111 l 511 1111 l 511 1000 q 753 915 664 989 q 850 711 842 842 l 636 711 q 597 790 629 760 q 511 832 565 821 l 511 599 l 529 594 q 664 555 601 576 q 773 500 726 533 q 846 417 819 467 q 872 293 872 367 q 844 167 872 222 q 769 74 817 113 q 654 15 721 36 q 511 -10 588 -6 l 511 -172 l 422 -172 l 422 -10 m 646 279 q 612 351 646 328 q 511 394 578 375 l 511 163 q 606 199 567 169 q 646 279 646 228 m 292 729 q 322 663 292 686 q 422 621 353 640 l 422 836 q 326 801 360 829 q 292 729 292 772 z "},"%":{"ha":1293,"x_min":43,"x_max":1250,"o":"m 303 433 q 199 453 246 433 q 117 511 151 474 q 63 602 82 549 q 43 722 43 656 q 63 841 43 788 q 117 932 82 894 q 199 990 151 969 q 303 1010 246 1010 q 408 990 360 1010 q 490 932 456 969 q 542 842 524 894 q 561 722 561 789 q 542 602 561 656 q 488 511 522 549 q 406 453 454 474 q 303 433 358 433 m 850 989 l 981 989 l 442 0 l 311 0 l 850 989 m 989 -25 q 885 -4 932 -25 q 803 54 838 17 q 749 145 768 92 q 729 265 729 199 q 749 384 729 331 q 803 475 768 438 q 885 533 838 513 q 989 554 933 554 q 1095 533 1047 554 q 1177 475 1143 513 q 1231 384 1211 438 q 1250 265 1250 331 q 1231 145 1250 199 q 1176 54 1211 92 q 1094 -4 1142 17 q 989 -25 1046 -25 m 303 553 q 374 600 351 553 q 396 722 396 647 q 374 844 396 796 q 303 893 351 893 q 233 845 254 893 q 211 722 211 797 q 233 600 211 647 q 303 553 254 553 m 990 96 q 1060 143 1039 96 q 1082 265 1082 190 q 1059 389 1082 340 q 990 438 1036 438 q 919 389 942 438 q 897 265 897 340 q 919 143 897 190 q 990 96 942 96 z "},"&":{"ha":1006,"x_min":40,"x_max":994,"o":"m 410 -19 q 255 2 324 -19 q 138 63 186 24 q 65 157 90 101 q 40 282 40 213 q 58 388 40 342 q 108 471 76 435 q 182 534 140 507 q 272 585 224 561 q 211 681 235 629 q 188 794 188 732 q 208 894 188 849 q 265 972 228 939 q 356 1022 303 1004 q 472 1040 408 1040 q 583 1024 532 1040 q 671 977 633 1008 q 729 901 708 946 q 750 800 750 857 q 735 713 750 751 q 693 645 719 675 q 632 591 667 615 q 558 547 597 567 l 599 497 q 621 468 608 485 q 647 433 633 451 q 674 397 661 415 q 696 365 686 379 q 720 438 711 401 q 735 515 729 475 l 925 515 q 818 222 910 356 l 994 0 l 728 0 l 707 25 l 674 72 q 551 6 618 32 q 410 -19 485 -19 m 413 157 q 568 204 500 157 l 369 460 q 290 380 314 424 q 265 286 265 336 q 308 192 265 228 q 413 157 350 157 m 389 800 q 410 727 389 760 q 468 661 432 694 q 538 724 518 690 q 557 799 557 758 q 533 863 557 838 q 474 888 510 888 q 412 864 435 888 q 389 800 389 840 z "},"'":{"ha":335,"x_min":72,"x_max":263,"o":"m 72 1033 l 263 1033 l 263 636 l 72 636 l 72 1033 z "},"(":{"ha":508,"x_min":85,"x_max":490,"o":"m 310 -196 q 223 -72 264 -140 q 151 77 182 -3 q 103 247 121 157 q 85 435 85 336 q 103 631 85 536 q 151 810 121 726 q 223 964 182 893 q 310 1089 264 1035 l 490 1089 q 360 802 411 963 q 308 435 308 642 q 322 249 308 336 q 361 83 336 161 q 419 -64 386 6 q 489 -196 451 -133 l 310 -196 l 310 -196 z "},")":{"ha":508,"x_min":18,"x_max":425,"o":"m 19 -196 q 90 -64 57 -133 q 148 83 124 6 q 187 249 172 161 q 201 435 201 336 q 150 802 201 642 q 18 1089 99 963 l 200 1089 q 287 964 246 1035 q 358 810 328 893 q 407 631 389 726 q 425 435 425 536 q 407 247 425 336 q 358 77 389 157 q 287 -72 328 -3 q 200 -196 246 -140 l 19 -196 l 19 -196 z "},"*":{"ha":658,"x_min":57,"x_max":599,"o":"m 121 589 l 228 735 l 57 790 l 104 904 l 264 849 l 264 1033 l 394 1033 l 394 849 l 556 904 l 599 790 l 431 735 l 539 589 l 438 515 l 331 668 l 222 515 l 121 589 z "},"+":{"ha":842,"x_min":74,"x_max":768,"o":"m 74 563 l 328 563 l 328 831 l 514 831 l 514 563 l 768 563 l 768 388 l 514 388 l 514 117 l 328 117 l 328 388 l 74 388 l 74 563 z "},",":{"ha":353,"x_min":61,"x_max":292,"o":"m 63 -154 q 140 -103 111 -142 q 169 -3 169 -65 l 169 0 l 61 0 l 61 228 l 292 228 l 292 14 q 274 -100 292 -51 q 225 -181 256 -149 q 152 -230 194 -212 q 63 -251 110 -247 l 63 -154 z "},"-":{"ha":504,"x_min":56,"x_max":449,"o":"m 56 463 l 449 463 l 449 274 l 56 274 l 56 463 z "},".":{"ha":353,"x_min":61,"x_max":292,"o":"m 61 228 l 292 228 l 292 0 l 61 0 l 61 228 z "},"/":{"ha":647,"x_min":-26,"x_max":636,"o":"m 438 1089 l 636 1089 l 172 -196 l -26 -196 l 438 1089 z "},":":{"ha":363,"x_min":65,"x_max":296,"o":"m 65 674 l 296 674 l 296 446 l 65 446 l 65 674 m 65 228 l 296 228 l 296 0 l 65 0 l 65 228 z "},";":{"ha":363,"x_min":65,"x_max":296,"o":"m 65 674 l 296 674 l 296 446 l 65 446 l 65 674 m 67 -154 q 144 -103 115 -142 q 174 -3 174 -65 l 174 0 l 65 0 l 65 228 l 296 228 l 296 14 q 278 -100 296 -51 q 229 -181 260 -149 q 156 -230 199 -212 q 67 -251 114 -247 l 67 -154 z "},"<":{"ha":751,"x_min":76,"x_max":668,"o":"m 76 347 l 76 546 l 668 796 l 668 603 l 432 511 q 367 488 401 500 q 303 467 333 476 q 232 446 267 456 l 232 443 q 303 424 267 433 q 368 405 333 415 q 432 383 403 394 l 668 296 l 668 97 l 76 347 z "},"=":{"ha":838,"x_min":85,"x_max":760,"o":"m 85 682 l 760 682 l 760 511 l 85 511 l 85 682 m 85 385 l 760 385 l 760 214 l 85 214 l 85 385 z "},">":{"ha":751,"x_min":83,"x_max":675,"o":"m 675 546 l 675 347 l 83 97 l 83 289 l 321 382 q 385 405 350 393 q 450 426 419 417 q 519 447 486 438 l 519 450 q 449 469 485 460 q 384 488 418 478 q 321 510 350 499 l 83 597 l 83 796 l 675 546 z "},"?":{"ha":806,"x_min":29,"x_max":765,"o":"m 263 228 l 493 228 l 493 0 l 263 0 l 263 228 m 283 360 q 289 437 283 403 q 307 498 294 471 q 340 549 319 525 q 389 596 360 572 q 438 634 413 617 q 486 671 464 651 q 522 713 508 690 q 536 767 536 736 q 499 843 536 815 q 404 871 463 871 q 290 828 333 871 q 246 719 247 785 l 29 719 q 57 849 31 789 q 133 955 83 910 q 252 1026 182 1000 q 413 1051 322 1051 q 558 1031 493 1051 q 669 975 624 1011 q 740 887 715 939 q 765 772 765 835 q 734 643 765 693 q 663 561 703 593 q 567 493 606 517 q 507 446 529 469 q 485 408 490 426 q 478 360 479 390 l 283 360 z "},"@":{"ha":1318,"x_min":56,"x_max":1265,"o":"m 581 136 q 418 208 478 136 q 358 403 358 281 q 378 536 358 475 q 433 642 397 597 q 517 710 468 686 q 628 735 567 735 q 783 628 743 735 l 785 628 l 796 719 l 981 719 l 935 347 q 942 271 928 294 q 992 247 956 247 q 1040 258 1015 247 q 1086 297 1065 269 q 1120 370 1107 324 q 1133 488 1133 417 q 1101 672 1133 593 q 1009 805 1068 751 q 866 885 950 858 q 681 911 782 911 q 492 877 581 911 q 338 779 403 843 q 234 622 272 715 q 196 410 196 528 q 225 230 196 313 q 311 88 254 147 q 452 -6 368 28 q 646 -40 536 -40 q 781 -26 715 -40 q 904 13 846 -11 l 947 -94 q 803 -144 878 -129 q 644 -160 728 -160 q 409 -119 517 -160 q 223 -5 301 -79 q 100 174 144 69 q 56 408 56 279 q 108 675 56 558 q 247 872 160 792 q 446 992 333 951 q 679 1033 558 1033 q 905 998 799 1033 q 1092 893 1011 963 q 1219 722 1172 824 q 1265 486 1265 619 q 1242 328 1265 396 q 1181 217 1219 261 q 1091 150 1143 172 q 981 128 1039 128 q 845 158 900 128 q 772 253 790 189 l 769 253 q 581 136 708 136 m 640 278 q 733 330 700 278 q 767 465 767 382 q 744 558 767 524 q 674 593 722 593 q 584 540 615 593 q 553 407 553 488 q 574 314 553 350 q 640 278 594 278 z "},"A":{"ha":1022,"x_min":14,"x_max":1006,"o":"m 386 1033 l 632 1033 l 1006 0 l 756 0 l 690 197 l 315 197 l 251 0 l 14 0 l 386 1033 m 371 367 l 636 367 l 574 560 q 544 662 557 613 q 524 750 532 711 q 507 835 514 796 l 504 835 q 482 735 493 783 q 459 645 471 693 q 435 560 447 597 l 371 367 z "},"B":{"ha":986,"x_min":88,"x_max":946,"o":"m 88 1033 l 576 1033 q 818 963 736 1033 q 906 765 906 886 q 739 558 906 610 l 739 553 q 892 463 839 529 q 946 301 946 397 q 919 171 946 226 q 844 76 893 115 q 589 0 751 0 l 88 0 l 88 1033 m 543 618 q 641 647 604 618 q 678 733 678 675 q 642 820 678 790 q 546 850 607 850 l 322 850 l 322 618 l 543 618 m 564 186 q 674 224 633 186 q 711 318 711 258 q 668 419 711 386 q 560 453 625 453 l 322 453 l 322 186 l 564 186 z "},"C":{"ha":1040,"x_min":44,"x_max":1004,"o":"m 551 -24 q 345 17 439 -24 q 185 128 251 57 q 81 299 118 200 q 44 513 44 397 q 81 726 44 628 q 183 897 117 825 q 342 1010 249 969 q 551 1051 436 1051 q 710 1031 638 1051 q 835 971 782 1011 q 945 846 906 919 q 994 685 985 772 l 758 685 q 692 806 747 758 q 550 854 638 854 q 434 828 483 854 q 352 757 385 803 q 303 649 319 711 q 286 513 286 586 q 305 376 286 439 q 358 269 324 314 q 441 198 392 224 q 551 172 490 172 q 703 226 647 172 q 767 361 758 281 l 1004 361 q 965 215 999 283 q 879 93 932 146 q 740 6 821 35 q 551 -24 660 -24 z "},"D":{"ha":1039,"x_min":90,"x_max":997,"o":"m 90 1033 l 521 1033 q 717 996 629 1033 q 868 890 806 958 q 964 725 931 822 q 997 510 997 628 q 965 301 997 394 q 871 140 933 207 q 717 37 808 74 q 507 0 625 0 l 90 0 l 90 1033 m 489 200 q 690 281 624 200 q 756 510 756 361 q 690 745 756 657 q 493 833 624 833 l 328 833 l 328 200 l 489 200 z "},"E":{"ha":931,"x_min":88,"x_max":872,"o":"m 88 1033 l 863 1033 l 863 836 l 324 836 l 324 631 l 790 631 l 790 443 l 324 443 l 324 203 l 872 203 l 872 0 l 88 0 l 88 1033 z "},"F":{"ha":889,"x_min":88,"x_max":846,"o":"m 88 1033 l 846 1033 l 846 832 l 324 832 l 324 607 l 760 607 l 760 414 l 324 414 l 324 0 l 88 0 l 88 1033 z "},"G":{"ha":1089,"x_min":47,"x_max":1021,"o":"m 838 139 l 833 139 q 710 15 788 53 q 536 -24 632 -24 q 337 15 425 -24 q 185 121 249 53 q 82 294 117 194 q 47 513 47 393 q 93 756 47 646 q 226 940 139 867 q 369 1022 289 993 q 553 1051 450 1051 q 728 1026 650 1051 q 863 957 806 1001 q 955 851 919 913 q 1004 715 990 789 l 768 715 q 699 815 749 774 q 560 856 649 856 q 440 829 490 856 q 355 757 389 803 q 304 648 321 711 q 288 513 288 585 q 307 375 288 438 q 362 267 326 313 q 448 195 397 221 q 563 169 499 169 q 660 187 617 169 q 734 232 704 204 q 781 297 764 260 q 797 372 797 333 l 797 376 l 589 376 l 589 553 l 1021 553 l 1021 0 l 857 0 l 838 139 z "},"H":{"ha":1038,"x_min":88,"x_max":950,"o":"m 88 1033 l 324 1033 l 324 635 l 714 635 l 714 1033 l 950 1033 l 950 0 l 714 0 l 714 438 l 324 438 l 324 0 l 88 0 l 88 1033 z "},"I":{"ha":414,"x_min":88,"x_max":325,"o":"m 88 1033 l 325 1033 l 325 0 l 88 0 l 88 1033 z "},"J":{"ha":804,"x_min":35,"x_max":728,"o":"m 389 -19 q 123 69 211 -19 q 35 313 35 158 l 35 392 l 253 392 l 253 318 q 285 208 253 240 q 375 176 317 176 q 463 210 435 176 q 490 307 490 244 l 490 1033 l 728 1033 l 728 301 q 663 93 728 171 q 552 10 621 40 q 389 -19 483 -19 z "},"K":{"ha":1022,"x_min":88,"x_max":1010,"o":"m 88 1033 l 324 1033 l 324 864 q 321 727 324 793 q 315 619 318 661 l 701 1033 l 985 1033 l 586 618 l 1010 0 l 733 0 l 418 468 l 324 369 l 324 0 l 88 0 l 88 1033 z "},"L":{"ha":839,"x_min":88,"x_max":800,"o":"m 88 1033 l 324 1033 l 324 203 l 800 203 l 800 0 l 88 0 l 88 1033 z "},"M":{"ha":1228,"x_min":88,"x_max":1142,"o":"m 88 1033 l 406 1033 l 535 603 q 563 492 549 554 q 588 371 576 429 q 613 235 601 304 l 617 235 q 640 371 628 304 q 665 492 651 429 q 693 603 678 554 l 819 1033 l 1142 1033 l 1142 0 l 924 0 l 924 463 q 926 575 924 511 q 932 697 929 639 q 940 835 936 764 l 938 835 q 911 708 925 771 q 885 597 900 656 q 857 492 871 538 l 710 0 l 515 0 l 367 492 q 338 597 353 538 q 313 708 324 656 q 286 835 299 771 l 283 835 q 292 697 288 764 q 297 575 294 639 q 300 463 300 511 l 300 0 l 88 0 l 88 1033 z "},"N":{"ha":1046,"x_min":88,"x_max":960,"o":"m 88 1033 l 329 1033 l 601 585 q 649 498 625 544 q 694 410 674 451 l 743 313 l 746 313 q 739 419 742 365 q 735 518 736 465 q 733 615 733 571 l 733 1033 l 960 1033 l 960 0 l 717 0 l 447 443 q 399 531 424 482 q 353 621 374 579 q 304 719 328 669 l 301 719 q 307 611 304 665 q 312 513 310 565 q 314 415 314 460 l 314 0 l 88 0 l 88 1033 z "},"O":{"ha":1110,"x_min":44,"x_max":1065,"o":"m 556 -25 q 343 15 438 -25 q 182 128 249 56 q 80 299 115 200 q 44 513 44 397 q 80 728 44 629 q 182 898 115 826 q 343 1010 249 969 q 556 1051 438 1051 q 767 1010 672 1051 q 928 898 861 969 q 1030 728 994 826 q 1065 513 1065 629 q 1030 299 1065 397 q 928 128 994 200 q 767 15 861 56 q 556 -25 672 -25 m 557 169 q 674 196 624 169 q 757 268 724 222 q 807 376 790 314 q 824 513 824 439 q 807 649 824 586 q 757 760 790 713 q 674 833 724 807 q 557 860 624 860 q 440 833 490 860 q 355 760 389 807 q 303 649 321 713 q 286 513 286 586 q 303 376 286 439 q 355 268 321 314 q 440 196 389 222 q 557 169 490 169 z "},"P":{"ha":953,"x_min":88,"x_max":922,"o":"m 88 1033 l 547 1033 q 824 938 728 1033 q 897 828 871 890 q 922 690 922 767 q 898 556 922 617 q 828 451 874 494 q 719 383 783 407 q 575 358 656 358 l 328 358 l 328 0 l 88 0 l 88 1033 m 328 546 l 529 546 q 644 585 604 546 q 683 690 683 624 q 644 795 683 758 q 531 832 604 832 l 328 832 l 328 546 z "},"Q":{"ha":1108,"x_min":44,"x_max":1064,"o":"m 819 43 q 697 -7 764 11 q 554 -25 631 -25 q 342 15 436 -25 q 181 128 247 56 q 80 299 115 200 q 44 513 44 397 q 80 728 44 629 q 181 898 115 826 q 342 1010 247 969 q 554 1051 436 1051 q 766 1010 672 1051 q 926 898 860 969 q 1027 728 992 826 q 1063 513 1063 629 q 1031 306 1063 400 q 936 140 999 213 l 1064 24 l 961 -87 l 819 43 m 556 165 q 665 186 617 165 l 540 301 l 643 413 l 775 290 q 810 390 799 335 q 822 513 822 446 q 806 649 822 586 q 756 760 789 713 q 672 833 722 807 q 556 860 622 860 q 438 833 489 860 q 353 760 388 807 q 303 649 319 713 q 286 513 286 586 q 303 376 286 439 q 353 266 319 313 q 438 192 388 219 q 556 165 489 165 z "},"R":{"ha":993,"x_min":88,"x_max":947,"o":"m 88 1033 l 579 1033 q 719 1014 654 1033 q 831 956 783 994 q 905 863 878 918 q 932 738 932 808 q 886 582 932 646 q 740 486 840 518 l 740 482 q 855 412 818 458 q 903 282 892 365 q 913 183 910 229 q 920 99 917 136 q 929 40 924 63 q 947 11 935 17 l 947 0 l 714 0 q 698 28 703 6 q 690 83 693 50 q 683 156 686 115 q 676 239 681 196 q 626 356 667 317 q 499 394 585 394 l 324 394 l 324 0 l 88 0 l 88 1033 m 324 569 l 533 569 q 654 606 613 569 q 696 706 696 643 q 658 808 696 769 q 540 846 619 846 l 324 846 l 324 569 z "},"S":{"ha":958,"x_min":35,"x_max":910,"o":"m 493 -25 q 306 -1 389 -25 q 163 67 222 22 q 70 177 103 111 q 35 326 38 243 l 274 326 q 338 203 283 242 q 493 164 393 164 q 560 171 528 164 q 617 192 592 178 q 656 230 642 207 q 671 285 671 253 q 655 340 671 318 q 608 378 639 363 q 533 405 578 393 q 433 429 489 417 q 292 467 358 446 q 175 522 225 488 q 97 608 125 556 q 68 740 68 660 q 99 879 68 821 q 183 976 129 938 q 311 1033 238 1014 q 471 1051 385 1051 q 628 1032 556 1051 q 753 974 700 1013 q 838 877 806 935 q 875 743 869 819 l 643 743 q 588 838 633 804 q 464 871 542 871 q 346 842 390 871 q 301 764 301 813 q 318 714 301 733 q 367 680 335 694 q 445 654 399 665 q 553 629 492 643 q 687 592 622 614 q 801 535 751 571 q 880 444 850 499 q 910 308 910 390 q 878 166 910 228 q 790 62 846 104 q 658 -3 733 19 q 493 -25 582 -25 z "},"T":{"ha":928,"x_min":38,"x_max":890,"o":"m 38 1033 l 890 1033 l 890 832 l 582 832 l 582 0 l 344 0 l 344 832 l 38 832 l 38 1033 z "},"U":{"ha":1006,"x_min":76,"x_max":931,"o":"m 506 -19 q 185 78 294 -19 q 76 360 76 176 l 76 1033 l 313 1033 l 313 354 q 359 221 313 269 q 506 172 406 172 q 646 223 599 172 q 693 358 693 274 l 693 1033 l 931 1033 l 931 360 q 822 79 931 178 q 506 -19 714 -19 z "},"V":{"ha":958,"x_min":13,"x_max":944,"o":"m 13 1033 l 258 1033 l 411 536 q 436 440 424 493 q 460 342 449 388 q 482 232 472 286 l 485 232 q 507 342 494 286 q 529 440 517 388 q 554 536 542 493 l 706 1033 l 944 1033 l 603 0 l 354 0 l 13 1033 z "},"W":{"ha":1388,"x_min":13,"x_max":1360,"o":"m 13 1033 l 253 1033 l 351 629 q 376 505 365 572 q 394 376 386 438 q 411 235 403 306 l 414 235 q 436 382 424 308 q 458 514 446 444 q 482 638 471 583 l 574 1033 l 797 1033 l 889 639 q 913 515 900 585 q 935 382 925 444 q 956 235 946 308 l 958 235 q 978 378 967 307 q 998 507 986 439 q 1024 631 1010 575 l 1119 1033 l 1360 1033 l 1076 0 l 844 0 l 744 433 q 724 543 733 482 q 706 660 714 604 q 688 790 696 725 l 685 790 q 667 660 676 725 q 649 543 658 604 q 628 433 639 482 l 526 0 l 293 0 l 13 1033 z "},"X":{"ha":1014,"x_min":21,"x_max":992,"o":"m 368 540 l 50 1033 l 321 1033 l 404 893 q 440 827 422 863 q 474 760 458 792 q 508 685 490 724 l 511 685 q 546 760 528 724 q 580 827 561 792 q 617 893 599 863 l 701 1033 l 960 1033 l 647 542 l 992 0 l 711 0 l 607 182 q 572 249 589 213 q 539 318 554 286 q 506 393 522 356 l 503 393 q 468 318 486 356 q 434 249 453 286 q 397 182 415 213 l 290 0 l 21 0 l 368 540 z "},"Y":{"ha":975,"x_min":15,"x_max":960,"o":"m 369 386 l 15 1033 l 275 1033 l 386 817 q 422 738 404 781 q 456 658 440 696 q 489 571 472 614 l 492 571 q 526 658 508 614 q 560 738 542 696 q 597 817 579 781 l 710 1033 l 960 1033 l 606 389 l 606 0 l 369 0 l 369 386 z "},"Z":{"ha":956,"x_min":50,"x_max":901,"o":"m 50 192 l 432 656 q 485 715 456 683 q 540 774 514 746 q 603 836 571 806 l 603 840 q 524 836 563 838 q 453 834 490 835 q 385 833 415 833 l 88 833 l 88 1033 l 882 1033 l 882 847 l 514 397 q 456 331 488 365 q 394 267 424 296 l 326 199 l 326 194 q 410 199 368 196 q 485 201 446 200 q 557 203 525 203 l 901 203 l 901 0 l 50 0 l 50 192 z "},"[":{"ha":593,"x_min":99,"x_max":532,"o":"m 99 1089 l 532 1089 l 532 919 l 307 919 l 307 -28 l 532 -28 l 532 -196 l 99 -196 l 99 1089 z "},"\\":{"ha":647,"x_min":13,"x_max":674,"o":"m 475 -196 l 13 1089 l 211 1089 l 674 -196 l 475 -196 z "},"]":{"ha":593,"x_min":60,"x_max":494,"o":"m 60 -28 l 285 -28 l 285 919 l 60 919 l 60 1089 l 494 1089 l 494 -196 l 60 -196 l 60 -28 z "},"^":{"ha":699,"x_min":19,"x_max":679,"o":"m 263 1033 l 436 1033 l 679 608 l 476 608 l 350 835 l 347 835 l 219 608 l 19 608 l 263 1033 z "},"_":{"ha":618,"x_min":-3,"x_max":621,"o":"m -3 -107 l 621 -107 l 621 -244 l -3 -244 l -3 -107 z "},"`":{"ha":747,"x_min":146,"x_max":474,"o":"m 146 1074 l 400 1074 l 474 850 l 313 850 l 146 1074 z "},"a":{"ha":806,"x_min":42,"x_max":758,"o":"m 546 0 q 531 35 538 13 q 521 90 524 58 l 518 90 q 431 10 482 39 q 294 -19 381 -19 q 194 -5 240 -19 q 113 38 147 10 q 60 108 79 65 q 42 204 42 150 q 65 306 42 265 q 126 371 88 346 q 218 409 165 396 q 332 429 271 422 q 474 463 431 443 q 518 524 518 482 q 492 588 518 564 q 408 613 465 613 q 315 586 346 613 q 279 515 283 560 l 78 515 q 100 607 79 563 q 161 685 121 651 q 263 740 201 719 q 406 760 324 760 q 528 749 476 760 q 618 715 579 739 q 703 626 676 682 q 731 494 731 569 l 731 115 q 758 13 731 31 l 758 0 l 546 0 m 363 124 q 480 164 436 124 q 524 265 524 204 l 524 361 q 466 337 500 346 q 396 319 432 328 q 289 282 324 304 q 254 211 254 260 q 286 143 254 163 q 363 124 318 124 z "},"b":{"ha":863,"x_min":72,"x_max":826,"o":"m 510 -24 q 376 8 435 -24 q 285 108 317 40 l 282 108 l 282 0 l 72 0 l 72 1033 l 290 1033 l 290 807 q 288 715 290 760 q 283 636 286 669 l 288 636 q 378 726 325 693 q 508 760 431 760 q 639 731 581 760 q 739 649 697 701 q 803 526 781 597 q 826 369 826 454 q 804 205 826 278 q 740 81 782 132 q 640 3 699 31 q 510 -24 582 -24 m 451 151 q 566 211 528 151 q 604 371 604 271 q 566 533 604 471 q 450 594 528 594 q 376 577 407 594 q 324 530 344 560 q 293 458 303 500 q 283 369 283 417 q 328 212 283 272 q 451 151 372 151 z "},"c":{"ha":801,"x_min":38,"x_max":772,"o":"m 426 -24 q 266 6 338 -24 q 144 89 194 36 q 65 213 93 142 q 38 368 38 285 q 65 523 38 451 q 142 647 92 594 q 263 730 192 700 q 421 760 333 760 q 554 740 494 760 q 658 683 614 719 q 729 597 701 647 q 767 486 757 546 l 556 486 q 511 567 544 538 q 424 597 478 597 q 299 535 340 597 q 258 368 258 472 q 299 204 258 267 q 424 142 340 142 q 520 176 485 142 q 563 275 556 211 l 772 275 q 744 158 769 213 q 674 63 718 103 q 566 -1 629 22 q 426 -24 503 -24 z "},"d":{"ha":864,"x_min":38,"x_max":792,"o":"m 354 -24 q 224 3 282 -24 q 124 81 165 31 q 60 205 82 132 q 38 369 38 278 q 60 526 38 454 q 125 649 83 597 q 226 731 167 701 q 357 760 285 760 q 486 727 433 760 q 576 636 539 694 l 579 636 q 575 715 576 671 q 574 807 574 760 l 574 1033 l 792 1033 l 792 0 l 582 0 l 582 108 l 579 108 q 488 8 547 40 q 354 -24 429 -24 m 413 151 q 536 212 492 151 q 581 369 581 272 q 570 460 581 418 q 539 531 560 501 q 487 578 518 561 q 414 594 456 594 q 298 533 336 594 q 260 371 260 471 q 298 211 260 271 q 413 151 336 151 z "},"e":{"ha":828,"x_min":38,"x_max":792,"o":"m 428 -22 q 265 8 338 -22 q 142 90 193 38 q 65 214 92 143 q 38 368 38 285 q 65 523 38 451 q 143 647 93 594 q 263 730 193 700 q 417 760 332 760 q 559 735 496 760 q 671 665 622 710 q 763 514 733 604 q 790 314 792 424 l 251 314 q 307 183 263 231 q 431 136 351 136 q 515 155 482 136 q 565 208 547 174 l 776 208 q 733 117 763 160 q 659 44 703 75 q 557 -5 615 13 q 428 -22 499 -22 m 417 606 q 303 561 342 606 q 253 440 264 517 l 568 440 q 522 562 563 518 q 417 606 482 606 z "},"f":{"ha":549,"x_min":28,"x_max":511,"o":"m 28 739 l 139 739 l 139 801 q 201 975 139 918 q 294 1021 238 1007 q 421 1033 350 1035 q 465 1032 443 1033 q 511 1028 488 1031 l 511 872 q 440 872 469 874 q 392 862 411 871 q 365 835 374 853 q 357 786 357 817 l 357 739 l 511 739 l 511 597 l 357 597 l 357 0 l 139 0 l 139 597 l 28 597 l 28 739 z "},"g":{"ha":851,"x_min":43,"x_max":778,"o":"m 415 -257 q 169 -197 263 -257 q 60 -26 76 -136 l 272 -26 q 316 -81 283 -60 q 413 -101 349 -101 q 528 -64 490 -101 q 567 42 567 -26 l 567 57 q 571 154 567 117 l 565 154 q 365 46 500 46 q 243 69 301 46 q 140 137 185 92 q 69 247 96 182 q 43 396 43 313 q 66 544 43 476 q 131 659 89 611 q 229 733 172 707 q 354 760 286 760 q 482 733 429 760 q 567 644 535 707 l 569 644 l 569 739 l 778 739 l 778 65 q 752 -77 778 -18 q 682 -176 726 -136 q 565 -237 633 -218 q 415 -257 497 -257 m 414 210 q 485 224 456 210 q 535 265 515 239 q 565 326 556 292 q 574 403 574 361 q 533 540 574 485 q 413 594 493 594 q 299 542 340 594 q 257 401 257 490 q 299 262 257 314 q 414 210 340 210 z "},"h":{"ha":839,"x_min":72,"x_max":772,"o":"m 290 749 q 290 735 290 746 q 290 707 290 724 q 290 671 290 690 q 289 633 289 651 l 293 633 q 382 726 326 693 q 515 760 438 760 q 705 685 638 760 q 772 486 772 611 l 772 0 l 556 0 l 556 444 q 524 542 556 506 q 432 579 493 579 q 329 533 368 579 q 290 417 290 488 l 290 0 l 72 0 l 72 1033 l 290 1033 l 290 749 l 290 749 z "},"i":{"ha":363,"x_min":71,"x_max":292,"o":"m 71 1033 l 292 1033 l 292 843 l 71 843 l 71 1033 m 72 739 l 290 739 l 290 0 l 72 0 l 72 739 z "},"j":{"ha":363,"x_min":-51,"x_max":292,"o":"m 72 -251 q 8 -249 43 -251 q -51 -240 -26 -246 l -51 -86 l -43 -86 q -15 -86 -28 -86 q 8 -85 -3 -86 q 56 -66 40 -82 q 72 -10 72 -50 l 72 739 l 290 739 l 290 -18 q 276 -130 290 -89 q 235 -196 261 -171 q 163 -239 204 -226 q 72 -251 122 -251 m 71 1033 l 292 1033 l 292 843 l 71 843 l 71 1033 z "},"k":{"ha":819,"x_min":72,"x_max":807,"o":"m 361 322 l 288 246 l 288 0 l 72 0 l 72 1033 l 288 1033 l 288 711 q 285 569 288 629 q 281 474 283 510 l 524 739 l 776 739 l 513 465 l 807 0 l 554 0 l 361 322 z "},"l":{"ha":368,"x_min":75,"x_max":294,"o":"m 75 1033 l 294 1033 l 294 0 l 75 0 l 75 1033 z "},"m":{"ha":1264,"x_min":72,"x_max":1197,"o":"m 72 739 l 282 739 l 282 624 l 286 624 q 376 725 322 690 q 508 760 429 760 q 711 619 654 760 l 714 619 q 819 727 760 694 q 949 760 878 760 q 1135 685 1072 760 q 1197 488 1197 611 l 1197 0 l 981 0 l 981 451 q 952 547 981 513 q 871 581 924 581 q 778 536 813 581 q 744 421 744 492 l 744 0 l 526 0 l 526 451 q 499 547 526 513 q 418 581 472 581 q 325 536 360 581 q 290 421 290 492 l 290 0 l 72 0 l 72 739 z "},"n":{"ha":839,"x_min":72,"x_max":772,"o":"m 283 626 l 288 626 q 380 726 322 693 q 515 760 438 760 q 705 685 638 760 q 772 486 772 611 l 772 0 l 556 0 l 556 444 q 524 542 556 506 q 432 579 493 579 q 329 533 368 579 q 290 417 290 488 l 290 0 l 72 0 l 72 739 l 283 739 l 283 626 z "},"o":{"ha":856,"x_min":38,"x_max":818,"o":"m 429 -24 q 268 6 340 -24 q 144 89 196 36 q 65 213 93 142 q 38 368 38 285 q 65 523 38 451 q 144 647 93 594 q 268 730 196 700 q 429 760 340 760 q 589 730 517 760 q 712 647 661 700 q 790 523 763 594 q 818 368 818 451 q 790 213 818 285 q 712 89 763 142 q 589 6 661 36 q 429 -24 517 -24 m 428 135 q 553 199 510 135 q 597 368 597 264 q 553 539 597 474 q 428 604 510 604 q 301 539 344 604 q 258 368 258 474 q 301 199 258 264 q 428 135 344 135 z "},"p":{"ha":867,"x_min":72,"x_max":829,"o":"m 72 739 l 282 739 l 282 633 l 286 633 q 511 760 361 760 q 644 731 585 760 q 744 649 703 701 q 807 526 785 597 q 829 369 829 454 q 806 206 829 279 q 741 83 783 133 q 638 4 699 32 q 504 -24 578 -24 q 374 7 431 -24 q 286 92 318 38 l 283 92 q 288 31 286 71 q 290 -69 290 -10 l 290 -246 l 72 -246 l 72 739 m 453 146 q 568 204 528 146 q 608 363 608 263 q 569 524 608 463 q 450 586 531 586 q 377 569 408 586 q 325 521 346 551 q 294 450 304 490 q 283 363 283 410 q 326 206 283 267 q 453 146 369 146 z "},"q":{"ha":867,"x_min":39,"x_max":794,"o":"m 578 -69 q 579 26 578 -17 q 583 92 581 68 l 581 92 q 492 7 547 38 q 364 -24 438 -24 q 229 4 289 -24 q 127 83 169 32 q 62 206 85 133 q 39 369 39 279 q 62 526 39 454 q 126 649 85 597 q 227 731 168 701 q 360 760 286 760 q 582 635 508 760 l 586 635 l 586 739 l 794 739 l 794 -246 l 578 -246 l 578 -69 m 414 146 q 542 206 499 146 q 585 363 585 267 q 574 451 585 410 q 543 522 564 492 q 491 569 522 551 q 418 586 460 586 q 298 524 336 586 q 260 363 260 461 q 300 204 260 263 q 414 146 340 146 z "},"r":{"ha":569,"x_min":72,"x_max":538,"o":"m 282 607 l 286 607 q 372 718 322 685 q 492 751 422 751 q 538 746 525 751 l 538 556 l 532 556 q 486 560 508 560 q 344 506 397 561 q 290 343 290 451 l 290 0 l 72 0 l 72 739 l 282 739 l 282 607 z "},"s":{"ha":749,"x_min":25,"x_max":713,"o":"m 379 -24 q 235 -6 299 -24 q 126 46 171 13 q 55 126 81 79 q 25 228 29 172 l 231 228 q 278 147 240 175 q 381 119 317 119 q 471 142 439 119 q 503 204 503 164 q 488 244 503 229 q 446 269 472 260 q 385 285 419 279 q 313 299 351 292 q 215 321 263 308 q 131 358 168 333 q 70 424 93 383 q 47 529 47 464 q 72 629 47 586 q 138 701 96 672 q 236 745 179 731 q 358 760 293 760 q 592 699 513 760 q 686 542 671 639 l 483 542 q 358 621 463 621 q 278 601 308 621 q 249 546 249 582 q 263 512 249 525 q 301 490 276 499 q 360 476 326 482 q 431 464 393 471 q 531 442 481 456 q 621 403 581 429 q 687 333 661 376 q 713 219 713 289 q 688 114 713 160 q 618 38 663 68 q 513 -8 574 7 q 379 -24 451 -24 z "},"t":{"ha":540,"x_min":29,"x_max":499,"o":"m 29 739 l 140 739 l 140 975 l 354 975 l 354 739 l 499 739 l 499 600 l 354 600 l 354 233 q 376 177 354 192 q 436 163 397 163 q 461 163 447 163 q 486 165 475 164 l 497 165 l 497 3 q 447 -4 479 0 q 371 -8 415 -8 q 277 1 319 -8 q 204 33 235 10 q 157 92 174 56 q 140 186 140 129 l 140 600 l 29 600 l 29 739 z "},"u":{"ha":832,"x_min":67,"x_max":760,"o":"m 553 0 l 553 106 l 549 106 q 456 10 508 40 q 326 -21 403 -21 q 133 53 200 -21 q 67 250 67 128 l 67 739 l 285 739 l 285 292 q 315 196 285 229 q 403 163 344 163 q 507 207 469 163 q 544 321 544 251 l 544 739 l 760 739 l 760 0 l 553 0 z "},"v":{"ha":763,"x_min":7,"x_max":756,"o":"m 7 739 l 232 739 l 322 442 q 344 360 333 404 q 363 275 354 315 q 381 183 372 229 l 385 183 q 403 275 393 229 q 422 360 411 315 q 443 442 432 404 l 536 739 l 756 739 l 497 0 l 263 0 l 7 739 z "},"w":{"ha":1142,"x_min":10,"x_max":1131,"o":"m 10 739 l 232 739 l 310 451 q 326 378 318 418 q 340 304 333 339 q 353 222 347 264 l 356 222 q 371 304 364 263 q 385 381 378 340 q 403 454 393 421 l 478 739 l 663 739 l 740 454 q 758 381 750 421 q 774 304 767 340 q 789 221 781 263 l 792 221 q 804 303 797 261 q 819 378 811 338 q 836 451 826 418 l 915 739 l 1131 739 l 901 0 l 696 0 l 618 301 q 601 372 610 333 q 586 446 593 411 q 572 528 579 486 l 569 528 q 553 446 561 486 q 538 372 546 411 q 521 301 529 333 l 440 0 l 238 0 l 10 739 z "},"x":{"ha":824,"x_min":24,"x_max":800,"o":"m 283 388 l 49 739 l 297 739 l 340 669 q 368 619 354 646 q 393 568 382 592 q 418 513 407 540 l 421 513 q 446 568 432 540 q 470 619 457 592 q 496 669 483 646 l 536 739 l 767 739 l 540 392 l 800 0 l 547 0 l 490 94 q 463 147 476 118 q 438 200 449 175 q 410 258 424 229 l 407 258 l 378 200 q 351 147 365 175 q 321 94 336 118 l 261 0 l 24 0 l 283 388 z "},"y":{"ha":774,"x_min":7,"x_max":767,"o":"m 233 -247 q 208 -247 231 -247 q 160 -247 186 -247 q 111 -245 133 -246 q 88 -244 89 -244 l 88 -74 l 99 -74 q 110 -74 100 -74 q 133 -75 121 -75 q 156 -75 146 -75 q 169 -75 167 -75 q 275 0 268 -75 q 265 59 275 19 q 236 149 256 99 l 7 739 l 236 739 l 331 456 q 354 373 343 418 q 374 289 365 328 q 392 199 383 243 l 394 199 q 415 290 404 244 q 436 374 425 329 q 460 456 447 418 l 550 739 l 767 739 l 503 -18 q 456 -126 481 -82 q 399 -197 431 -169 q 326 -235 367 -224 q 233 -247 286 -247 z "},"z":{"ha":747,"x_min":50,"x_max":701,"o":"m 50 163 l 314 461 q 351 500 331 479 q 392 538 372 521 q 438 576 414 557 l 438 581 q 381 575 408 578 q 329 571 357 572 q 278 569 301 569 l 82 569 l 82 739 l 682 739 l 682 582 l 428 293 q 385 250 408 272 q 339 208 361 228 q 288 165 314 186 l 288 161 q 349 165 318 163 q 405 169 375 168 q 460 171 435 171 l 701 171 l 701 0 l 50 0 l 50 163 z "},"{":{"ha":589,"x_min":42,"x_max":532,"o":"m 493 -196 q 353 -183 413 -196 q 253 -140 293 -171 q 194 -56 214 -108 q 175 78 175 -3 l 175 261 q 146 340 175 314 q 42 368 117 365 l 42 531 q 146 559 117 533 q 175 638 175 585 l 175 818 q 194 950 175 897 q 253 1033 214 1003 q 353 1076 293 1064 q 493 1089 413 1089 l 532 1089 l 532 919 l 501 919 q 412 901 440 919 q 383 818 383 882 l 383 611 q 355 505 383 540 q 267 451 326 469 l 267 447 q 355 394 326 429 q 383 289 383 360 l 383 76 q 411 -7 383 14 q 501 -28 439 -28 l 532 -28 l 532 -196 l 493 -196 l 493 -196 z "},"|":{"ha":336,"x_min":99,"x_max":238,"o":"m 99 1089 l 238 1089 l 238 -196 l 99 -196 l 99 1089 z "},"}":{"ha":589,"x_min":60,"x_max":547,"o":"m 60 -28 l 89 -28 q 179 -8 151 -28 q 207 76 207 13 l 207 288 q 235 393 207 358 q 324 446 264 428 l 324 450 q 235 505 264 469 q 207 610 207 540 l 207 818 q 179 901 207 882 q 89 919 151 919 l 60 919 l 60 1089 l 97 1089 q 238 1076 178 1089 q 337 1033 297 1064 q 396 949 376 1001 q 415 817 415 897 l 415 636 q 444 558 415 585 q 547 529 474 532 l 547 368 q 444 340 474 365 q 415 261 415 314 l 415 78 q 396 -56 415 -3 q 337 -140 376 -108 q 238 -183 297 -171 q 97 -196 178 -196 l 60 -196 l 60 -28 z "},"~":{"ha":654,"x_min":49,"x_max":613,"o":"m 449 357 q 385 366 414 357 q 331 386 356 375 q 282 408 303 399 q 242 417 261 417 q 189 353 196 417 l 49 353 q 100 535 50 476 q 222 593 150 593 q 286 583 258 593 q 338 563 314 574 q 381 542 361 551 q 422 532 401 532 q 460 547 450 532 q 474 593 471 561 l 613 593 q 572 420 613 483 q 449 357 531 357 z "}," ":{"ha":329,"x_min":0,"x_max":0,"o":""},"¡":{"ha":401,"x_min":85,"x_max":317,"o":"m 314 75 l 314 -183 l 88 -183 l 88 75 l 144 490 l 257 490 l 314 75 m 317 622 l 85 622 l 85 850 l 317 850 l 317 622 z "},"¢":{"ha":806,"x_min":38,"x_max":776,"o":"m 379 -21 q 237 20 300 -12 q 129 105 174 53 q 61 224 85 157 q 38 368 38 290 q 61 514 38 446 q 129 634 85 582 q 237 719 174 686 q 379 758 300 751 l 379 882 l 467 882 l 467 758 q 585 730 532 753 q 678 671 639 707 q 740 586 717 635 q 772 481 764 538 l 565 481 q 531 553 557 524 q 467 593 506 582 l 467 144 q 538 189 511 156 q 571 278 564 222 l 776 278 q 751 165 774 217 q 688 73 728 113 q 592 8 649 33 q 467 -22 536 -17 l 467 -179 l 379 -179 l 379 -21 m 256 368 q 286 222 256 281 q 379 146 317 163 l 379 592 q 286 517 317 575 q 256 368 256 458 z "},"£":{"ha":871,"x_min":46,"x_max":839,"o":"m 54 547 l 118 547 q 88 618 100 581 q 75 704 75 656 q 99 824 75 768 q 172 922 124 881 q 290 986 219 963 q 451 1010 360 1010 q 598 990 532 1010 q 714 931 664 971 q 797 822 768 886 q 829 661 826 758 l 610 661 q 567 792 610 751 q 454 833 524 833 q 348 797 383 833 q 313 699 313 760 q 326 619 313 656 q 356 547 340 583 l 556 547 l 556 419 l 392 419 q 392 403 392 411 q 393 388 393 396 q 365 283 393 332 q 265 183 336 235 l 268 179 q 341 209 308 200 q 410 218 374 218 q 472 213 447 218 q 517 199 496 207 q 558 186 538 192 q 608 181 579 181 q 685 199 650 181 q 743 242 719 218 l 839 67 q 737 4 796 29 q 611 -21 678 -21 q 520 -10 558 -21 q 449 15 482 1 q 384 39 417 28 q 308 50 351 50 q 228 31 264 50 q 157 -12 192 13 l 46 153 q 147 243 108 193 q 186 356 186 293 q 183 388 186 372 q 176 419 181 404 l 54 419 l 54 547 z "},"¤":{"ha":749,"x_min":26,"x_max":722,"o":"m 26 235 l 121 329 q 81 486 81 397 q 121 642 81 574 l 26 739 l 136 846 l 232 747 q 374 782 294 782 q 515 747 453 782 l 613 846 l 722 739 l 625 642 q 656 569 646 608 q 665 486 665 531 q 626 331 665 400 l 722 235 l 613 126 l 515 225 q 374 192 454 192 q 233 225 293 192 l 136 126 l 26 235 m 374 322 q 470 367 436 322 q 504 486 504 411 q 470 607 504 561 q 374 653 436 653 q 276 607 311 653 q 240 486 240 561 q 276 367 240 411 q 374 322 311 322 z "},"¥":{"ha":940,"x_min":17,"x_max":921,"o":"m 114 461 l 321 461 l 17 990 l 267 990 l 367 800 q 403 723 385 765 q 436 644 421 681 q 469 557 453 600 l 472 557 q 507 644 489 600 q 540 723 522 681 q 576 800 558 765 l 675 990 l 921 990 l 615 461 l 824 461 l 824 372 l 578 372 l 578 272 l 824 272 l 824 182 l 578 182 l 578 0 l 360 0 l 360 182 l 114 182 l 114 272 l 360 272 l 360 372 l 114 372 l 114 461 z "},"¦":{"ha":336,"x_min":99,"x_max":238,"o":"m 99 1089 l 238 1089 l 238 549 l 99 549 l 99 1089 m 99 365 l 238 365 l 238 -196 l 99 -196 l 99 365 z "},"§":{"ha":918,"x_min":54,"x_max":869,"o":"m 478 -262 q 332 -241 396 -262 q 223 -181 268 -219 q 153 -92 178 -143 q 126 19 128 -40 l 328 19 q 365 -60 329 -26 q 469 -94 401 -94 q 553 -69 524 -94 q 583 -7 583 -43 q 568 37 583 19 q 522 71 553 54 q 446 105 492 88 q 339 149 400 122 q 219 204 272 176 q 130 265 167 232 q 74 339 93 297 q 54 435 54 381 q 103 563 54 511 q 235 633 151 614 q 176 698 199 664 q 154 792 154 732 q 177 888 154 844 q 241 963 200 932 q 339 1012 282 994 q 464 1029 396 1029 q 694 960 608 1029 q 788 768 781 890 l 596 768 q 563 838 592 810 q 472 865 533 865 q 391 844 417 865 q 365 789 365 824 q 378 751 365 767 q 418 719 392 735 q 485 688 444 704 q 579 649 525 671 q 688 599 636 625 q 781 542 740 574 q 845 468 821 510 q 869 371 869 426 q 822 236 869 282 q 696 171 775 190 q 767 99 739 140 q 796 -7 796 57 q 772 -116 796 -68 q 707 -197 749 -164 q 607 -246 665 -229 q 478 -262 549 -262 m 475 482 q 401 513 438 497 q 338 542 365 528 q 275 513 297 533 q 253 461 253 493 q 262 426 253 442 q 293 394 271 410 q 351 361 315 379 q 442 318 388 343 l 576 256 q 640 285 615 265 q 664 338 664 306 q 618 410 664 381 q 475 482 572 439 z "},"¨":{"ha":694,"x_min":75,"x_max":618,"o":"m 413 1033 l 618 1033 l 618 843 l 413 843 l 413 1033 m 75 1033 l 282 1033 l 282 843 l 75 843 l 75 1033 z "},"©":{"ha":1204,"x_min":71,"x_max":1133,"o":"m 603 -25 q 394 15 492 -25 q 225 128 297 56 q 112 299 153 200 q 71 513 71 397 q 112 728 71 629 q 225 898 153 826 q 394 1010 297 969 q 603 1051 492 1051 q 811 1010 714 1051 q 980 898 908 969 q 1092 728 1051 826 q 1133 513 1133 629 q 1092 299 1133 397 q 980 128 1051 200 q 811 15 908 56 q 603 -25 714 -25 m 603 44 q 781 80 699 44 q 922 178 863 115 q 1016 326 982 240 q 1050 513 1050 413 q 1016 699 1050 614 q 922 847 982 785 q 781 945 863 910 q 603 981 699 981 q 424 945 507 981 q 281 847 342 910 q 187 699 221 785 q 153 513 153 614 q 187 326 153 413 q 281 178 221 240 q 424 80 342 115 q 603 44 507 44 m 610 203 q 486 226 542 203 q 391 292 431 250 q 330 391 351 333 q 308 517 308 449 q 330 643 308 585 q 391 744 351 701 q 486 810 431 786 q 610 833 542 833 q 701 821 658 833 q 775 786 743 808 q 844 710 819 756 q 875 611 869 665 l 717 611 q 683 672 710 647 q 608 697 656 697 q 508 646 540 697 q 475 517 475 594 q 511 388 475 438 q 611 339 547 339 q 690 367 661 339 q 724 436 718 396 l 881 436 q 859 345 878 388 q 807 272 840 303 q 724 221 771 239 q 610 203 676 203 z "},"ª":{"ha":754,"x_min":51,"x_max":692,"o":"m 499 340 q 485 373 492 351 q 475 422 478 394 l 474 422 q 399 353 446 381 q 278 325 353 325 q 189 338 231 325 q 117 376 147 351 q 69 438 86 401 q 51 521 51 474 q 72 612 51 575 q 126 672 92 649 q 208 707 161 694 q 311 726 256 719 q 439 752 403 738 q 475 803 475 767 q 453 858 475 836 q 379 879 431 879 q 297 855 322 879 q 265 794 272 831 l 81 794 q 103 874 83 836 q 158 943 122 913 q 249 992 194 974 q 376 1010 303 1010 q 485 1000 439 1010 q 567 971 531 990 q 668 776 668 913 l 668 442 q 692 351 668 367 l 692 340 l 499 340 m 338 453 q 440 488 401 453 q 478 575 478 522 l 478 657 q 428 637 458 646 q 365 621 399 628 q 272 589 299 608 q 244 529 244 569 q 272 470 244 488 q 338 453 299 453 z "},"«":{"ha":710,"x_min":82,"x_max":628,"o":"m 394 267 l 394 469 l 628 681 l 628 493 l 494 367 l 494 364 l 628 238 l 628 56 l 394 267 m 82 267 l 82 469 l 314 681 l 314 493 l 181 367 l 181 364 l 314 238 l 314 56 l 82 267 z "},"¬":{"ha":756,"x_min":74,"x_max":667,"o":"m 74 618 l 667 618 l 667 219 l 476 219 l 476 439 l 74 439 l 74 618 z "},"­":{"ha":504,"x_min":56,"x_max":449,"o":"m 56 463 l 449 463 l 449 274 l 56 274 l 56 463 z "},"®":{"ha":914,"x_min":56,"x_max":858,"o":"m 458 239 q 300 269 374 239 q 172 354 226 300 q 87 483 118 408 q 56 644 56 557 q 87 807 56 732 q 172 936 118 882 q 300 1021 226 990 q 458 1051 374 1051 q 615 1021 542 1051 q 742 936 688 990 q 827 807 796 882 q 858 644 858 732 q 827 483 858 557 q 742 354 796 408 q 615 269 688 300 q 458 239 542 239 m 458 299 q 590 325 529 299 q 694 397 650 351 q 764 506 739 443 q 789 644 789 569 q 764 783 789 719 q 694 892 739 846 q 590 965 650 939 q 458 990 529 990 q 326 965 386 990 q 221 892 265 939 q 151 783 176 846 q 126 644 126 719 q 151 506 126 569 q 221 397 176 443 q 326 325 265 351 q 458 299 386 299 m 293 854 l 494 854 q 601 824 557 854 q 644 736 644 794 q 627 675 644 700 q 565 636 610 650 l 565 633 q 615 608 601 624 q 633 558 628 593 q 638 526 636 543 q 640 493 639 508 q 644 467 642 478 q 654 454 647 456 l 654 443 l 544 443 q 533 478 535 449 q 526 539 531 508 q 464 593 519 593 l 404 593 l 404 443 l 293 443 l 293 854 m 404 675 l 475 675 q 533 722 533 675 q 476 769 533 769 l 404 769 l 404 675 z "},"¯":{"ha":694,"x_min":133,"x_max":567,"o":"m 133 1008 l 567 1008 l 567 854 l 133 854 l 133 1008 z "},"°":{"ha":608,"x_min":61,"x_max":547,"o":"m 306 544 q 211 563 256 544 q 133 612 167 581 q 81 685 100 643 q 61 775 61 726 q 81 867 61 825 q 133 942 100 910 q 211 992 167 974 q 306 1010 256 1010 q 398 992 354 1010 q 475 942 442 974 q 528 867 508 910 q 547 775 547 825 q 528 685 547 726 q 475 612 508 643 q 398 563 442 581 q 306 544 354 544 m 306 657 q 387 692 357 657 q 417 775 417 726 q 387 860 417 824 q 306 897 357 897 q 222 860 253 897 q 192 775 192 824 q 222 692 192 726 q 306 657 253 657 z "},"±":{"ha":842,"x_min":74,"x_max":768,"o":"m 74 658 l 328 658 l 328 886 l 514 886 l 514 658 l 768 658 l 768 486 l 514 486 l 514 256 l 328 256 l 328 486 l 74 486 l 74 658 m 74 167 l 768 167 l 768 0 l 74 0 l 74 167 z "},"²":{"ha":606,"x_min":39,"x_max":563,"o":"m 39 400 q 82 551 40 493 q 186 654 124 610 q 265 705 228 683 q 329 746 301 726 q 373 786 357 765 q 389 835 389 807 q 369 891 389 869 q 310 913 350 913 q 240 883 265 913 q 214 804 214 853 l 47 804 q 67 908 47 863 q 121 983 86 953 q 205 1030 156 1014 q 314 1046 254 1046 q 419 1030 372 1046 q 497 987 465 1014 q 544 923 528 960 q 561 846 561 886 q 553 786 561 813 q 533 739 546 760 q 501 701 519 718 q 461 667 482 683 q 410 631 438 647 q 356 599 382 614 q 306 569 329 583 q 267 538 282 554 l 563 538 l 563 400 l 39 400 l 39 400 z "},"³":{"ha":617,"x_min":31,"x_max":576,"o":"m 315 383 q 192 401 244 383 q 103 449 139 418 q 49 519 68 479 q 31 604 31 558 l 199 604 q 225 542 201 569 q 304 514 249 514 q 374 535 350 514 q 399 593 399 556 q 371 653 399 636 q 292 669 343 669 l 256 669 l 256 786 l 286 786 q 360 803 333 786 q 386 854 386 819 q 364 905 386 886 q 306 924 342 924 q 238 899 258 924 q 215 844 218 874 l 49 844 q 70 923 51 886 q 122 988 89 960 q 203 1031 156 1015 q 313 1047 251 1047 q 411 1035 367 1047 q 488 999 456 1022 q 538 942 519 976 q 556 865 556 908 q 526 789 556 818 q 444 740 497 760 l 444 739 q 542 684 507 721 q 576 583 576 647 q 556 494 576 532 q 499 432 535 457 q 417 395 464 407 q 315 383 369 383 z "},"´":{"ha":694,"x_min":246,"x_max":574,"o":"m 319 1074 l 574 1074 l 408 850 l 246 850 l 319 1074 z "},"µ":{"ha":838,"x_min":72,"x_max":765,"o":"m 72 739 l 290 739 l 290 292 q 320 196 290 229 q 408 163 350 163 q 513 207 475 163 q 550 321 550 251 l 550 739 l 765 739 l 765 0 l 558 0 l 558 106 l 554 106 q 477 22 526 56 q 353 -11 428 -11 q 313 -5 329 -11 q 288 10 296 1 l 285 10 q 288 -35 286 -11 q 290 -80 289 -54 q 290 -129 290 -106 l 290 -246 l 72 -246 l 72 739 z "},"¶":{"ha":839,"x_min":50,"x_max":753,"o":"m 328 488 q 213 507 264 488 q 125 562 161 526 q 69 647 89 597 q 50 757 50 697 q 72 871 50 819 q 132 960 93 922 q 350 1033 210 1033 l 753 1033 l 753 -194 l 625 -194 l 625 900 l 515 900 l 515 -194 l 388 -194 l 388 488 l 328 488 z "},"·":{"ha":357,"x_min":63,"x_max":294,"o":"m 63 572 l 294 572 l 294 343 l 63 343 l 63 572 z "},"¸":{"ha":694,"x_min":158,"x_max":493,"o":"m 315 -292 q 226 -280 267 -292 q 158 -250 186 -268 l 186 -196 q 231 -212 207 -206 q 282 -218 256 -218 q 330 -208 310 -218 q 350 -172 350 -197 q 336 -142 350 -151 q 301 -132 322 -132 q 277 -135 288 -132 q 256 -142 267 -137 l 231 -106 l 329 0 l 422 0 l 336 -76 l 336 -79 q 395 -78 367 -75 q 445 -94 424 -82 q 480 -128 467 -107 q 493 -178 493 -149 q 444 -261 493 -231 q 315 -292 394 -292 z "},"¹":{"ha":475,"x_min":40,"x_max":379,"o":"m 200 783 l 40 783 l 40 904 q 174 940 124 907 q 238 1040 224 974 l 379 1040 l 379 400 l 200 400 l 200 783 z "},"º":{"ha":774,"x_min":42,"x_max":732,"o":"m 388 322 q 246 349 310 322 q 137 421 182 375 q 67 529 92 467 q 42 665 42 592 q 67 802 42 739 q 137 911 92 865 q 246 983 182 957 q 388 1010 310 1010 q 530 983 467 1010 q 638 911 593 957 q 708 802 683 865 q 732 665 732 739 q 708 529 732 592 q 638 421 683 467 q 530 349 593 375 q 388 322 467 322 m 386 463 q 493 519 457 463 q 529 665 529 575 q 493 813 529 756 q 386 869 457 869 q 280 813 315 869 q 244 665 244 756 q 280 519 244 575 q 386 463 315 463 z "},"»":{"ha":710,"x_min":82,"x_max":628,"o":"m 314 468 l 314 265 l 82 56 l 82 242 l 215 368 l 215 371 l 82 497 l 82 681 l 314 468 m 628 468 l 628 265 l 394 56 l 394 242 l 529 368 l 529 371 l 394 497 l 394 681 l 628 468 z "},"¼":{"ha":1261,"x_min":44,"x_max":1231,"o":"m 960 -19 l 656 -19 l 656 124 l 960 488 l 1138 488 l 1138 104 l 1231 104 l 1231 -19 l 1138 -19 l 1138 -153 l 960 -153 l 960 -19 m 978 1033 l 1122 1033 l 250 -181 l 107 -181 l 978 1033 m 204 783 l 44 783 l 44 904 q 178 940 128 907 q 242 1040 228 974 l 383 1040 l 383 400 l 204 400 l 204 783 m 765 94 q 804 99 785 96 q 840 103 821 101 q 874 104 858 104 l 960 104 l 960 238 q 960 267 960 251 q 964 299 961 283 q 969 333 967 315 l 967 333 l 947 304 q 910 253 929 276 l 846 174 q 794 122 821 147 q 765 97 779 108 l 765 94 z "},"½":{"ha":1311,"x_min":44,"x_max":1264,"o":"m 204 783 l 44 783 l 44 904 q 178 940 128 907 q 242 1040 228 974 l 383 1040 l 383 400 l 204 400 l 204 783 m 965 1033 l 1110 1033 l 238 -181 l 94 -181 l 965 1033 m 740 -153 q 783 -1 742 -60 q 888 101 825 57 q 966 152 929 131 q 1031 193 1003 174 q 1074 233 1058 213 q 1090 282 1090 254 q 1071 338 1090 317 q 1011 360 1051 360 q 941 330 967 360 q 915 251 915 300 l 749 251 q 768 355 749 310 q 822 431 788 400 q 906 477 857 461 q 1015 493 956 493 q 1120 477 1074 493 q 1198 434 1167 461 q 1246 370 1229 407 q 1263 293 1263 333 q 1255 233 1263 260 q 1234 186 1247 207 q 1202 148 1221 165 q 1163 114 1183 131 q 1111 78 1139 94 q 1057 46 1083 61 q 1007 16 1031 31 q 968 -15 983 1 l 1264 -15 l 1264 -153 l 740 -153 z "},"¾":{"ha":1383,"x_min":35,"x_max":1353,"o":"m 1082 -19 l 778 -19 l 778 124 l 1082 488 l 1260 488 l 1260 104 l 1353 104 l 1353 -19 l 1260 -19 l 1260 -153 l 1082 -153 l 1082 -19 m 319 383 q 196 401 249 383 q 108 449 143 418 q 53 519 72 479 q 35 604 35 558 l 203 604 q 229 542 206 569 q 308 514 253 514 q 378 535 354 514 q 403 593 403 556 q 375 653 403 636 q 296 669 347 669 l 260 669 l 260 786 l 290 786 q 364 803 338 786 q 390 854 390 819 q 368 905 390 886 q 310 924 346 924 q 242 899 263 924 q 219 844 222 874 l 53 844 q 74 923 56 886 q 126 988 93 960 q 208 1031 160 1015 q 317 1047 256 1047 q 415 1035 371 1047 q 492 999 460 1022 q 542 942 524 976 q 560 865 560 908 q 531 789 560 818 q 449 740 501 760 l 449 739 q 546 684 511 721 q 581 583 581 647 q 560 494 581 532 q 503 432 539 457 q 421 395 468 407 q 319 383 374 383 m 1088 1033 l 1232 1033 l 360 -181 l 217 -181 l 1088 1033 m 888 94 q 926 99 907 96 q 962 103 943 101 q 996 104 981 104 l 1082 104 l 1082 238 q 1083 267 1082 251 q 1086 299 1083 283 q 1092 333 1089 315 l 1089 333 l 1069 304 q 1032 253 1051 276 l 968 174 q 917 122 943 147 q 888 97 901 108 l 888 94 z "},"¿":{"ha":806,"x_min":40,"x_max":776,"o":"m 543 622 l 313 622 l 313 850 l 543 850 l 543 622 m 522 490 q 517 413 522 446 q 499 352 511 379 q 466 301 486 325 q 417 254 446 278 q 367 216 393 233 q 319 179 342 199 q 283 137 297 160 q 269 83 269 114 q 307 7 269 35 q 403 -21 344 -21 q 516 22 474 -21 q 561 131 558 65 l 776 131 q 748 0 774 61 q 673 -106 722 -61 q 553 -176 624 -150 q 394 -201 483 -201 q 247 -181 313 -201 q 136 -125 182 -161 q 65 -37 90 -89 q 40 78 40 15 q 72 206 40 156 q 144 289 104 257 q 239 357 201 333 q 299 404 276 381 q 322 442 315 424 q 328 490 328 460 l 522 490 z "},"À":{"ha":1022,"x_min":14,"x_max":1006,"o":"m 386 1033 l 632 1033 l 1006 0 l 756 0 l 690 197 l 315 197 l 251 0 l 14 0 l 386 1033 m 371 367 l 636 367 l 574 560 q 544 662 557 613 q 524 750 532 711 q 507 835 514 796 l 504 835 q 482 735 493 783 q 459 645 471 693 q 435 560 447 597 l 371 367 m 268 1272 l 531 1272 l 590 1090 l 421 1090 l 268 1272 z "},"Á":{"ha":1022,"x_min":14,"x_max":1006,"o":"m 386 1033 l 632 1033 l 1006 0 l 756 0 l 690 197 l 315 197 l 251 0 l 14 0 l 386 1033 m 371 367 l 636 367 l 574 560 q 544 662 557 613 q 524 750 532 711 q 507 835 514 796 l 504 835 q 482 735 493 783 q 459 645 471 693 q 435 560 447 597 l 371 367 m 474 1272 l 736 1272 l 585 1090 l 414 1090 l 474 1272 z "},"Â":{"ha":1022,"x_min":14,"x_max":1006,"o":"m 386 1033 l 632 1033 l 1006 0 l 756 0 l 690 197 l 315 197 l 251 0 l 14 0 l 386 1033 m 399 1272 l 611 1272 l 763 1090 l 574 1090 l 510 1169 l 507 1169 l 440 1090 l 249 1090 l 399 1272 m 371 367 l 636 367 l 574 560 q 544 662 557 613 q 524 750 532 711 q 507 835 514 796 l 504 835 q 482 735 493 783 q 459 645 471 693 q 435 560 447 597 l 371 367 z "},"Ã":{"ha":1022,"x_min":14,"x_max":1006,"o":"m 386 1033 l 632 1033 l 1006 0 l 756 0 l 690 197 l 315 197 l 251 0 l 14 0 l 386 1033 m 611 1092 q 553 1100 579 1092 q 505 1119 526 1108 q 465 1138 483 1129 q 431 1147 446 1147 q 399 1133 413 1147 q 383 1090 386 1119 l 264 1090 q 276 1176 264 1139 q 308 1237 288 1213 q 356 1274 329 1261 q 414 1286 383 1286 q 472 1277 447 1286 q 518 1258 497 1268 q 556 1239 539 1247 q 590 1231 574 1231 q 638 1283 632 1231 l 757 1283 q 719 1144 757 1196 q 611 1092 681 1092 m 371 367 l 636 367 l 574 560 q 544 662 557 613 q 524 750 532 711 q 507 835 514 796 l 504 835 q 482 735 493 783 q 459 645 471 693 q 435 560 447 597 l 371 367 z "},"Ä":{"ha":1022,"x_min":14,"x_max":1006,"o":"m 386 1033 l 632 1033 l 1006 0 l 756 0 l 690 197 l 315 197 l 251 0 l 14 0 l 386 1033 m 371 367 l 636 367 l 574 560 q 544 662 557 613 q 524 750 532 711 q 507 835 514 796 l 504 835 q 482 735 493 783 q 459 645 471 693 q 435 560 447 597 l 371 367 m 235 1276 l 447 1276 l 447 1090 l 235 1090 l 235 1276 m 575 1276 l 786 1276 l 786 1090 l 575 1090 l 575 1276 z "},"Å":{"ha":1022,"x_min":14,"x_max":1006,"o":"m 386 1033 l 632 1033 l 1006 0 l 756 0 l 690 197 l 315 197 l 251 0 l 14 0 l 386 1033 m 511 1078 q 449 1090 478 1078 q 399 1122 421 1101 q 364 1169 376 1142 q 351 1231 351 1197 q 364 1290 351 1263 q 399 1339 376 1318 q 449 1372 421 1360 q 511 1385 478 1385 q 572 1372 543 1385 q 623 1339 601 1360 q 657 1290 644 1318 q 669 1231 669 1263 q 657 1169 669 1197 q 623 1122 644 1142 q 572 1090 601 1101 q 511 1078 543 1078 m 371 367 l 636 367 l 574 560 q 544 662 557 613 q 524 750 532 711 q 507 835 514 796 l 504 835 q 482 735 493 783 q 459 645 471 693 q 435 560 447 597 l 371 367 m 511 1157 q 563 1178 543 1157 q 583 1231 583 1199 q 563 1285 583 1263 q 511 1307 543 1307 q 458 1285 478 1307 q 438 1231 438 1263 q 458 1178 438 1199 q 511 1157 478 1157 z "},"Æ":{"ha":1451,"x_min":14,"x_max":1396,"o":"m 1379 835 l 875 835 l 875 628 l 1307 628 l 1307 442 l 875 442 l 875 208 l 1396 208 l 1396 0 l 636 0 l 636 201 l 315 201 l 249 0 l 14 0 l 368 1033 l 1379 1033 l 1379 835 m 371 369 l 636 369 l 636 835 l 524 835 l 371 369 z "},"Ç":{"ha":1040,"x_min":44,"x_max":1004,"o":"m 499 -292 q 410 -280 450 -292 q 342 -250 369 -268 l 369 -196 q 415 -212 390 -206 q 465 -218 439 -218 q 513 -208 493 -218 q 533 -172 533 -197 q 519 -142 533 -151 q 485 -132 506 -132 q 460 -135 471 -132 q 439 -142 450 -137 l 414 -106 l 493 -21 q 309 33 392 -11 q 167 148 226 78 q 76 311 108 218 q 44 513 44 404 q 81 726 44 628 q 183 897 117 825 q 342 1010 249 969 q 551 1051 436 1051 q 710 1031 638 1051 q 835 971 782 1011 q 945 846 906 919 q 994 685 985 772 l 758 685 q 692 806 747 758 q 550 854 638 854 q 434 828 483 854 q 352 757 385 803 q 303 649 319 711 q 286 513 286 586 q 305 376 286 439 q 358 269 324 314 q 441 198 392 224 q 551 172 490 172 q 703 226 647 172 q 767 361 758 281 l 1004 361 q 965 215 999 283 q 879 93 932 146 q 751 10 824 39 q 579 -22 678 -19 l 519 -76 l 519 -79 q 578 -78 550 -75 q 628 -94 607 -82 q 663 -128 650 -107 q 676 -178 676 -149 q 627 -261 676 -231 q 499 -292 578 -292 z "},"È":{"ha":931,"x_min":88,"x_max":872,"o":"m 88 1033 l 863 1033 l 863 836 l 324 836 l 324 631 l 790 631 l 790 443 l 324 443 l 324 203 l 872 203 l 872 0 l 88 0 l 88 1033 m 247 1272 l 510 1272 l 569 1090 l 400 1090 l 247 1272 z "},"É":{"ha":931,"x_min":88,"x_max":872,"o":"m 88 1033 l 863 1033 l 863 836 l 324 836 l 324 631 l 790 631 l 790 443 l 324 443 l 324 203 l 872 203 l 872 0 l 88 0 l 88 1033 m 453 1272 l 715 1272 l 564 1090 l 393 1090 l 453 1272 z "},"Ê":{"ha":931,"x_min":88,"x_max":872,"o":"m 88 1033 l 863 1033 l 863 836 l 324 836 l 324 631 l 790 631 l 790 443 l 324 443 l 324 203 l 872 203 l 872 0 l 88 0 l 88 1033 m 378 1272 l 590 1272 l 742 1090 l 553 1090 l 489 1169 l 486 1169 l 419 1090 l 228 1090 l 378 1272 z "},"Ë":{"ha":931,"x_min":88,"x_max":872,"o":"m 88 1033 l 863 1033 l 863 836 l 324 836 l 324 631 l 790 631 l 790 443 l 324 443 l 324 203 l 872 203 l 872 0 l 88 0 l 88 1033 m 214 1276 l 426 1276 l 426 1090 l 214 1090 l 214 1276 m 554 1276 l 765 1276 l 765 1090 l 554 1090 l 554 1276 z "},"Ì":{"ha":414,"x_min":-36,"x_max":325,"o":"m 88 1033 l 325 1033 l 325 0 l 88 0 l 88 1033 m -36 1272 l 226 1272 l 286 1090 l 117 1090 l -36 1272 z "},"Í":{"ha":414,"x_min":88,"x_max":432,"o":"m 88 1033 l 325 1033 l 325 0 l 88 0 l 88 1033 m 169 1272 l 432 1272 l 281 1090 l 110 1090 l 169 1272 z "},"Î":{"ha":414,"x_min":-56,"x_max":458,"o":"m 88 1033 l 325 1033 l 325 0 l 88 0 l 88 1033 m 94 1272 l 307 1272 l 458 1090 l 269 1090 l 206 1169 l 203 1169 l 136 1090 l -56 1090 l 94 1272 z "},"Ï":{"ha":414,"x_min":-42,"x_max":454,"o":"m 88 1033 l 325 1033 l 325 0 l 88 0 l 88 1033 m 257 1276 l 454 1276 l 454 1090 l 257 1090 l 257 1276 m -42 1276 l 157 1276 l 157 1090 l -42 1090 l -42 1276 z "},"Ð":{"ha":1044,"x_min":13,"x_max":1003,"o":"m 13 617 l 96 617 l 96 1033 l 526 1033 q 723 996 635 1033 q 874 890 811 958 q 969 725 936 822 q 1003 510 1003 628 q 971 301 1003 394 q 876 140 939 207 q 722 37 814 74 q 513 0 631 0 l 96 0 l 96 432 l 13 432 l 13 617 m 494 200 q 695 281 629 200 q 761 510 761 361 q 695 745 761 657 q 499 833 629 833 l 331 833 l 331 617 l 568 617 l 568 432 l 331 432 l 331 200 l 494 200 z "},"Ñ":{"ha":1046,"x_min":88,"x_max":960,"o":"m 88 1033 l 329 1033 l 601 585 q 649 498 625 544 q 694 410 674 451 l 743 313 l 746 313 q 739 419 742 365 q 735 518 736 465 q 733 615 733 571 l 733 1033 l 960 1033 l 960 0 l 717 0 l 447 443 q 399 531 424 482 q 353 621 374 579 q 304 719 328 669 l 301 719 q 307 611 304 665 q 312 513 310 565 q 314 415 314 460 l 314 0 l 88 0 l 88 1033 m 635 1092 q 576 1100 603 1092 q 528 1119 550 1108 q 488 1138 507 1129 q 454 1147 469 1147 q 423 1133 436 1147 q 407 1090 410 1119 l 288 1090 q 299 1176 288 1139 q 332 1237 311 1213 q 380 1274 353 1261 q 438 1286 407 1286 q 496 1277 471 1286 q 542 1258 521 1268 q 580 1239 563 1247 q 614 1231 597 1231 q 661 1283 656 1231 l 781 1283 q 742 1144 781 1196 q 635 1092 704 1092 z "},"Ò":{"ha":1110,"x_min":44,"x_max":1065,"o":"m 556 -25 q 343 15 438 -25 q 182 128 249 56 q 80 299 115 200 q 44 513 44 397 q 80 728 44 629 q 182 898 115 826 q 343 1010 249 969 q 556 1051 438 1051 q 767 1010 672 1051 q 928 898 861 969 q 1030 728 994 826 q 1065 513 1065 629 q 1030 299 1065 397 q 928 128 994 200 q 767 15 861 56 q 556 -25 672 -25 m 557 169 q 674 196 624 169 q 757 268 724 222 q 807 376 790 314 q 824 513 824 439 q 807 649 824 586 q 757 760 790 713 q 674 833 724 807 q 557 860 624 860 q 440 833 490 860 q 355 760 389 807 q 303 649 321 713 q 286 513 286 586 q 303 376 286 439 q 355 268 321 314 q 440 196 389 222 q 557 169 490 169 m 313 1272 l 575 1272 l 635 1090 l 465 1090 l 313 1272 z "},"Ó":{"ha":1110,"x_min":44,"x_max":1065,"o":"m 556 -25 q 343 15 438 -25 q 182 128 249 56 q 80 299 115 200 q 44 513 44 397 q 80 728 44 629 q 182 898 115 826 q 343 1010 249 969 q 556 1051 438 1051 q 767 1010 672 1051 q 928 898 861 969 q 1030 728 994 826 q 1065 513 1065 629 q 1030 299 1065 397 q 928 128 994 200 q 767 15 861 56 q 556 -25 672 -25 m 557 169 q 674 196 624 169 q 757 268 724 222 q 807 376 790 314 q 824 513 824 439 q 807 649 824 586 q 757 760 790 713 q 674 833 724 807 q 557 860 624 860 q 440 833 490 860 q 355 760 389 807 q 303 649 321 713 q 286 513 286 586 q 303 376 286 439 q 355 268 321 314 q 440 196 389 222 q 557 169 490 169 m 518 1272 l 781 1272 l 629 1090 l 458 1090 l 518 1272 z "},"Ô":{"ha":1110,"x_min":44,"x_max":1065,"o":"m 556 -25 q 343 15 438 -25 q 182 128 249 56 q 80 299 115 200 q 44 513 44 397 q 80 728 44 629 q 182 898 115 826 q 343 1010 249 969 q 556 1051 438 1051 q 767 1010 672 1051 q 928 898 861 969 q 1030 728 994 826 q 1065 513 1065 629 q 1030 299 1065 397 q 928 128 994 200 q 767 15 861 56 q 556 -25 672 -25 m 557 169 q 674 196 624 169 q 757 268 724 222 q 807 376 790 314 q 824 513 824 439 q 807 649 824 586 q 757 760 790 713 q 674 833 724 807 q 557 860 624 860 q 440 833 490 860 q 355 760 389 807 q 303 649 321 713 q 286 513 286 586 q 303 376 286 439 q 355 268 321 314 q 440 196 389 222 q 557 169 490 169 m 443 1272 l 656 1272 l 807 1090 l 618 1090 l 554 1169 l 551 1169 l 485 1090 l 293 1090 l 443 1272 z "},"Õ":{"ha":1110,"x_min":44,"x_max":1065,"o":"m 556 -25 q 343 15 438 -25 q 182 128 249 56 q 80 299 115 200 q 44 513 44 397 q 80 728 44 629 q 182 898 115 826 q 343 1010 249 969 q 556 1051 438 1051 q 767 1010 672 1051 q 928 898 861 969 q 1030 728 994 826 q 1065 513 1065 629 q 1030 299 1065 397 q 928 128 994 200 q 767 15 861 56 q 556 -25 672 -25 m 557 169 q 674 196 624 169 q 757 268 724 222 q 807 376 790 314 q 824 513 824 439 q 807 649 824 586 q 757 760 790 713 q 674 833 724 807 q 557 860 624 860 q 440 833 490 860 q 355 760 389 807 q 303 649 321 713 q 286 513 286 586 q 303 376 286 439 q 355 268 321 314 q 440 196 389 222 q 557 169 490 169 m 656 1092 q 597 1100 624 1092 q 549 1119 571 1108 q 509 1138 528 1129 q 475 1147 490 1147 q 444 1133 457 1147 q 428 1090 431 1119 l 308 1090 q 320 1176 308 1139 q 353 1237 332 1213 q 401 1274 374 1261 q 458 1286 428 1286 q 517 1277 492 1286 q 563 1258 542 1268 q 601 1239 583 1247 q 635 1231 618 1231 q 682 1283 676 1231 l 801 1283 q 763 1144 801 1196 q 656 1092 725 1092 z "},"Ö":{"ha":1110,"x_min":44,"x_max":1065,"o":"m 556 -25 q 343 15 438 -25 q 182 128 249 56 q 80 299 115 200 q 44 513 44 397 q 80 728 44 629 q 182 898 115 826 q 343 1010 249 969 q 556 1051 438 1051 q 767 1010 672 1051 q 928 898 861 969 q 1030 728 994 826 q 1065 513 1065 629 q 1030 299 1065 397 q 928 128 994 200 q 767 15 861 56 q 556 -25 672 -25 m 557 169 q 674 196 624 169 q 757 268 724 222 q 807 376 790 314 q 824 513 824 439 q 807 649 824 586 q 757 760 790 713 q 674 833 724 807 q 557 860 624 860 q 440 833 490 860 q 355 760 389 807 q 303 649 321 713 q 286 513 286 586 q 303 376 286 439 q 355 268 321 314 q 440 196 389 222 q 557 169 490 169 m 619 1276 l 831 1276 l 831 1090 l 619 1090 l 619 1276 m 279 1276 l 492 1276 l 492 1090 l 279 1090 l 279 1276 z "},"×":{"ha":840,"x_min":76,"x_max":764,"o":"m 76 247 l 299 471 l 78 693 l 199 815 l 419 593 l 642 815 l 764 693 l 542 471 l 764 249 l 642 126 l 419 349 l 197 126 l 76 247 z "},"Ø":{"ha":1110,"x_min":33,"x_max":1075,"o":"m 33 10 l 161 153 q 74 315 104 224 q 44 513 44 406 q 80 728 44 629 q 182 898 115 826 q 343 1010 249 969 q 556 1051 438 1051 q 730 1024 650 1051 q 872 949 810 997 l 992 1083 l 1075 1013 l 950 871 q 1035 709 1006 800 q 1065 513 1065 618 q 1030 299 1065 397 q 928 128 994 200 q 767 15 861 56 q 556 -25 672 -25 q 381 1 460 -25 q 240 75 303 26 l 117 -62 l 33 10 m 286 513 q 317 328 286 406 l 733 793 q 658 842 701 825 q 557 860 614 860 q 440 833 490 860 q 355 760 389 807 q 303 649 321 713 q 286 513 286 586 m 557 169 q 674 196 624 169 q 758 268 724 222 q 808 376 792 314 q 825 513 825 439 q 817 610 825 564 q 794 697 810 657 l 381 232 q 557 169 447 169 z "},"Ù":{"ha":1006,"x_min":76,"x_max":931,"o":"m 506 -19 q 185 78 294 -19 q 76 360 76 176 l 76 1033 l 313 1033 l 313 354 q 359 221 313 269 q 506 172 406 172 q 646 223 599 172 q 693 358 693 274 l 693 1033 l 931 1033 l 931 360 q 822 79 931 178 q 506 -19 714 -19 m 271 1272 l 533 1272 l 593 1090 l 424 1090 l 271 1272 z "},"Ú":{"ha":1006,"x_min":76,"x_max":931,"o":"m 506 -19 q 185 78 294 -19 q 76 360 76 176 l 76 1033 l 313 1033 l 313 354 q 359 221 313 269 q 506 172 406 172 q 646 223 599 172 q 693 358 693 274 l 693 1033 l 931 1033 l 931 360 q 822 79 931 178 q 506 -19 714 -19 m 475 1272 l 738 1272 l 586 1090 l 415 1090 l 475 1272 z "},"Û":{"ha":1006,"x_min":76,"x_max":931,"o":"m 506 -19 q 185 78 294 -19 q 76 360 76 176 l 76 1033 l 313 1033 l 313 354 q 359 221 313 269 q 506 172 406 172 q 646 223 599 172 q 693 358 693 274 l 693 1033 l 931 1033 l 931 360 q 822 79 931 178 q 506 -19 714 -19 m 392 1272 l 604 1272 l 756 1090 l 567 1090 l 503 1169 l 500 1169 l 433 1090 l 242 1090 l 392 1272 z "},"Ü":{"ha":1006,"x_min":76,"x_max":931,"o":"m 506 -19 q 185 78 294 -19 q 76 360 76 176 l 76 1033 l 313 1033 l 313 354 q 359 221 313 269 q 506 172 406 172 q 646 223 599 172 q 693 358 693 274 l 693 1033 l 931 1033 l 931 360 q 822 79 931 178 q 506 -19 714 -19 m 568 1276 l 779 1276 l 779 1090 l 568 1090 l 568 1276 m 228 1276 l 440 1276 l 440 1090 l 228 1090 l 228 1276 z "},"Ý":{"ha":975,"x_min":15,"x_max":960,"o":"m 369 386 l 15 1033 l 275 1033 l 386 817 q 422 738 404 781 q 456 658 440 696 q 489 571 472 614 l 492 571 q 526 658 508 614 q 560 738 542 696 q 597 817 579 781 l 710 1033 l 960 1033 l 606 389 l 606 0 l 369 0 l 369 386 m 451 1272 l 714 1272 l 563 1090 l 392 1090 l 451 1272 z "},"Þ":{"ha":953,"x_min":88,"x_max":922,"o":"m 88 1033 l 328 1033 l 328 885 l 547 885 q 708 859 639 885 q 824 786 776 833 q 897 679 871 740 q 922 540 922 618 q 898 406 922 467 q 828 301 874 344 q 719 233 783 257 q 575 208 656 208 l 328 208 l 328 0 l 88 0 l 88 1033 m 328 683 l 328 396 l 529 396 q 644 435 604 396 q 683 542 683 475 q 644 646 683 608 q 531 683 604 683 l 328 683 z "},"ß":{"ha":842,"x_min":72,"x_max":803,"o":"m 474 -12 q 379 -1 415 -12 l 379 160 q 386 158 382 158 q 535 193 482 147 q 588 339 588 239 q 544 469 588 422 q 413 515 501 515 l 383 515 l 383 643 l 397 643 q 506 674 465 643 q 547 767 547 704 q 516 852 547 819 q 426 885 485 885 q 327 849 364 885 q 290 742 290 813 l 290 0 l 72 0 l 72 749 q 97 874 72 818 q 166 969 121 931 q 276 1029 211 1008 q 424 1050 342 1050 q 558 1031 497 1050 q 661 978 618 1013 q 728 894 704 943 q 751 785 751 844 q 716 666 751 714 q 601 592 681 618 l 601 588 q 752 492 701 560 q 803 321 803 424 q 778 176 803 239 q 708 72 753 114 q 604 9 664 31 q 474 -12 544 -12 z "},"à":{"ha":806,"x_min":42,"x_max":758,"o":"m 546 0 q 531 35 538 13 q 521 90 524 58 l 518 90 q 431 10 482 39 q 294 -19 381 -19 q 194 -5 240 -19 q 113 38 147 10 q 60 108 79 65 q 42 204 42 150 q 65 306 42 265 q 126 371 88 346 q 218 409 165 396 q 332 429 271 422 q 474 463 431 443 q 518 524 518 482 q 492 588 518 564 q 408 613 465 613 q 315 586 346 613 q 279 515 283 560 l 78 515 q 100 607 79 563 q 161 685 121 651 q 263 740 201 719 q 406 760 324 760 q 528 749 476 760 q 618 715 579 739 q 703 626 676 682 q 731 494 731 569 l 731 115 q 758 13 731 31 l 758 0 l 546 0 m 171 1074 l 425 1074 l 499 850 l 338 850 l 171 1074 m 363 124 q 480 164 436 124 q 524 265 524 204 l 524 361 q 466 337 500 346 q 396 319 432 328 q 289 282 324 304 q 254 211 254 260 q 286 143 254 163 q 363 124 318 124 z "},"á":{"ha":806,"x_min":42,"x_max":758,"o":"m 546 0 q 531 35 538 13 q 521 90 524 58 l 518 90 q 431 10 482 39 q 294 -19 381 -19 q 194 -5 240 -19 q 113 38 147 10 q 60 108 79 65 q 42 204 42 150 q 65 306 42 265 q 126 371 88 346 q 218 409 165 396 q 332 429 271 422 q 474 463 431 443 q 518 524 518 482 q 492 588 518 564 q 408 613 465 613 q 315 586 346 613 q 279 515 283 560 l 78 515 q 100 607 79 563 q 161 685 121 651 q 263 740 201 719 q 406 760 324 760 q 528 749 476 760 q 618 715 579 739 q 703 626 676 682 q 731 494 731 569 l 731 115 q 758 13 731 31 l 758 0 l 546 0 m 396 1074 l 650 1074 l 485 850 l 322 850 l 396 1074 m 363 124 q 480 164 436 124 q 524 265 524 204 l 524 361 q 466 337 500 346 q 396 319 432 328 q 289 282 324 304 q 254 211 254 260 q 286 143 254 163 q 363 124 318 124 z "},"â":{"ha":806,"x_min":42,"x_max":758,"o":"m 546 0 q 531 35 538 13 q 521 90 524 58 l 518 90 q 431 10 482 39 q 294 -19 381 -19 q 194 -5 240 -19 q 113 38 147 10 q 60 108 79 65 q 42 204 42 150 q 65 306 42 265 q 126 371 88 346 q 218 409 165 396 q 332 429 271 422 q 474 463 431 443 q 518 524 518 482 q 492 588 518 564 q 408 613 465 613 q 315 586 346 613 q 279 515 283 560 l 78 515 q 100 607 79 563 q 161 685 121 651 q 263 740 201 719 q 406 760 324 760 q 528 749 476 760 q 618 715 579 739 q 703 626 676 682 q 731 494 731 569 l 731 115 q 758 13 731 31 l 758 0 l 546 0 m 297 1058 l 510 1058 l 661 853 l 474 853 l 408 961 l 406 961 l 338 853 l 147 853 l 297 1058 m 363 124 q 480 164 436 124 q 524 265 524 204 l 524 361 q 466 337 500 346 q 396 319 432 328 q 289 282 324 304 q 254 211 254 260 q 286 143 254 163 q 363 124 318 124 z "},"ã":{"ha":806,"x_min":42,"x_max":758,"o":"m 546 0 q 531 35 538 13 q 521 90 524 58 l 518 90 q 431 10 482 39 q 294 -19 381 -19 q 194 -5 240 -19 q 113 38 147 10 q 60 108 79 65 q 42 204 42 150 q 65 306 42 265 q 126 371 88 346 q 218 409 165 396 q 332 429 271 422 q 474 463 431 443 q 518 524 518 482 q 492 588 518 564 q 408 613 465 613 q 315 586 346 613 q 279 515 283 560 l 78 515 q 100 607 79 563 q 161 685 121 651 q 263 740 201 719 q 406 760 324 760 q 528 749 476 760 q 618 715 579 739 q 703 626 676 682 q 731 494 731 569 l 731 115 q 758 13 731 31 l 758 0 l 546 0 m 508 851 q 450 860 476 851 q 401 880 424 869 q 360 899 379 890 q 326 908 342 908 q 294 894 308 908 q 278 850 281 879 l 161 850 q 173 935 161 899 q 206 997 185 972 q 253 1033 226 1021 q 311 1046 281 1046 q 370 1037 344 1046 q 417 1017 396 1028 q 456 998 438 1007 q 490 989 474 989 q 538 1043 532 989 l 654 1043 q 616 903 654 956 q 508 851 578 851 m 363 124 q 480 164 436 124 q 524 265 524 204 l 524 361 q 466 337 500 346 q 396 319 432 328 q 289 282 324 304 q 254 211 254 260 q 286 143 254 163 q 363 124 318 124 z "},"ä":{"ha":806,"x_min":42,"x_max":758,"o":"m 546 0 q 531 35 538 13 q 521 90 524 58 l 518 90 q 431 10 482 39 q 294 -19 381 -19 q 194 -5 240 -19 q 113 38 147 10 q 60 108 79 65 q 42 204 42 150 q 65 306 42 265 q 126 371 88 346 q 218 409 165 396 q 332 429 271 422 q 474 463 431 443 q 518 524 518 482 q 492 588 518 564 q 408 613 465 613 q 315 586 346 613 q 279 515 283 560 l 78 515 q 100 607 79 563 q 161 685 121 651 q 263 740 201 719 q 406 760 324 760 q 528 749 476 760 q 618 715 579 739 q 703 626 676 682 q 731 494 731 569 l 731 115 q 758 13 731 31 l 758 0 l 546 0 m 363 124 q 480 164 436 124 q 524 265 524 204 l 524 361 q 466 337 500 346 q 396 319 432 328 q 289 282 324 304 q 254 211 254 260 q 286 143 254 163 q 363 124 318 124 m 136 1033 l 343 1033 l 343 843 l 136 843 l 136 1033 m 474 1033 l 679 1033 l 679 843 l 474 843 l 474 1033 z "},"å":{"ha":806,"x_min":42,"x_max":758,"o":"m 546 0 q 531 35 538 13 q 521 90 524 58 l 518 90 q 431 10 482 39 q 294 -19 381 -19 q 194 -5 240 -19 q 113 38 147 10 q 60 108 79 65 q 42 204 42 150 q 65 306 42 265 q 126 371 88 346 q 218 409 165 396 q 332 429 271 422 q 474 463 431 443 q 518 524 518 482 q 492 588 518 564 q 408 613 465 613 q 315 586 346 613 q 279 515 283 560 l 78 515 q 100 607 79 563 q 161 685 121 651 q 263 740 201 719 q 406 760 324 760 q 528 749 476 760 q 618 715 579 739 q 703 626 676 682 q 731 494 731 569 l 731 115 q 758 13 731 31 l 758 0 l 546 0 m 408 828 q 347 840 375 828 q 296 872 318 851 q 261 919 274 892 q 249 981 249 947 q 261 1040 249 1013 q 296 1089 274 1068 q 347 1122 318 1110 q 408 1135 375 1135 q 469 1122 440 1135 q 520 1089 499 1110 q 554 1040 542 1068 q 567 981 567 1013 q 554 919 567 947 q 520 872 542 892 q 469 840 499 851 q 408 828 440 828 m 363 124 q 480 164 436 124 q 524 265 524 204 l 524 361 q 466 337 500 346 q 396 319 432 328 q 289 282 324 304 q 254 211 254 260 q 286 143 254 163 q 363 124 318 124 m 408 907 q 460 928 440 907 q 481 981 481 949 q 460 1035 481 1013 q 408 1057 440 1057 q 355 1035 375 1057 q 335 981 335 1013 q 355 928 335 949 q 408 907 375 907 z "},"æ":{"ha":1296,"x_min":42,"x_max":1260,"o":"m 324 -21 q 115 37 189 -21 q 42 204 42 94 q 65 306 42 265 q 126 371 88 346 q 218 409 165 396 q 332 429 271 422 q 474 463 431 443 q 518 524 518 482 q 492 588 518 564 q 408 613 465 613 q 315 586 346 613 q 279 515 283 560 l 78 515 q 100 607 79 563 q 161 685 121 651 q 263 740 201 719 q 406 760 324 760 q 657 668 583 760 q 759 735 700 711 q 894 760 818 760 q 1033 737 974 760 q 1140 668 1092 714 q 1233 515 1207 607 q 1258 314 1260 424 l 732 314 q 784 183 742 231 q 906 136 826 136 q 985 155 956 136 q 1033 208 1015 174 l 1246 208 q 1203 117 1232 160 q 1132 44 1175 75 q 1032 -5 1089 13 q 904 -22 975 -22 q 729 15 800 -22 q 617 119 658 53 q 496 13 564 46 q 324 -21 428 -21 m 363 124 q 480 164 436 124 q 524 265 524 204 l 524 361 q 466 337 500 346 q 396 319 432 328 q 289 282 324 304 q 254 211 254 260 q 286 143 254 163 q 363 124 318 124 m 892 606 q 781 561 817 606 q 733 440 744 517 l 1036 440 q 992 562 1031 518 q 892 606 954 606 z "},"ç":{"ha":801,"x_min":38,"x_max":772,"o":"m 375 -292 q 286 -280 326 -292 q 218 -250 246 -268 l 246 -196 q 291 -212 267 -206 q 342 -218 315 -218 q 390 -208 369 -218 q 410 -172 410 -197 q 396 -142 410 -151 q 361 -132 382 -132 q 337 -135 347 -132 q 315 -142 326 -137 l 290 -106 l 369 -19 q 232 22 293 -11 q 128 107 171 56 q 61 225 85 158 q 38 368 38 292 q 65 523 38 451 q 142 647 92 594 q 263 730 192 700 q 421 760 333 760 q 554 740 494 760 q 658 683 614 719 q 729 597 701 647 q 767 486 757 546 l 556 486 q 511 567 544 538 q 424 597 478 597 q 299 535 340 597 q 258 368 258 472 q 299 204 258 267 q 424 142 340 142 q 520 176 485 142 q 563 275 556 211 l 772 275 q 747 163 769 215 q 683 70 724 110 q 584 6 642 31 q 456 -22 526 -18 l 396 -76 l 396 -79 q 455 -78 426 -75 q 505 -94 483 -82 q 540 -128 526 -107 q 553 -178 553 -149 q 503 -261 553 -231 q 375 -292 454 -292 z "},"è":{"ha":828,"x_min":38,"x_max":792,"o":"m 428 -22 q 265 8 338 -22 q 142 90 193 38 q 65 214 92 143 q 38 368 38 285 q 65 523 38 451 q 143 647 93 594 q 263 730 193 700 q 417 760 332 760 q 559 735 496 760 q 671 665 622 710 q 763 514 733 604 q 790 314 792 424 l 251 314 q 307 183 263 231 q 431 136 351 136 q 515 155 482 136 q 565 208 547 174 l 776 208 q 733 117 763 160 q 659 44 703 75 q 557 -5 615 13 q 428 -22 499 -22 m 181 1074 l 435 1074 l 508 850 l 347 850 l 181 1074 m 417 606 q 303 561 342 606 q 253 440 264 517 l 568 440 q 522 562 563 518 q 417 606 482 606 z "},"é":{"ha":828,"x_min":38,"x_max":792,"o":"m 428 -22 q 265 8 338 -22 q 142 90 193 38 q 65 214 92 143 q 38 368 38 285 q 65 523 38 451 q 143 647 93 594 q 263 730 193 700 q 417 760 332 760 q 559 735 496 760 q 671 665 622 710 q 763 514 733 604 q 790 314 792 424 l 251 314 q 307 183 263 231 q 431 136 351 136 q 515 155 482 136 q 565 208 547 174 l 776 208 q 733 117 763 160 q 659 44 703 75 q 557 -5 615 13 q 428 -22 499 -22 m 406 1074 l 660 1074 l 494 850 l 332 850 l 406 1074 m 417 606 q 303 561 342 606 q 253 440 264 517 l 568 440 q 522 562 563 518 q 417 606 482 606 z "},"ê":{"ha":828,"x_min":38,"x_max":792,"o":"m 428 -22 q 265 8 338 -22 q 142 90 193 38 q 65 214 92 143 q 38 368 38 285 q 65 523 38 451 q 143 647 93 594 q 263 730 193 700 q 417 760 332 760 q 559 735 496 760 q 671 665 622 710 q 763 514 733 604 q 790 314 792 424 l 251 314 q 307 183 263 231 q 431 136 351 136 q 515 155 482 136 q 565 208 547 174 l 776 208 q 733 117 763 160 q 659 44 703 75 q 557 -5 615 13 q 428 -22 499 -22 m 307 1058 l 519 1058 l 671 853 l 483 853 l 418 961 l 415 961 l 347 853 l 157 853 l 307 1058 m 417 606 q 303 561 342 606 q 253 440 264 517 l 568 440 q 522 562 563 518 q 417 606 482 606 z "},"ë":{"ha":828,"x_min":38,"x_max":792,"o":"m 428 -22 q 265 8 338 -22 q 142 90 193 38 q 65 214 92 143 q 38 368 38 285 q 65 523 38 451 q 143 647 93 594 q 263 730 193 700 q 417 760 332 760 q 559 735 496 760 q 671 665 622 710 q 763 514 733 604 q 790 314 792 424 l 251 314 q 307 183 263 231 q 431 136 351 136 q 515 155 482 136 q 565 208 547 174 l 776 208 q 733 117 763 160 q 659 44 703 75 q 557 -5 615 13 q 428 -22 499 -22 m 417 606 q 303 561 342 606 q 253 440 264 517 l 568 440 q 522 562 563 518 q 417 606 482 606 m 146 1033 l 353 1033 l 353 843 l 146 843 l 146 1033 m 483 1033 l 689 1033 l 689 843 l 483 843 l 483 1033 z "},"ì":{"ha":363,"x_min":-56,"x_max":290,"o":"m 72 739 l 290 739 l 290 0 l 72 0 l 72 739 m -56 1074 l 199 1074 l 272 850 l 111 850 l -56 1074 z "},"í":{"ha":363,"x_min":72,"x_max":424,"o":"m 72 739 l 290 739 l 290 0 l 72 0 l 72 739 m 169 1074 l 424 1074 l 258 850 l 96 850 l 169 1074 z "},"î":{"ha":363,"x_min":-79,"x_max":435,"o":"m 72 739 l 290 739 l 290 0 l 72 0 l 72 739 m 71 1058 l 283 1058 l 435 853 l 247 853 l 182 961 l 179 961 l 111 853 l -79 853 l 71 1058 z "},"ï":{"ha":363,"x_min":-35,"x_max":397,"o":"m 72 739 l 290 739 l 290 0 l 72 0 l 72 739 m 219 1033 l 397 1033 l 397 843 l 219 843 l 219 1033 m -35 1033 l 144 1033 l 144 843 l -35 843 l -35 1033 z "},"ð":{"ha":856,"x_min":38,"x_max":818,"o":"m 192 863 l 358 914 q 282 973 319 946 q 211 1024 244 1000 l 211 1033 l 488 1033 q 524 1007 506 1021 q 561 976 542 993 l 701 1019 l 742 933 l 636 900 q 706 806 672 857 q 764 694 739 754 q 803 567 789 635 q 818 424 818 499 q 797 248 818 329 q 728 106 775 167 q 607 11 681 46 q 429 -24 533 -24 q 268 6 340 -24 q 144 89 196 36 q 65 213 93 142 q 38 368 38 285 q 62 520 38 451 q 130 638 86 589 q 236 715 174 688 q 375 742 299 742 q 467 727 422 742 q 550 671 513 713 l 554 671 q 505 760 535 718 q 439 839 475 801 l 232 774 l 192 863 m 428 135 q 553 199 510 135 q 596 368 596 263 q 553 534 596 472 q 426 596 510 596 q 301 533 343 596 q 258 367 258 471 q 301 199 258 263 q 428 135 344 135 z "},"ñ":{"ha":839,"x_min":72,"x_max":772,"o":"m 283 626 l 288 626 q 380 726 322 693 q 515 760 438 760 q 705 685 638 760 q 772 486 772 611 l 772 0 l 556 0 l 556 444 q 524 542 556 506 q 432 579 493 579 q 329 533 368 579 q 290 417 290 488 l 290 0 l 72 0 l 72 739 l 283 739 l 283 626 m 526 851 q 468 860 494 851 q 419 880 442 869 q 378 899 397 890 q 344 908 360 908 q 313 894 326 908 q 296 850 299 879 l 179 850 q 191 935 179 899 q 224 997 203 972 q 272 1033 244 1021 q 329 1046 299 1046 q 388 1037 363 1046 q 435 1017 414 1028 q 474 998 456 1007 q 508 989 492 989 q 556 1043 550 989 l 672 1043 q 634 903 672 956 q 526 851 596 851 z "},"ò":{"ha":856,"x_min":38,"x_max":818,"o":"m 429 -24 q 268 6 340 -24 q 144 89 196 36 q 65 213 93 142 q 38 368 38 285 q 65 523 38 451 q 144 647 93 594 q 268 730 196 700 q 429 760 340 760 q 589 730 517 760 q 712 647 661 700 q 790 523 763 594 q 818 368 818 451 q 790 213 818 285 q 712 89 763 142 q 589 6 661 36 q 429 -24 517 -24 m 428 135 q 553 199 510 135 q 597 368 597 264 q 553 539 597 474 q 428 604 510 604 q 301 539 344 604 q 258 368 258 474 q 301 199 258 264 q 428 135 344 135 m 192 1074 l 446 1074 l 519 850 l 358 850 l 192 1074 z "},"ó":{"ha":856,"x_min":38,"x_max":818,"o":"m 429 -24 q 268 6 340 -24 q 144 89 196 36 q 65 213 93 142 q 38 368 38 285 q 65 523 38 451 q 144 647 93 594 q 268 730 196 700 q 429 760 340 760 q 589 730 517 760 q 712 647 661 700 q 790 523 763 594 q 818 368 818 451 q 790 213 818 285 q 712 89 763 142 q 589 6 661 36 q 429 -24 517 -24 m 428 135 q 553 199 510 135 q 597 368 597 264 q 553 539 597 474 q 428 604 510 604 q 301 539 344 604 q 258 368 258 474 q 301 199 258 264 q 428 135 344 135 m 417 1074 l 671 1074 l 506 850 l 343 850 l 417 1074 z "},"ô":{"ha":856,"x_min":38,"x_max":818,"o":"m 429 -24 q 268 6 340 -24 q 144 89 196 36 q 65 213 93 142 q 38 368 38 285 q 65 523 38 451 q 144 647 93 594 q 268 730 196 700 q 429 760 340 760 q 589 730 517 760 q 712 647 661 700 q 790 523 763 594 q 818 368 818 451 q 790 213 818 285 q 712 89 763 142 q 589 6 661 36 q 429 -24 517 -24 m 428 135 q 553 199 510 135 q 597 368 597 264 q 553 539 597 474 q 428 604 510 604 q 301 539 344 604 q 258 368 258 474 q 301 199 258 264 q 428 135 344 135 m 318 1058 l 531 1058 l 682 853 l 494 853 l 429 961 l 426 961 l 358 853 l 168 853 l 318 1058 z "},"õ":{"ha":856,"x_min":38,"x_max":818,"o":"m 429 -24 q 268 6 340 -24 q 144 89 196 36 q 65 213 93 142 q 38 368 38 285 q 65 523 38 451 q 144 647 93 594 q 268 730 196 700 q 429 760 340 760 q 589 730 517 760 q 712 647 661 700 q 790 523 763 594 q 818 368 818 451 q 790 213 818 285 q 712 89 763 142 q 589 6 661 36 q 429 -24 517 -24 m 428 135 q 553 199 510 135 q 597 368 597 264 q 553 539 597 474 q 428 604 510 604 q 301 539 344 604 q 258 368 258 474 q 301 199 258 264 q 428 135 344 135 m 529 851 q 471 860 497 851 q 422 880 444 869 q 381 899 400 890 q 347 908 363 908 q 315 894 329 908 q 299 850 301 879 l 182 850 q 194 935 182 899 q 226 997 206 972 q 274 1033 247 1021 q 332 1046 301 1046 q 391 1037 365 1046 q 438 1017 417 1028 q 476 998 458 1007 q 511 989 494 989 q 558 1043 553 989 l 675 1043 q 637 903 675 956 q 529 851 599 851 z "},"ö":{"ha":856,"x_min":38,"x_max":818,"o":"m 429 -24 q 268 6 340 -24 q 144 89 196 36 q 65 213 93 142 q 38 368 38 285 q 65 523 38 451 q 144 647 93 594 q 268 730 196 700 q 429 760 340 760 q 589 730 517 760 q 712 647 661 700 q 790 523 763 594 q 818 368 818 451 q 790 213 818 285 q 712 89 763 142 q 589 6 661 36 q 429 -24 517 -24 m 428 135 q 553 199 510 135 q 597 368 597 264 q 553 539 597 474 q 428 604 510 604 q 301 539 344 604 q 258 368 258 474 q 301 199 258 264 q 428 135 344 135 m 494 1033 l 700 1033 l 700 843 l 494 843 l 494 1033 m 157 1033 l 364 1033 l 364 843 l 157 843 l 157 1033 z "},"÷":{"ha":838,"x_min":82,"x_max":757,"o":"m 304 867 l 535 867 l 535 663 l 304 663 l 304 867 m 82 564 l 757 564 l 757 388 l 82 388 l 82 564 m 304 288 l 535 288 l 535 83 l 304 83 l 304 288 z "},"ø":{"ha":856,"x_min":26,"x_max":829,"o":"m 26 -18 l 133 101 q 63 222 88 154 q 38 368 38 289 q 65 523 38 451 q 144 647 93 594 q 268 730 196 700 q 429 760 340 760 q 557 741 499 760 q 663 689 615 722 l 761 799 l 829 738 l 729 626 q 795 509 772 575 q 818 368 818 443 q 790 213 818 285 q 712 89 763 142 q 589 6 661 36 q 429 -24 517 -24 q 306 -7 363 -24 q 203 42 249 10 l 94 -79 l 26 -18 m 254 368 q 258 307 254 336 q 269 253 261 278 l 544 558 q 494 593 524 581 q 428 606 465 606 q 299 540 344 606 q 254 368 254 474 m 428 133 q 555 199 510 133 q 600 368 600 264 q 589 471 600 422 l 318 171 q 428 133 360 133 z "},"ù":{"ha":832,"x_min":67,"x_max":760,"o":"m 553 0 l 553 106 l 549 106 q 456 10 508 40 q 326 -21 403 -21 q 133 53 200 -21 q 67 250 67 128 l 67 739 l 285 739 l 285 292 q 315 196 285 229 q 403 163 344 163 q 507 207 469 163 q 544 321 544 251 l 544 739 l 760 739 l 760 0 l 553 0 m 175 1074 l 429 1074 l 503 850 l 342 850 l 175 1074 z "},"ú":{"ha":832,"x_min":67,"x_max":760,"o":"m 553 0 l 553 106 l 549 106 q 456 10 508 40 q 326 -21 403 -21 q 133 53 200 -21 q 67 250 67 128 l 67 739 l 285 739 l 285 292 q 315 196 285 229 q 403 163 344 163 q 507 207 469 163 q 544 321 544 251 l 544 739 l 760 739 l 760 0 l 553 0 m 400 1074 l 654 1074 l 489 850 l 326 850 l 400 1074 z "},"û":{"ha":832,"x_min":67,"x_max":760,"o":"m 553 0 l 553 106 l 549 106 q 456 10 508 40 q 326 -21 403 -21 q 133 53 200 -21 q 67 250 67 128 l 67 739 l 285 739 l 285 292 q 315 196 285 229 q 403 163 344 163 q 507 207 469 163 q 544 321 544 251 l 544 739 l 760 739 l 760 0 l 553 0 m 301 1058 l 514 1058 l 665 853 l 478 853 l 413 961 l 410 961 l 342 853 l 151 853 l 301 1058 z "},"ü":{"ha":832,"x_min":67,"x_max":760,"o":"m 553 0 l 553 106 l 549 106 q 456 10 508 40 q 326 -21 403 -21 q 133 53 200 -21 q 67 250 67 128 l 67 739 l 285 739 l 285 292 q 315 196 285 229 q 403 163 344 163 q 507 207 469 163 q 544 321 544 251 l 544 739 l 760 739 l 760 0 l 553 0 m 140 1033 l 347 1033 l 347 843 l 140 843 l 140 1033 m 478 1033 l 683 1033 l 683 843 l 478 843 l 478 1033 z "},"ý":{"ha":774,"x_min":7,"x_max":767,"o":"m 233 -247 q 208 -247 231 -247 q 160 -247 186 -247 q 111 -245 133 -246 q 88 -244 89 -244 l 88 -74 l 99 -74 q 110 -74 100 -74 q 133 -75 121 -75 q 156 -75 146 -75 q 169 -75 167 -75 q 275 0 268 -75 q 265 59 275 19 q 236 149 256 99 l 7 739 l 236 739 l 331 456 q 354 373 343 418 q 374 289 365 328 q 392 199 383 243 l 394 199 q 415 290 404 244 q 436 374 425 329 q 460 456 447 418 l 550 739 l 767 739 l 503 -18 q 456 -126 481 -82 q 399 -197 431 -169 q 326 -235 367 -224 q 233 -247 286 -247 m 381 1074 l 635 1074 l 469 850 l 307 850 l 381 1074 z "},"þ":{"ha":864,"x_min":72,"x_max":829,"o":"m 510 -24 q 376 7 435 -24 q 286 92 318 38 l 283 92 q 288 31 286 71 q 290 -69 290 -10 l 290 -244 l 72 -244 l 72 1033 l 290 1033 l 290 807 q 288 715 290 760 q 283 636 286 669 l 288 636 q 380 726 325 693 q 511 760 435 760 q 644 731 585 760 q 744 649 703 701 q 807 526 785 597 q 829 369 829 454 q 806 206 829 279 q 742 83 783 133 q 641 4 700 32 q 510 -24 582 -24 m 453 146 q 568 204 528 146 q 608 363 608 263 q 569 524 608 463 q 450 586 531 586 q 377 569 408 586 q 325 521 346 551 q 294 450 304 490 q 283 363 283 410 q 326 206 283 267 q 453 146 369 146 z "},"ÿ":{"ha":774,"x_min":7,"x_max":767,"o":"m 233 -247 q 208 -247 231 -247 q 160 -247 186 -247 q 111 -245 133 -246 q 88 -244 89 -244 l 88 -74 l 99 -74 q 110 -74 100 -74 q 133 -75 121 -75 q 156 -75 146 -75 q 169 -75 167 -75 q 275 0 268 -75 q 265 59 275 19 q 236 149 256 99 l 7 739 l 236 739 l 331 456 q 354 373 343 418 q 374 289 365 328 q 392 199 383 243 l 394 199 q 415 290 404 244 q 436 374 425 329 q 460 456 447 418 l 550 739 l 767 739 l 503 -18 q 456 -126 481 -82 q 399 -197 431 -169 q 326 -235 367 -224 q 233 -247 286 -247 m 458 1033 l 664 1033 l 664 843 l 458 843 l 458 1033 m 121 1033 l 328 1033 l 328 843 l 121 843 l 121 1033 z "},"Ā":{"ha":1022,"x_min":14,"x_max":1006,"o":"m 386 1033 l 632 1033 l 1006 0 l 756 0 l 690 197 l 315 197 l 251 0 l 14 0 l 386 1033 m 293 1250 l 726 1250 l 726 1096 l 293 1096 l 293 1250 m 371 367 l 636 367 l 574 560 q 544 662 557 613 q 524 750 532 711 q 507 835 514 796 l 504 835 q 482 735 493 783 q 459 645 471 693 q 435 560 447 597 l 371 367 z "},"ā":{"ha":806,"x_min":42,"x_max":758,"o":"m 546 0 q 531 35 538 13 q 521 90 524 58 l 518 90 q 431 10 482 39 q 294 -19 381 -19 q 194 -5 240 -19 q 113 38 147 10 q 60 108 79 65 q 42 204 42 150 q 65 306 42 265 q 126 371 88 346 q 218 409 165 396 q 332 429 271 422 q 474 463 431 443 q 518 524 518 482 q 492 588 518 564 q 408 613 465 613 q 315 586 346 613 q 279 515 283 560 l 78 515 q 100 607 79 563 q 161 685 121 651 q 263 740 201 719 q 406 760 324 760 q 528 749 476 760 q 618 715 579 739 q 703 626 676 682 q 731 494 731 569 l 731 115 q 758 13 731 31 l 758 0 l 546 0 m 190 1008 l 624 1008 l 624 854 l 190 854 l 190 1008 m 363 124 q 480 164 436 124 q 524 265 524 204 l 524 361 q 466 337 500 346 q 396 319 432 328 q 289 282 324 304 q 254 211 254 260 q 286 143 254 163 q 363 124 318 124 z "},"Ă":{"ha":1022,"x_min":14,"x_max":1006,"o":"m 386 1033 l 632 1033 l 1006 0 l 756 0 l 690 197 l 315 197 l 251 0 l 14 0 l 386 1033 m 514 1082 q 352 1138 414 1082 q 286 1279 290 1193 l 413 1279 q 443 1235 419 1254 q 513 1217 467 1217 q 579 1237 556 1217 q 610 1279 603 1257 l 733 1279 q 716 1202 732 1238 q 672 1140 700 1167 q 604 1097 644 1113 q 514 1082 564 1082 m 371 367 l 636 367 l 574 560 q 544 662 557 613 q 524 750 532 711 q 507 835 514 796 l 504 835 q 482 735 493 783 q 459 645 471 693 q 435 560 447 597 l 371 367 z "},"ă":{"ha":806,"x_min":42,"x_max":758,"o":"m 546 0 q 531 35 538 13 q 521 90 524 58 l 518 90 q 431 10 482 39 q 294 -19 381 -19 q 194 -5 240 -19 q 113 38 147 10 q 60 108 79 65 q 42 204 42 150 q 65 306 42 265 q 126 371 88 346 q 218 409 165 396 q 332 429 271 422 q 474 463 431 443 q 518 524 518 482 q 492 588 518 564 q 408 613 465 613 q 315 586 346 613 q 279 515 283 560 l 78 515 q 100 607 79 563 q 161 685 121 651 q 263 740 201 719 q 406 760 324 760 q 528 749 476 760 q 618 715 579 739 q 703 626 676 682 q 731 494 731 569 l 731 115 q 758 13 731 31 l 758 0 l 546 0 m 411 842 q 322 857 363 842 q 250 900 281 872 q 201 967 219 928 q 181 1057 182 1007 l 307 1057 q 338 998 313 1019 q 410 976 364 976 q 478 999 453 976 q 510 1057 504 1022 l 633 1057 q 615 969 632 1008 q 569 901 599 929 q 500 858 540 874 q 411 842 460 842 m 363 124 q 480 164 436 124 q 524 265 524 204 l 524 361 q 466 337 500 346 q 396 319 432 328 q 289 282 324 304 q 254 211 254 260 q 286 143 254 163 q 363 124 318 124 z "},"Ą":{"ha":1022,"x_min":14,"x_max":1003,"o":"m 899 -256 q 773 -224 815 -256 q 731 -139 731 -192 q 741 -89 731 -111 q 767 -50 751 -67 q 801 -21 782 -33 q 840 0 821 -8 l 756 0 l 690 197 l 315 197 l 251 0 l 14 0 l 386 1033 l 632 1033 l 1003 7 q 930 -47 953 -17 q 907 -101 907 -76 q 953 -139 907 -139 q 975 -137 965 -139 q 993 -133 985 -136 l 996 -133 l 996 -243 q 959 -252 982 -249 q 899 -256 936 -256 m 371 367 l 636 367 l 574 560 q 544 662 557 613 q 524 750 532 711 q 507 835 514 796 l 504 835 q 482 735 493 783 q 459 645 471 693 q 435 560 447 597 l 371 367 z "},"ą":{"ha":806,"x_min":42,"x_max":764,"o":"m 667 -256 q 542 -224 583 -256 q 501 -139 501 -192 q 533 -53 501 -86 q 603 0 565 -21 l 546 0 q 531 35 538 13 q 521 90 524 58 l 518 90 q 431 10 482 39 q 294 -19 381 -19 q 194 -5 240 -19 q 113 38 147 10 q 60 108 79 65 q 42 204 42 150 q 65 306 42 265 q 126 371 88 346 q 218 409 165 396 q 332 429 271 422 q 474 463 431 443 q 518 524 518 482 q 492 588 518 564 q 408 613 465 613 q 315 586 346 613 q 279 515 283 560 l 78 515 q 100 607 79 563 q 161 685 121 651 q 263 740 201 719 q 406 760 324 760 q 528 749 476 760 q 618 715 579 739 q 703 626 676 682 q 731 494 731 569 l 731 115 q 758 13 731 31 l 758 0 q 696 -47 717 -19 q 675 -101 675 -75 q 721 -139 675 -139 q 743 -137 733 -139 q 761 -133 753 -136 l 764 -133 l 764 -243 q 727 -252 750 -249 q 667 -256 704 -256 m 363 124 q 480 164 436 124 q 524 265 524 204 l 524 361 q 466 337 500 346 q 396 319 432 328 q 289 282 324 304 q 254 211 254 260 q 286 143 254 163 q 363 124 318 124 z "},"Ć":{"ha":1040,"x_min":44,"x_max":1004,"o":"m 551 -24 q 345 17 439 -24 q 185 128 251 57 q 81 299 118 200 q 44 513 44 397 q 81 726 44 628 q 183 897 117 825 q 342 1010 249 969 q 551 1051 436 1051 q 710 1031 638 1051 q 835 971 782 1011 q 945 846 906 919 q 994 685 985 772 l 758 685 q 692 806 747 758 q 550 854 638 854 q 434 828 483 854 q 352 757 385 803 q 303 649 319 711 q 286 513 286 586 q 305 376 286 439 q 358 269 324 314 q 441 198 392 224 q 551 172 490 172 q 703 226 647 172 q 767 361 758 281 l 1004 361 q 965 215 999 283 q 879 93 932 146 q 740 6 821 35 q 551 -24 660 -24 m 499 1272 l 761 1272 l 610 1090 l 439 1090 l 499 1272 z "},"ć":{"ha":801,"x_min":38,"x_max":772,"o":"m 426 -24 q 266 6 338 -24 q 144 89 194 36 q 65 213 93 142 q 38 368 38 285 q 65 523 38 451 q 142 647 92 594 q 263 730 192 700 q 421 760 333 760 q 554 740 494 760 q 658 683 614 719 q 729 597 701 647 q 767 486 757 546 l 556 486 q 511 567 544 538 q 424 597 478 597 q 299 535 340 597 q 258 368 258 472 q 299 204 258 267 q 424 142 340 142 q 520 176 485 142 q 563 275 556 211 l 772 275 q 744 158 769 213 q 674 63 718 103 q 566 -1 629 22 q 426 -24 503 -24 m 400 1074 l 654 1074 l 489 850 l 326 850 l 400 1074 z "},"Ĉ":{"ha":1040,"x_min":44,"x_max":1004,"o":"m 551 -24 q 345 17 439 -24 q 185 128 251 57 q 81 299 118 200 q 44 513 44 397 q 81 726 44 628 q 183 897 117 825 q 342 1010 249 969 q 551 1051 436 1051 q 710 1031 638 1051 q 835 971 782 1011 q 945 846 906 919 q 994 685 985 772 l 758 685 q 692 806 747 758 q 550 854 638 854 q 434 828 483 854 q 352 757 385 803 q 303 649 319 711 q 286 513 286 586 q 305 376 286 439 q 358 269 324 314 q 441 198 392 224 q 551 172 490 172 q 703 226 647 172 q 767 361 758 281 l 1004 361 q 965 215 999 283 q 879 93 932 146 q 740 6 821 35 q 551 -24 660 -24 m 424 1272 l 636 1272 l 788 1090 l 599 1090 l 535 1169 l 532 1169 l 465 1090 l 274 1090 l 424 1272 z "},"ĉ":{"ha":801,"x_min":38,"x_max":772,"o":"m 426 -24 q 266 6 338 -24 q 144 89 194 36 q 65 213 93 142 q 38 368 38 285 q 65 523 38 451 q 142 647 92 594 q 263 730 192 700 q 421 760 333 760 q 554 740 494 760 q 658 683 614 719 q 729 597 701 647 q 767 486 757 546 l 556 486 q 511 567 544 538 q 424 597 478 597 q 299 535 340 597 q 258 368 258 472 q 299 204 258 267 q 424 142 340 142 q 520 176 485 142 q 563 275 556 211 l 772 275 q 744 158 769 213 q 674 63 718 103 q 566 -1 629 22 q 426 -24 503 -24 m 301 1058 l 514 1058 l 665 853 l 478 853 l 413 961 l 410 961 l 342 853 l 151 853 l 301 1058 z "},"Ċ":{"ha":1040,"x_min":44,"x_max":1004,"o":"m 551 -24 q 345 17 439 -24 q 185 128 251 57 q 81 299 118 200 q 44 513 44 397 q 81 726 44 628 q 183 897 117 825 q 342 1010 249 969 q 551 1051 436 1051 q 710 1031 638 1051 q 835 971 782 1011 q 945 846 906 919 q 994 685 985 772 l 758 685 q 692 806 747 758 q 550 854 638 854 q 434 828 483 854 q 352 757 385 803 q 303 649 319 711 q 286 513 286 586 q 305 376 286 439 q 358 269 324 314 q 441 198 392 224 q 551 172 490 172 q 703 226 647 172 q 767 361 758 281 l 1004 361 q 965 215 999 283 q 879 93 932 146 q 740 6 821 35 q 551 -24 660 -24 m 425 1278 l 646 1278 l 646 1090 l 425 1090 l 425 1278 z "},"ċ":{"ha":801,"x_min":38,"x_max":772,"o":"m 426 -24 q 266 6 338 -24 q 144 89 194 36 q 65 213 93 142 q 38 368 38 285 q 65 523 38 451 q 142 647 92 594 q 263 730 192 700 q 421 760 333 760 q 554 740 494 760 q 658 683 614 719 q 729 597 701 647 q 767 486 757 546 l 556 486 q 511 567 544 538 q 424 597 478 597 q 299 535 340 597 q 258 368 258 472 q 299 204 258 267 q 424 142 340 142 q 520 176 485 142 q 563 275 556 211 l 772 275 q 744 158 769 213 q 674 63 718 103 q 566 -1 629 22 q 426 -24 503 -24 m 301 1033 l 522 1033 l 522 843 l 301 843 l 301 1033 z "},"Č":{"ha":1040,"x_min":44,"x_max":1004,"o":"m 551 -24 q 345 17 439 -24 q 185 128 251 57 q 81 299 118 200 q 44 513 44 397 q 81 726 44 628 q 183 897 117 825 q 342 1010 249 969 q 551 1051 436 1051 q 710 1031 638 1051 q 835 971 782 1011 q 945 846 906 919 q 994 685 985 772 l 758 685 q 692 806 747 758 q 550 854 638 854 q 434 828 483 854 q 352 757 385 803 q 303 649 319 711 q 286 513 286 586 q 305 376 286 439 q 358 269 324 314 q 441 198 392 224 q 551 172 490 172 q 703 226 647 172 q 767 361 758 281 l 1004 361 q 965 215 999 283 q 879 93 932 146 q 740 6 821 35 q 551 -24 660 -24 m 644 1090 l 432 1090 l 281 1272 l 469 1272 l 533 1193 l 536 1193 l 603 1272 l 794 1272 l 644 1090 z "},"č":{"ha":801,"x_min":38,"x_max":772,"o":"m 426 -24 q 266 6 338 -24 q 144 89 194 36 q 65 213 93 142 q 38 368 38 285 q 65 523 38 451 q 142 647 92 594 q 263 730 192 700 q 421 760 333 760 q 554 740 494 760 q 658 683 614 719 q 729 597 701 647 q 767 486 757 546 l 556 486 q 511 567 544 538 q 424 597 478 597 q 299 535 340 597 q 258 368 258 472 q 299 204 258 267 q 424 142 340 142 q 520 176 485 142 q 563 275 556 211 l 772 275 q 744 158 769 213 q 674 63 718 103 q 566 -1 629 22 q 426 -24 503 -24 m 521 850 l 308 850 l 157 1056 l 344 1056 l 410 947 l 413 947 l 481 1056 l 671 1056 l 521 850 z "},"Ď":{"ha":1039,"x_min":90,"x_max":997,"o":"m 90 1033 l 521 1033 q 717 996 629 1033 q 868 890 806 958 q 964 725 931 822 q 997 510 997 628 q 965 301 997 394 q 871 140 933 207 q 717 37 808 74 q 507 0 625 0 l 90 0 l 90 1033 m 489 200 q 690 281 624 200 q 756 510 756 361 q 690 745 756 657 q 493 833 624 833 l 328 833 l 328 200 l 489 200 m 590 1090 l 378 1090 l 226 1272 l 415 1272 l 479 1193 l 482 1193 l 549 1272 l 740 1272 l 590 1090 z "},"ď":{"ha":864,"x_min":38,"x_max":1025,"o":"m 354 -24 q 224 3 282 -24 q 124 81 165 31 q 60 205 82 132 q 38 369 38 278 q 60 526 38 454 q 125 649 83 597 q 226 731 167 701 q 357 760 285 760 q 486 727 433 760 q 576 636 539 694 l 579 636 q 575 715 576 671 q 574 807 574 760 l 574 1033 l 792 1033 l 792 0 l 582 0 l 582 108 l 579 108 q 488 8 547 40 q 354 -24 429 -24 m 413 151 q 536 212 492 151 q 581 369 581 272 q 570 460 581 418 q 539 531 560 501 q 487 578 518 561 q 414 594 456 594 q 298 533 336 594 q 260 371 260 471 q 298 211 260 271 q 413 151 336 151 m 843 833 q 904 855 885 838 q 925 900 924 872 l 843 900 l 843 1033 l 1025 1033 l 1025 944 q 977 808 1025 849 q 843 764 929 768 l 843 833 z "},"Đ":{"ha":1039,"x_min":7,"x_max":997,"o":"m 7 617 l 90 617 l 90 1033 l 521 1033 q 717 996 629 1033 q 868 890 806 958 q 964 725 931 822 q 997 510 997 628 q 965 301 997 394 q 871 140 933 207 q 717 37 808 74 q 507 0 625 0 l 90 0 l 90 432 l 7 432 l 7 617 m 489 200 q 690 281 624 200 q 756 510 756 361 q 690 745 756 657 q 493 833 624 833 l 325 833 l 325 617 l 563 617 l 563 432 l 325 432 l 325 200 l 489 200 z "},"đ":{"ha":864,"x_min":38,"x_max":872,"o":"m 383 939 l 574 939 l 574 1033 l 792 1033 l 792 939 l 872 939 l 872 828 l 792 828 l 792 0 l 582 0 l 582 108 l 579 108 q 488 8 547 40 q 354 -24 429 -24 q 224 3 282 -24 q 124 81 165 31 q 60 205 82 132 q 38 369 38 278 q 60 526 38 454 q 125 649 83 597 q 226 731 167 701 q 357 760 285 760 q 486 727 433 760 q 576 636 539 694 l 579 636 q 575 715 576 671 q 574 807 574 760 l 574 828 l 383 828 l 383 939 m 413 151 q 536 212 492 151 q 581 369 581 272 q 570 460 581 418 q 539 531 560 501 q 487 578 518 561 q 414 594 456 594 q 298 533 336 594 q 260 371 260 471 q 298 211 260 271 q 413 151 336 151 z "},"Ē":{"ha":931,"x_min":88,"x_max":872,"o":"m 88 1033 l 863 1033 l 863 836 l 324 836 l 324 631 l 790 631 l 790 443 l 324 443 l 324 203 l 872 203 l 872 0 l 88 0 l 88 1033 m 272 1250 l 706 1250 l 706 1096 l 272 1096 l 272 1250 z "},"ē":{"ha":828,"x_min":38,"x_max":792,"o":"m 428 -22 q 265 8 338 -22 q 142 90 193 38 q 65 214 92 143 q 38 368 38 285 q 65 523 38 451 q 143 647 93 594 q 263 730 193 700 q 417 760 332 760 q 559 735 496 760 q 671 665 622 710 q 763 514 733 604 q 790 314 792 424 l 251 314 q 307 183 263 231 q 431 136 351 136 q 515 155 482 136 q 565 208 547 174 l 776 208 q 733 117 763 160 q 659 44 703 75 q 557 -5 615 13 q 428 -22 499 -22 m 200 1008 l 633 1008 l 633 854 l 200 854 l 200 1008 m 417 606 q 303 561 342 606 q 253 440 264 517 l 568 440 q 522 562 563 518 q 417 606 482 606 z "},"Ĕ":{"ha":931,"x_min":88,"x_max":872,"o":"m 88 1033 l 863 1033 l 863 836 l 324 836 l 324 631 l 790 631 l 790 443 l 324 443 l 324 203 l 872 203 l 872 0 l 88 0 l 88 1033 m 493 1082 q 331 1138 393 1082 q 265 1279 269 1193 l 392 1279 q 422 1235 399 1254 q 492 1217 446 1217 q 558 1237 535 1217 q 589 1279 582 1257 l 713 1279 q 695 1202 711 1238 q 651 1140 679 1167 q 583 1097 624 1113 q 493 1082 543 1082 z "},"ĕ":{"ha":828,"x_min":38,"x_max":792,"o":"m 428 -22 q 265 8 338 -22 q 142 90 193 38 q 65 214 92 143 q 38 368 38 285 q 65 523 38 451 q 143 647 93 594 q 263 730 193 700 q 417 760 332 760 q 559 735 496 760 q 671 665 622 710 q 763 514 733 604 q 790 314 792 424 l 251 314 q 307 183 263 231 q 431 136 351 136 q 515 155 482 136 q 565 208 547 174 l 776 208 q 733 117 763 160 q 659 44 703 75 q 557 -5 615 13 q 428 -22 499 -22 m 421 842 q 331 857 372 842 q 260 900 290 872 q 210 967 229 928 q 190 1057 192 1007 l 317 1057 q 348 998 322 1019 q 419 976 374 976 q 488 999 463 976 q 519 1057 514 1022 l 643 1057 q 625 969 642 1008 q 579 901 608 929 q 510 858 550 874 q 421 842 469 842 m 417 606 q 303 561 342 606 q 253 440 264 517 l 568 440 q 522 562 563 518 q 417 606 482 606 z "},"Ė":{"ha":931,"x_min":88,"x_max":872,"o":"m 88 1033 l 863 1033 l 863 836 l 324 836 l 324 631 l 790 631 l 790 443 l 324 443 l 324 203 l 872 203 l 872 0 l 88 0 l 88 1033 m 379 1278 l 600 1278 l 600 1090 l 379 1090 l 379 1278 z "},"ė":{"ha":828,"x_min":38,"x_max":792,"o":"m 428 -22 q 265 8 338 -22 q 142 90 193 38 q 65 214 92 143 q 38 368 38 285 q 65 523 38 451 q 143 647 93 594 q 263 730 193 700 q 417 760 332 760 q 559 735 496 760 q 671 665 622 710 q 763 514 733 604 q 790 314 792 424 l 251 314 q 307 183 263 231 q 431 136 351 136 q 515 155 482 136 q 565 208 547 174 l 776 208 q 733 117 763 160 q 659 44 703 75 q 557 -5 615 13 q 428 -22 499 -22 m 307 1033 l 528 1033 l 528 843 l 307 843 l 307 1033 m 417 606 q 303 561 342 606 q 253 440 264 517 l 568 440 q 522 562 563 518 q 417 606 482 606 z "},"Ę":{"ha":931,"x_min":88,"x_max":872,"o":"m 88 1033 l 863 1033 l 863 836 l 324 836 l 324 631 l 790 631 l 790 443 l 324 443 l 324 203 l 872 203 l 872 0 l 790 0 q 741 -51 760 -24 q 722 -101 722 -78 q 768 -139 722 -139 q 790 -137 781 -139 q 808 -133 800 -136 l 811 -133 l 811 -243 q 774 -252 797 -249 q 714 -256 751 -256 q 588 -224 631 -256 q 546 -139 546 -192 q 574 -53 546 -87 q 642 0 603 -19 l 88 0 l 88 1033 z "},"ę":{"ha":828,"x_min":38,"x_max":792,"o":"m 532 -256 q 408 -224 449 -256 q 367 -139 367 -192 q 391 -69 367 -97 q 444 -22 415 -40 l 428 -22 q 265 8 338 -22 q 142 90 193 38 q 65 214 92 143 q 38 368 38 285 q 65 523 38 451 q 143 647 93 594 q 263 730 193 700 q 417 760 332 760 q 559 735 496 760 q 671 665 622 710 q 763 514 733 604 q 790 314 792 424 l 251 314 q 307 183 263 231 q 431 136 351 136 q 515 155 482 136 q 565 208 547 174 l 776 208 q 738 124 763 160 q 679 57 713 89 q 638 22 661 40 q 592 -15 614 4 q 556 -56 571 -35 q 540 -101 540 -78 q 586 -139 540 -139 q 608 -137 599 -139 q 626 -133 618 -136 l 629 -133 l 629 -243 q 592 -252 615 -249 q 532 -256 569 -256 m 417 606 q 303 561 342 606 q 253 440 264 517 l 568 440 q 522 562 563 518 q 417 606 482 606 z "},"Ě":{"ha":931,"x_min":88,"x_max":872,"o":"m 88 1033 l 863 1033 l 863 836 l 324 836 l 324 631 l 790 631 l 790 443 l 324 443 l 324 203 l 872 203 l 872 0 l 88 0 l 88 1033 m 599 1090 l 386 1090 l 235 1272 l 424 1272 l 488 1193 l 490 1193 l 557 1272 l 749 1272 l 599 1090 z "},"ě":{"ha":828,"x_min":38,"x_max":792,"o":"m 428 -22 q 265 8 338 -22 q 142 90 193 38 q 65 214 92 143 q 38 368 38 285 q 65 523 38 451 q 143 647 93 594 q 263 730 193 700 q 417 760 332 760 q 559 735 496 760 q 671 665 622 710 q 763 514 733 604 q 790 314 792 424 l 251 314 q 307 183 263 231 q 431 136 351 136 q 515 155 482 136 q 565 208 547 174 l 776 208 q 733 117 763 160 q 659 44 703 75 q 557 -5 615 13 q 428 -22 499 -22 m 526 850 l 314 850 l 163 1056 l 350 1056 l 415 947 l 418 947 l 486 1056 l 676 1056 l 526 850 m 417 606 q 303 561 342 606 q 253 440 264 517 l 568 440 q 522 562 563 518 q 417 606 482 606 z "},"Ĝ":{"ha":1089,"x_min":47,"x_max":1021,"o":"m 838 139 l 833 139 q 710 15 788 53 q 536 -24 632 -24 q 337 15 425 -24 q 185 121 249 53 q 82 294 117 194 q 47 513 47 393 q 93 756 47 646 q 226 940 139 867 q 369 1022 289 993 q 553 1051 450 1051 q 728 1026 650 1051 q 863 957 806 1001 q 955 851 919 913 q 1004 715 990 789 l 768 715 q 699 815 749 774 q 560 856 649 856 q 440 829 490 856 q 355 757 389 803 q 304 648 321 711 q 288 513 288 585 q 307 375 288 438 q 362 267 326 313 q 448 195 397 221 q 563 169 499 169 q 660 187 617 169 q 734 232 704 204 q 781 297 764 260 q 797 372 797 333 l 797 376 l 589 376 l 589 553 l 1021 553 l 1021 0 l 857 0 l 838 139 m 426 1272 l 639 1272 l 790 1090 l 601 1090 l 538 1169 l 535 1169 l 468 1090 l 276 1090 l 426 1272 z "},"ĝ":{"ha":851,"x_min":43,"x_max":778,"o":"m 415 -257 q 169 -197 263 -257 q 60 -26 76 -136 l 272 -26 q 316 -81 283 -60 q 413 -101 349 -101 q 528 -64 490 -101 q 567 42 567 -26 l 567 57 q 571 154 567 117 l 565 154 q 365 46 500 46 q 243 69 301 46 q 140 137 185 92 q 69 247 96 182 q 43 396 43 313 q 66 544 43 476 q 131 659 89 611 q 229 733 172 707 q 354 760 286 760 q 482 733 429 760 q 567 644 535 707 l 569 644 l 569 739 l 778 739 l 778 65 q 752 -77 778 -18 q 682 -176 726 -136 q 565 -237 633 -218 q 415 -257 497 -257 m 414 210 q 485 224 456 210 q 535 265 515 239 q 565 326 556 292 q 574 403 574 361 q 533 540 574 485 q 413 594 493 594 q 299 542 340 594 q 257 401 257 490 q 299 262 257 314 q 414 210 340 210 m 314 1058 l 526 1058 l 678 853 l 490 853 l 425 961 l 422 961 l 354 853 l 164 853 l 314 1058 z "},"Ğ":{"ha":1089,"x_min":47,"x_max":1021,"o":"m 838 139 l 833 139 q 710 15 788 53 q 536 -24 632 -24 q 337 15 425 -24 q 185 121 249 53 q 82 294 117 194 q 47 513 47 393 q 93 756 47 646 q 226 940 139 867 q 369 1022 289 993 q 553 1051 450 1051 q 728 1026 650 1051 q 863 957 806 1001 q 955 851 919 913 q 1004 715 990 789 l 768 715 q 699 815 749 774 q 560 856 649 856 q 440 829 490 856 q 355 757 389 803 q 304 648 321 711 q 288 513 288 585 q 307 375 288 438 q 362 267 326 313 q 448 195 397 221 q 563 169 499 169 q 660 187 617 169 q 734 232 704 204 q 781 297 764 260 q 797 372 797 333 l 797 376 l 589 376 l 589 553 l 1021 553 l 1021 0 l 857 0 l 838 139 m 542 1082 q 380 1138 442 1082 q 314 1279 318 1193 l 440 1279 q 471 1235 447 1254 q 540 1217 494 1217 q 607 1237 583 1217 q 638 1279 631 1257 l 761 1279 q 744 1202 760 1238 q 700 1140 728 1167 q 632 1097 672 1113 q 542 1082 592 1082 z "},"ğ":{"ha":851,"x_min":43,"x_max":778,"o":"m 415 -257 q 169 -197 263 -257 q 60 -26 76 -136 l 272 -26 q 316 -81 283 -60 q 413 -101 349 -101 q 528 -64 490 -101 q 567 42 567 -26 l 567 57 q 571 154 567 117 l 565 154 q 365 46 500 46 q 243 69 301 46 q 140 137 185 92 q 69 247 96 182 q 43 396 43 313 q 66 544 43 476 q 131 659 89 611 q 229 733 172 707 q 354 760 286 760 q 482 733 429 760 q 567 644 535 707 l 569 644 l 569 739 l 778 739 l 778 65 q 752 -77 778 -18 q 682 -176 726 -136 q 565 -237 633 -218 q 415 -257 497 -257 m 414 210 q 485 224 456 210 q 535 265 515 239 q 565 326 556 292 q 574 403 574 361 q 533 540 574 485 q 413 594 493 594 q 299 542 340 594 q 257 401 257 490 q 299 262 257 314 q 414 210 340 210 m 428 842 q 338 857 379 842 q 267 900 297 872 q 217 967 236 928 q 197 1057 199 1007 l 324 1057 q 355 998 329 1019 q 426 976 381 976 q 495 999 469 976 q 526 1057 521 1022 l 650 1057 q 632 969 649 1008 q 586 901 615 929 q 517 858 557 874 q 428 842 476 842 z "},"Ġ":{"ha":1089,"x_min":47,"x_max":1021,"o":"m 838 139 l 833 139 q 710 15 788 53 q 536 -24 632 -24 q 337 15 425 -24 q 185 121 249 53 q 82 294 117 194 q 47 513 47 393 q 93 756 47 646 q 226 940 139 867 q 369 1022 289 993 q 553 1051 450 1051 q 728 1026 650 1051 q 863 957 806 1001 q 955 851 919 913 q 1004 715 990 789 l 768 715 q 699 815 749 774 q 560 856 649 856 q 440 829 490 856 q 355 757 389 803 q 304 648 321 711 q 288 513 288 585 q 307 375 288 438 q 362 267 326 313 q 448 195 397 221 q 563 169 499 169 q 660 187 617 169 q 734 232 704 204 q 781 297 764 260 q 797 372 797 333 l 797 376 l 589 376 l 589 553 l 1021 553 l 1021 0 l 857 0 l 838 139 m 428 1278 l 649 1278 l 649 1090 l 428 1090 l 428 1278 z "},"ġ":{"ha":851,"x_min":43,"x_max":778,"o":"m 415 -257 q 169 -197 263 -257 q 60 -26 76 -136 l 272 -26 q 316 -81 283 -60 q 413 -101 349 -101 q 528 -64 490 -101 q 567 42 567 -26 l 567 57 q 571 154 567 117 l 565 154 q 365 46 500 46 q 243 69 301 46 q 140 137 185 92 q 69 247 96 182 q 43 396 43 313 q 66 544 43 476 q 131 659 89 611 q 229 733 172 707 q 354 760 286 760 q 482 733 429 760 q 567 644 535 707 l 569 644 l 569 739 l 778 739 l 778 65 q 752 -77 778 -18 q 682 -176 726 -136 q 565 -237 633 -218 q 415 -257 497 -257 m 414 210 q 485 224 456 210 q 535 265 515 239 q 565 326 556 292 q 574 403 574 361 q 533 540 574 485 q 413 594 493 594 q 299 542 340 594 q 257 401 257 490 q 299 262 257 314 q 414 210 340 210 m 314 1033 l 535 1033 l 535 843 l 314 843 l 314 1033 z "},"Ģ":{"ha":1089,"x_min":47,"x_max":1021,"o":"m 838 139 l 833 139 q 710 15 788 53 q 536 -24 632 -24 q 337 15 425 -24 q 185 121 249 53 q 82 294 117 194 q 47 513 47 393 q 93 756 47 646 q 226 940 139 867 q 369 1022 289 993 q 553 1051 450 1051 q 728 1026 650 1051 q 863 957 806 1001 q 955 851 919 913 q 1004 715 990 789 l 768 715 q 699 815 749 774 q 560 856 649 856 q 440 829 490 856 q 355 757 389 803 q 304 648 321 711 q 288 513 288 585 q 307 375 288 438 q 362 267 326 313 q 448 195 397 221 q 563 169 499 169 q 660 187 617 169 q 734 232 704 204 q 781 297 764 260 q 797 372 797 333 l 797 376 l 589 376 l 589 553 l 1021 553 l 1021 0 l 857 0 l 838 139 m 431 -292 q 502 -265 475 -283 q 529 -214 529 -246 l 436 -214 l 436 -71 l 646 -71 l 646 -169 q 629 -255 646 -219 q 583 -314 613 -290 q 515 -350 554 -337 q 431 -365 476 -362 l 431 -292 z "},"ģ":{"ha":851,"x_min":43,"x_max":778,"o":"m 415 -257 q 169 -197 263 -257 q 60 -26 76 -136 l 272 -26 q 316 -81 283 -60 q 413 -101 349 -101 q 528 -64 490 -101 q 567 42 567 -26 l 567 57 q 571 154 567 117 l 565 154 q 365 46 500 46 q 243 69 301 46 q 140 137 185 92 q 69 247 96 182 q 43 396 43 313 q 66 544 43 476 q 131 659 89 611 q 229 733 172 707 q 354 760 286 760 q 482 733 429 760 q 567 644 535 707 l 569 644 l 569 739 l 778 739 l 778 65 q 752 -77 778 -18 q 682 -176 726 -136 q 565 -237 633 -218 q 415 -257 497 -257 m 414 210 q 485 224 456 210 q 535 265 515 239 q 565 326 556 292 q 574 403 574 361 q 533 540 574 485 q 413 594 493 594 q 299 542 340 594 q 257 401 257 490 q 299 262 257 314 q 414 210 340 210 m 532 1064 q 460 1037 488 1056 q 433 986 433 1018 l 526 986 l 526 843 l 317 843 l 317 942 q 333 1027 317 992 q 379 1086 350 1063 q 447 1122 408 1110 q 532 1138 486 1135 l 532 1064 z "},"Ĥ":{"ha":1038,"x_min":88,"x_max":950,"o":"m 88 1033 l 324 1033 l 324 635 l 714 635 l 714 1033 l 950 1033 l 950 0 l 714 0 l 714 438 l 324 438 l 324 0 l 88 0 l 88 1033 m 407 1272 l 619 1272 l 771 1090 l 582 1090 l 518 1169 l 515 1169 l 449 1090 l 257 1090 l 407 1272 z "},"ĥ":{"ha":839,"x_min":72,"x_max":772,"o":"m 290 749 q 290 735 290 746 q 290 707 290 724 q 290 671 290 690 q 289 633 289 651 l 293 633 q 382 726 326 693 q 515 760 438 760 q 705 685 638 760 q 772 486 772 611 l 772 0 l 556 0 l 556 444 q 524 542 556 506 q 432 579 493 579 q 329 533 368 579 q 290 417 290 488 l 290 0 l 72 0 l 72 1033 l 290 1033 l 290 749 m 311 1272 l 524 1272 l 675 1090 l 486 1090 l 422 1169 l 419 1169 l 353 1090 l 161 1090 l 311 1272 z "},"Ħ":{"ha":1038,"x_min":3,"x_max":1033,"o":"m 3 874 l 88 874 l 88 1033 l 324 1033 l 324 874 l 714 874 l 714 1033 l 950 1033 l 950 874 l 1033 874 l 1033 747 l 950 747 l 950 0 l 714 0 l 714 438 l 324 438 l 324 0 l 88 0 l 88 747 l 3 747 l 3 874 m 324 626 l 714 626 l 714 747 l 324 747 l 324 626 z "},"ħ":{"ha":839,"x_min":-8,"x_max":772,"o":"m -8 939 l 72 939 l 72 1033 l 290 1033 l 290 939 l 481 939 l 481 828 l 290 828 l 290 749 q 290 735 290 746 q 290 707 290 724 q 290 671 290 690 q 289 633 289 651 l 293 633 q 382 726 326 693 q 515 760 438 760 q 705 685 638 760 q 772 486 772 611 l 772 0 l 556 0 l 556 444 q 524 542 556 506 q 432 579 493 579 q 329 533 368 579 q 290 417 290 488 l 290 0 l 72 0 l 72 828 l -8 828 l -8 939 z "},"Ĩ":{"ha":414,"x_min":-40,"x_max":453,"o":"m 88 1033 l 325 1033 l 325 0 l 88 0 l 88 1033 m 307 1092 q 249 1100 275 1092 q 201 1119 222 1108 q 160 1138 179 1129 q 126 1147 142 1147 q 95 1133 108 1147 q 79 1090 82 1119 l -40 1090 q -28 1176 -40 1139 q 4 1237 -17 1213 q 52 1274 25 1261 q 110 1286 79 1286 q 168 1277 143 1286 q 214 1258 193 1268 q 252 1239 235 1247 q 286 1231 269 1231 q 333 1283 328 1231 l 453 1283 q 415 1144 453 1196 q 307 1092 376 1092 z "},"ĩ":{"ha":363,"x_min":-65,"x_max":428,"o":"m 72 739 l 290 739 l 290 0 l 72 0 l 72 739 m 282 851 q 224 860 250 851 q 175 880 197 869 q 134 899 153 890 q 100 908 115 908 q 68 894 82 908 q 51 850 54 879 l -65 850 q -53 935 -65 899 q -21 997 -42 972 q 27 1033 0 1021 q 85 1046 54 1046 q 144 1037 118 1046 q 190 1017 169 1028 q 229 998 211 1007 q 264 989 247 989 q 311 1043 306 989 l 428 1043 q 390 903 428 956 q 282 851 351 851 z "},"Ī":{"ha":414,"x_min":6,"x_max":406,"o":"m 88 1033 l 325 1033 l 325 0 l 88 0 l 88 1033 m 6 1250 l 406 1250 l 406 1096 l 6 1096 l 6 1250 z "},"ī":{"ha":363,"x_min":6,"x_max":356,"o":"m 72 739 l 290 739 l 290 0 l 72 0 l 72 739 m 6 1008 l 356 1008 l 356 854 l 6 854 l 6 1008 z "},"Ĭ":{"ha":414,"x_min":-18,"x_max":429,"o":"m 88 1033 l 325 1033 l 325 0 l 88 0 l 88 1033 m 210 1082 q 48 1138 110 1082 q -18 1279 -14 1193 l 108 1279 q 139 1235 115 1254 q 208 1217 163 1217 q 275 1237 251 1217 q 306 1279 299 1257 l 429 1279 q 412 1202 428 1238 q 368 1140 396 1167 q 300 1097 340 1113 q 210 1082 260 1082 z "},"ĭ":{"ha":363,"x_min":-46,"x_max":407,"o":"m 72 739 l 290 739 l 290 0 l 72 0 l 72 739 m 185 842 q 95 857 136 842 q 24 900 54 872 q -26 967 -7 928 q -46 1057 -44 1007 l 81 1057 q 112 998 86 1019 q 183 976 138 976 q 252 999 226 976 q 283 1057 278 1022 l 407 1057 q 389 969 406 1008 q 343 901 372 929 q 274 858 314 874 q 185 842 233 842 z "},"Į":{"ha":414,"x_min":65,"x_max":331,"o":"m 88 1033 l 325 1033 l 325 3 q 263 -47 285 -17 q 242 -101 242 -76 q 288 -139 242 -139 q 310 -137 300 -139 q 328 -133 319 -136 l 331 -133 l 331 -243 q 294 -252 317 -249 q 233 -256 271 -256 q 108 -224 150 -256 q 65 -139 65 -192 q 74 -92 65 -114 q 97 -53 83 -71 q 129 -23 111 -36 q 165 0 147 -10 l 88 0 l 88 1033 z "},"į":{"ha":363,"x_min":39,"x_max":300,"o":"m 72 739 l 290 739 l 290 3 q 231 -49 251 -19 q 211 -101 211 -78 q 257 -139 211 -139 q 279 -137 269 -139 q 297 -133 289 -136 l 300 -133 l 300 -243 q 263 -252 286 -249 q 203 -256 240 -256 q 81 -224 122 -256 q 39 -139 39 -192 q 69 -52 39 -86 q 135 0 99 -18 l 72 0 l 72 739 m 71 1033 l 292 1033 l 292 843 l 71 843 l 71 1033 z "},"İ":{"ha":414,"x_min":88,"x_max":325,"o":"m 88 1033 l 325 1033 l 325 0 l 88 0 l 88 1033 m 96 1278 l 317 1278 l 317 1090 l 96 1090 l 96 1278 z "},"ı":{"ha":363,"x_min":72,"x_max":290,"o":"m 72 739 l 290 739 l 290 0 l 72 0 l 72 739 z "},"Ĳ":{"ha":1194,"x_min":88,"x_max":1118,"o":"m 88 1033 l 325 1033 l 325 0 l 88 0 l 88 1033 m 779 -19 q 513 69 601 -19 q 425 313 425 158 l 425 392 l 643 392 l 643 318 q 675 208 643 240 q 765 176 707 176 q 853 210 825 176 q 881 307 881 244 l 881 1033 l 1118 1033 l 1118 301 q 1053 93 1118 171 q 942 10 1011 40 q 779 -19 874 -19 z "},"ĳ":{"ha":725,"x_min":71,"x_max":654,"o":"m 435 -251 q 371 -249 406 -251 q 311 -240 336 -246 l 311 -86 l 319 -86 q 347 -86 335 -86 q 371 -85 360 -86 q 419 -66 403 -82 q 435 -10 435 -50 l 435 739 l 653 739 l 653 -18 q 638 -130 653 -89 q 597 -196 624 -171 q 526 -239 567 -226 q 435 -251 485 -251 m 72 739 l 290 739 l 290 0 l 72 0 l 72 739 m 433 1033 l 654 1033 l 654 843 l 433 843 l 433 1033 m 71 1033 l 292 1033 l 292 843 l 71 843 l 71 1033 z "},"Ĵ":{"ha":804,"x_min":35,"x_max":856,"o":"m 389 -19 q 123 69 211 -19 q 35 313 35 158 l 35 392 l 253 392 l 253 318 q 285 208 253 240 q 375 176 317 176 q 463 210 435 176 q 490 307 490 244 l 490 1033 l 728 1033 l 728 301 q 663 93 728 171 q 552 10 621 40 q 389 -19 483 -19 m 492 1272 l 704 1272 l 856 1090 l 667 1090 l 603 1169 l 600 1169 l 533 1090 l 342 1090 l 492 1272 z "},"ĵ":{"ha":363,"x_min":-82,"x_max":432,"o":"m 72 -251 q 8 -249 43 -251 q -51 -240 -26 -246 l -51 -86 l -43 -86 q -15 -86 -28 -86 q 8 -85 -3 -86 q 56 -66 40 -82 q 72 -10 72 -50 l 72 739 l 290 739 l 290 -18 q 276 -130 290 -89 q 235 -196 261 -171 q 163 -239 204 -226 q 72 -251 122 -251 m 68 1058 l 281 1058 l 432 853 l 244 853 l 179 961 l 176 961 l 108 853 l -82 853 l 68 1058 z "},"Ķ":{"ha":1022,"x_min":88,"x_max":1010,"o":"m 88 1033 l 324 1033 l 324 864 q 321 727 324 793 q 315 619 318 661 l 701 1033 l 985 1033 l 586 618 l 1010 0 l 733 0 l 418 468 l 324 369 l 324 0 l 88 0 l 88 1033 m 403 -292 q 474 -265 447 -283 q 501 -214 501 -246 l 408 -214 l 408 -71 l 618 -71 l 618 -169 q 601 -255 618 -219 q 556 -314 585 -290 q 488 -350 526 -337 q 403 -365 449 -362 l 403 -292 z "},"ķ":{"ha":819,"x_min":72,"x_max":807,"o":"m 361 322 l 288 246 l 288 0 l 72 0 l 72 1033 l 288 1033 l 288 711 q 285 569 288 629 q 281 474 283 510 l 524 739 l 776 739 l 513 465 l 807 0 l 554 0 l 361 322 m 301 -292 q 373 -265 346 -283 q 400 -214 400 -246 l 307 -214 l 307 -71 l 517 -71 l 517 -169 q 500 -255 517 -219 q 454 -314 483 -290 q 386 -350 425 -337 q 301 -365 347 -362 l 301 -292 z "},"ĸ":{"ha":819,"x_min":72,"x_max":807,"o":"m 361 322 l 288 246 l 288 0 l 72 0 l 72 739 l 288 739 l 288 711 q 285 569 288 629 q 281 474 283 510 l 524 739 l 776 739 l 513 465 l 807 0 l 554 0 l 361 322 z "},"Ĺ":{"ha":839,"x_min":88,"x_max":800,"o":"m 88 1033 l 324 1033 l 324 203 l 800 203 l 800 0 l 88 0 l 88 1033 m 168 1272 l 431 1272 l 279 1090 l 108 1090 l 168 1272 z "},"ĺ":{"ha":368,"x_min":75,"x_max":411,"o":"m 75 1033 l 294 1033 l 294 0 l 75 0 l 75 1033 m 149 1272 l 411 1272 l 260 1090 l 89 1090 l 149 1272 z "},"Ļ":{"ha":839,"x_min":88,"x_max":800,"o":"m 88 1033 l 324 1033 l 324 203 l 800 203 l 800 0 l 88 0 l 88 1033 m 339 -292 q 410 -265 383 -283 q 438 -214 438 -246 l 344 -214 l 344 -71 l 554 -71 l 554 -169 q 538 -255 554 -219 q 492 -314 521 -290 q 424 -350 463 -337 q 339 -365 385 -362 l 339 -292 z "},"ļ":{"ha":368,"x_min":75,"x_max":294,"o":"m 75 1033 l 294 1033 l 294 0 l 75 0 l 75 1033 m 78 -292 q 149 -265 122 -283 q 176 -214 176 -246 l 83 -214 l 83 -71 l 293 -71 l 293 -169 q 276 -255 293 -219 q 231 -314 260 -290 q 163 -350 201 -337 q 78 -365 124 -362 l 78 -292 z "},"Ľ":{"ha":839,"x_min":88,"x_max":800,"o":"m 499 788 q 569 815 546 792 q 593 869 592 838 l 499 869 l 499 1033 l 706 1033 l 706 918 q 651 764 706 811 q 499 713 597 717 l 499 788 m 88 1033 l 324 1033 l 324 203 l 800 203 l 800 0 l 88 0 l 88 1033 z "},"ľ":{"ha":368,"x_min":75,"x_max":529,"o":"m 75 1033 l 294 1033 l 294 0 l 75 0 l 75 1033 m 347 833 q 408 855 389 838 q 429 900 428 872 l 347 900 l 347 1033 l 529 1033 l 529 944 q 481 808 529 849 q 347 764 433 768 l 347 833 z "},"Ŀ":{"ha":839,"x_min":88,"x_max":800,"o":"m 88 1033 l 324 1033 l 324 203 l 800 203 l 800 0 l 88 0 l 88 1033 m 531 600 l 728 600 l 728 406 l 531 406 l 531 600 z "},"ŀ":{"ha":558,"x_min":75,"x_max":563,"o":"m 75 1033 l 294 1033 l 294 0 l 75 0 l 75 1033 m 365 600 l 563 600 l 563 406 l 365 406 l 365 600 z "},"Ł":{"ha":847,"x_min":7,"x_max":808,"o":"m 7 432 l 96 478 l 96 1033 l 332 1033 l 332 603 l 622 756 l 622 594 l 332 442 l 332 203 l 808 203 l 808 0 l 96 0 l 96 317 l 7 271 l 7 432 z "},"ł":{"ha":438,"x_min":14,"x_max":433,"o":"m 14 439 l 108 508 l 108 1033 l 328 1033 l 328 669 l 433 747 l 433 586 l 328 508 l 328 0 l 108 0 l 108 349 l 14 279 l 14 439 z "},"Ń":{"ha":1046,"x_min":88,"x_max":960,"o":"m 88 1033 l 329 1033 l 601 585 q 649 498 625 544 q 694 410 674 451 l 743 313 l 746 313 q 739 419 742 365 q 735 518 736 465 q 733 615 733 571 l 733 1033 l 960 1033 l 960 0 l 717 0 l 447 443 q 399 531 424 482 q 353 621 374 579 q 304 719 328 669 l 301 719 q 307 611 304 665 q 312 513 310 565 q 314 415 314 460 l 314 0 l 88 0 l 88 1033 m 497 1272 l 760 1272 l 608 1090 l 438 1090 l 497 1272 z "},"ń":{"ha":839,"x_min":72,"x_max":772,"o":"m 283 626 l 288 626 q 380 726 322 693 q 515 760 438 760 q 705 685 638 760 q 772 486 772 611 l 772 0 l 556 0 l 556 444 q 524 542 556 506 q 432 579 493 579 q 329 533 368 579 q 290 417 290 488 l 290 0 l 72 0 l 72 739 l 283 739 l 283 626 m 414 1074 l 668 1074 l 503 850 l 340 850 l 414 1074 z "},"Ņ":{"ha":1046,"x_min":88,"x_max":960,"o":"m 88 1033 l 329 1033 l 601 585 q 649 498 625 544 q 694 410 674 451 l 743 313 l 746 313 q 739 419 742 365 q 735 518 736 465 q 733 615 733 571 l 733 1033 l 960 1033 l 960 0 l 717 0 l 447 443 q 399 531 424 482 q 353 621 374 579 q 304 719 328 669 l 301 719 q 307 611 304 665 q 312 513 310 565 q 314 415 314 460 l 314 0 l 88 0 l 88 1033 m 404 -292 q 476 -265 449 -283 q 503 -214 503 -246 l 410 -214 l 410 -71 l 619 -71 l 619 -169 q 603 -255 619 -219 q 557 -314 586 -290 q 489 -350 528 -337 q 404 -365 450 -362 l 404 -292 z "},"ņ":{"ha":839,"x_min":72,"x_max":772,"o":"m 283 626 l 288 626 q 380 726 322 693 q 515 760 438 760 q 705 685 638 760 q 772 486 772 611 l 772 0 l 556 0 l 556 444 q 524 542 556 506 q 432 579 493 579 q 329 533 368 579 q 290 417 290 488 l 290 0 l 72 0 l 72 739 l 283 739 l 283 626 m 318 -292 q 390 -265 363 -283 q 417 -214 417 -246 l 324 -214 l 324 -71 l 533 -71 l 533 -169 q 517 -255 533 -219 q 471 -314 500 -290 q 403 -350 442 -337 q 318 -365 364 -362 l 318 -292 z "},"Ň":{"ha":1046,"x_min":88,"x_max":960,"o":"m 88 1033 l 329 1033 l 601 585 q 649 498 625 544 q 694 410 674 451 l 743 313 l 746 313 q 739 419 742 365 q 735 518 736 465 q 733 615 733 571 l 733 1033 l 960 1033 l 960 0 l 717 0 l 447 443 q 399 531 424 482 q 353 621 374 579 q 304 719 328 669 l 301 719 q 307 611 304 665 q 312 513 310 565 q 314 415 314 460 l 314 0 l 88 0 l 88 1033 m 643 1090 l 431 1090 l 279 1272 l 468 1272 l 532 1193 l 535 1193 l 601 1272 l 793 1272 l 643 1090 z "},"ň":{"ha":839,"x_min":72,"x_max":772,"o":"m 283 626 l 288 626 q 380 726 322 693 q 515 760 438 760 q 705 685 638 760 q 772 486 772 611 l 772 0 l 556 0 l 556 444 q 524 542 556 506 q 432 579 493 579 q 329 533 368 579 q 290 417 290 488 l 290 0 l 72 0 l 72 739 l 283 739 l 283 626 m 535 850 l 322 850 l 171 1056 l 358 1056 l 424 947 l 426 947 l 494 1056 l 685 1056 l 535 850 z "},"ŉ":{"ha":839,"x_min":-49,"x_max":772,"o":"m 283 626 l 288 626 q 380 726 322 693 q 515 760 438 760 q 705 685 638 760 q 772 486 772 611 l 772 0 l 556 0 l 556 444 q 524 542 556 506 q 432 579 493 579 q 329 533 368 579 q 290 417 290 488 l 290 0 l 72 0 l 72 739 l 283 739 l 283 626 m -49 833 q 13 855 -7 838 q 33 900 32 872 l -49 900 l -49 1033 l 133 1033 l 133 944 q 85 808 133 849 q -49 764 38 768 l -49 833 z "},"Ŋ":{"ha":1046,"x_min":88,"x_max":960,"o":"m 600 -61 q 674 -46 646 -61 q 718 -3 703 -31 l 447 443 q 399 531 424 482 q 353 621 374 579 q 304 719 328 669 l 301 719 q 307 611 304 665 q 312 513 310 565 q 314 415 314 460 l 314 0 l 88 0 l 88 1033 l 329 1033 l 601 585 q 649 498 625 544 q 694 410 674 451 l 743 313 l 746 313 q 739 419 742 365 q 735 518 736 465 q 733 615 733 571 l 733 1033 l 960 1033 l 960 64 q 948 -51 960 -1 q 906 -144 936 -101 q 806 -227 869 -197 q 643 -257 742 -257 q 585 -255 611 -257 q 529 -247 560 -253 l 529 -56 l 539 -56 q 569 -60 557 -58 q 600 -61 582 -61 z "},"ŋ":{"ha":839,"x_min":72,"x_max":772,"o":"m 772 -18 q 758 -130 772 -89 q 717 -196 743 -171 q 645 -239 686 -226 q 554 -251 604 -251 q 490 -249 525 -251 q 431 -240 456 -246 l 431 -86 l 439 -86 q 467 -86 454 -86 q 490 -85 479 -86 q 539 -66 522 -82 q 556 -10 556 -50 l 556 444 q 524 542 556 506 q 432 579 493 579 q 329 533 368 579 q 290 417 290 488 l 290 0 l 72 0 l 72 739 l 283 739 l 283 626 l 288 626 q 380 726 322 693 q 515 760 438 760 q 705 685 638 760 q 772 486 772 611 l 772 -18 z "},"Ō":{"ha":1110,"x_min":44,"x_max":1065,"o":"m 556 -25 q 343 15 438 -25 q 182 128 249 56 q 80 299 115 200 q 44 513 44 397 q 80 728 44 629 q 182 898 115 826 q 343 1010 249 969 q 556 1051 438 1051 q 767 1010 672 1051 q 928 898 861 969 q 1030 728 994 826 q 1065 513 1065 629 q 1030 299 1065 397 q 928 128 994 200 q 767 15 861 56 q 556 -25 672 -25 m 557 169 q 674 196 624 169 q 757 268 724 222 q 807 376 790 314 q 824 513 824 439 q 807 649 824 586 q 757 760 790 713 q 674 833 724 807 q 557 860 624 860 q 440 833 490 860 q 355 760 389 807 q 303 649 321 713 q 286 513 286 586 q 303 376 286 439 q 355 268 321 314 q 440 196 389 222 q 557 169 490 169 m 338 1250 l 771 1250 l 771 1096 l 338 1096 l 338 1250 z "},"ō":{"ha":856,"x_min":38,"x_max":818,"o":"m 429 -24 q 268 6 340 -24 q 144 89 196 36 q 65 213 93 142 q 38 368 38 285 q 65 523 38 451 q 144 647 93 594 q 268 730 196 700 q 429 760 340 760 q 589 730 517 760 q 712 647 661 700 q 790 523 763 594 q 818 368 818 451 q 790 213 818 285 q 712 89 763 142 q 589 6 661 36 q 429 -24 517 -24 m 428 135 q 553 199 510 135 q 597 368 597 264 q 553 539 597 474 q 428 604 510 604 q 301 539 344 604 q 258 368 258 474 q 301 199 258 264 q 428 135 344 135 m 211 1008 l 644 1008 l 644 854 l 211 854 l 211 1008 z "},"Ŏ":{"ha":1110,"x_min":44,"x_max":1065,"o":"m 556 -25 q 343 15 438 -25 q 182 128 249 56 q 80 299 115 200 q 44 513 44 397 q 80 728 44 629 q 182 898 115 826 q 343 1010 249 969 q 556 1051 438 1051 q 767 1010 672 1051 q 928 898 861 969 q 1030 728 994 826 q 1065 513 1065 629 q 1030 299 1065 397 q 928 128 994 200 q 767 15 861 56 q 556 -25 672 -25 m 557 169 q 674 196 624 169 q 757 268 724 222 q 807 376 790 314 q 824 513 824 439 q 807 649 824 586 q 757 760 790 713 q 674 833 724 807 q 557 860 624 860 q 440 833 490 860 q 355 760 389 807 q 303 649 321 713 q 286 513 286 586 q 303 376 286 439 q 355 268 321 314 q 440 196 389 222 q 557 169 490 169 m 558 1082 q 397 1138 458 1082 q 331 1279 335 1193 l 457 1279 q 488 1235 464 1254 q 557 1217 511 1217 q 624 1237 600 1217 q 654 1279 647 1257 l 778 1279 q 760 1202 776 1238 q 717 1140 744 1167 q 649 1097 689 1113 q 558 1082 608 1082 z "},"ŏ":{"ha":856,"x_min":38,"x_max":818,"o":"m 429 -24 q 268 6 340 -24 q 144 89 196 36 q 65 213 93 142 q 38 368 38 285 q 65 523 38 451 q 144 647 93 594 q 268 730 196 700 q 429 760 340 760 q 589 730 517 760 q 712 647 661 700 q 790 523 763 594 q 818 368 818 451 q 790 213 818 285 q 712 89 763 142 q 589 6 661 36 q 429 -24 517 -24 m 428 135 q 553 199 510 135 q 597 368 597 264 q 553 539 597 474 q 428 604 510 604 q 301 539 344 604 q 258 368 258 474 q 301 199 258 264 q 428 135 344 135 m 432 842 q 342 857 383 842 q 271 900 301 872 q 222 967 240 928 q 201 1057 203 1007 l 328 1057 q 359 998 333 1019 q 431 976 385 976 q 499 999 474 976 q 531 1057 525 1022 l 654 1057 q 636 969 653 1008 q 590 901 619 929 q 521 858 561 874 q 432 842 481 842 z "},"Ő":{"ha":1110,"x_min":44,"x_max":1065,"o":"m 556 -25 q 343 15 438 -25 q 182 128 249 56 q 80 299 115 200 q 44 513 44 397 q 80 728 44 629 q 182 898 115 826 q 343 1010 249 969 q 556 1051 438 1051 q 767 1010 672 1051 q 928 898 861 969 q 1030 728 994 826 q 1065 513 1065 629 q 1030 299 1065 397 q 928 128 994 200 q 767 15 861 56 q 556 -25 672 -25 m 557 169 q 674 196 624 169 q 757 268 724 222 q 807 376 790 314 q 824 513 824 439 q 807 649 824 586 q 757 760 790 713 q 674 833 724 807 q 557 860 624 860 q 440 833 490 860 q 355 760 389 807 q 303 649 321 713 q 286 513 286 586 q 303 376 286 439 q 355 268 321 314 q 440 196 389 222 q 557 169 490 169 m 664 1272 l 881 1272 l 757 1090 l 615 1090 l 664 1272 m 392 1272 l 608 1272 l 483 1090 l 342 1090 l 392 1272 z "},"ő":{"ha":856,"x_min":38,"x_max":818,"o":"m 429 -24 q 268 6 340 -24 q 144 89 196 36 q 65 213 93 142 q 38 368 38 285 q 65 523 38 451 q 144 647 93 594 q 268 730 196 700 q 429 760 340 760 q 589 730 517 760 q 712 647 661 700 q 790 523 763 594 q 818 368 818 451 q 790 213 818 285 q 712 89 763 142 q 589 6 661 36 q 429 -24 517 -24 m 428 135 q 553 199 510 135 q 597 368 597 264 q 553 539 597 474 q 428 604 510 604 q 301 539 344 604 q 258 368 258 474 q 301 199 258 264 q 428 135 344 135 m 551 1074 l 764 1074 l 622 850 l 485 850 l 551 1074 m 283 1074 l 496 1074 l 353 850 l 215 850 l 283 1074 z "},"Œ":{"ha":1579,"x_min":44,"x_max":1521,"o":"m 536 -25 q 336 15 426 -25 q 181 128 246 56 q 81 299 117 200 q 44 513 44 397 q 81 728 44 629 q 181 898 117 826 q 336 1010 246 969 q 536 1051 426 1051 q 687 1019 624 1051 q 794 928 750 986 l 794 1033 l 1506 1033 l 1506 835 l 1004 835 l 1004 628 l 1432 628 l 1432 442 l 1004 442 l 1004 208 l 1521 208 l 1521 0 l 794 0 l 794 94 q 687 6 750 38 q 536 -25 624 -25 m 549 169 q 720 252 661 169 q 779 478 779 335 l 779 546 q 720 775 779 690 q 549 860 661 860 q 435 833 485 860 q 353 760 386 807 q 303 649 319 713 q 286 513 286 586 q 303 376 286 439 q 353 268 319 314 q 435 196 386 222 q 549 169 485 169 z "},"œ":{"ha":1358,"x_min":38,"x_max":1324,"o":"m 965 -22 q 806 12 874 -22 q 694 106 739 46 q 582 10 650 44 q 419 -24 514 -24 q 261 6 332 -24 q 140 89 190 36 q 64 213 90 142 q 38 368 38 285 q 64 523 38 451 q 140 647 90 594 q 261 730 190 700 q 419 760 332 760 q 582 725 514 760 q 693 631 650 690 q 803 726 738 692 q 954 760 868 760 q 1094 735 1033 760 q 1201 667 1154 711 q 1294 515 1265 606 q 1322 314 1324 424 l 793 314 q 849 183 804 231 q 967 136 893 136 q 1048 155 1018 136 q 1096 208 1078 174 l 1308 208 q 1264 117 1293 160 q 1192 44 1235 75 q 1092 -5 1149 13 q 965 -22 1035 -22 m 422 135 q 544 199 503 135 q 586 368 586 264 q 544 539 586 474 q 422 604 503 604 q 299 539 339 604 q 258 368 258 474 q 299 199 258 264 q 422 135 339 135 m 954 606 q 842 561 879 606 q 794 440 806 517 l 1099 440 q 1056 562 1093 518 q 954 606 1018 606 z "},"Ŕ":{"ha":993,"x_min":88,"x_max":947,"o":"m 88 1033 l 579 1033 q 719 1014 654 1033 q 831 956 783 994 q 905 863 878 918 q 932 738 932 808 q 886 582 932 646 q 740 486 840 518 l 740 482 q 855 412 818 458 q 903 282 892 365 q 913 183 910 229 q 920 99 917 136 q 929 40 924 63 q 947 11 935 17 l 947 0 l 714 0 q 698 28 703 6 q 690 83 693 50 q 683 156 686 115 q 676 239 681 196 q 626 356 667 317 q 499 394 585 394 l 324 394 l 324 0 l 88 0 l 88 1033 m 324 569 l 533 569 q 654 606 613 569 q 696 706 696 643 q 658 808 696 769 q 540 846 619 846 l 324 846 l 324 569 m 442 1272 l 704 1272 l 553 1090 l 382 1090 l 442 1272 z "},"ŕ":{"ha":569,"x_min":72,"x_max":551,"o":"m 282 607 l 286 607 q 372 718 322 685 q 492 751 422 751 q 538 746 525 751 l 538 556 l 532 556 q 486 560 508 560 q 344 506 397 561 q 290 343 290 451 l 290 0 l 72 0 l 72 739 l 282 739 l 282 607 m 297 1074 l 551 1074 l 386 850 l 224 850 l 297 1074 z "},"Ŗ":{"ha":993,"x_min":88,"x_max":947,"o":"m 88 1033 l 579 1033 q 719 1014 654 1033 q 831 956 783 994 q 905 863 878 918 q 932 738 932 808 q 886 582 932 646 q 740 486 840 518 l 740 482 q 855 412 818 458 q 903 282 892 365 q 913 183 910 229 q 920 99 917 136 q 929 40 924 63 q 947 11 935 17 l 947 0 l 714 0 q 698 28 703 6 q 690 83 693 50 q 683 156 686 115 q 676 239 681 196 q 626 356 667 317 q 499 394 585 394 l 324 394 l 324 0 l 88 0 l 88 1033 m 324 569 l 533 569 q 654 606 613 569 q 696 706 696 643 q 658 808 696 769 q 540 846 619 846 l 324 846 l 324 569 m 396 -292 q 467 -265 440 -283 q 494 -214 494 -246 l 401 -214 l 401 -71 l 611 -71 l 611 -169 q 594 -255 611 -219 q 549 -314 578 -290 q 481 -350 519 -337 q 396 -365 442 -362 l 396 -292 z "},"ŗ":{"ha":569,"x_min":69,"x_max":538,"o":"m 282 607 l 286 607 q 372 718 322 685 q 492 751 422 751 q 538 746 525 751 l 538 556 l 532 556 q 486 560 508 560 q 344 506 397 561 q 290 343 290 451 l 290 0 l 72 0 l 72 739 l 282 739 l 282 607 m 69 -292 q 141 -265 114 -283 q 168 -214 168 -246 l 75 -214 l 75 -71 l 285 -71 l 285 -169 q 268 -255 285 -219 q 222 -314 251 -290 q 154 -350 193 -337 q 69 -365 115 -362 l 69 -292 z "},"Ř":{"ha":993,"x_min":88,"x_max":947,"o":"m 88 1033 l 579 1033 q 719 1014 654 1033 q 831 956 783 994 q 905 863 878 918 q 932 738 932 808 q 886 582 932 646 q 740 486 840 518 l 740 482 q 855 412 818 458 q 903 282 892 365 q 913 183 910 229 q 920 99 917 136 q 929 40 924 63 q 947 11 935 17 l 947 0 l 714 0 q 698 28 703 6 q 690 83 693 50 q 683 156 686 115 q 676 239 681 196 q 626 356 667 317 q 499 394 585 394 l 324 394 l 324 0 l 88 0 l 88 1033 m 324 569 l 533 569 q 654 606 613 569 q 696 706 696 643 q 658 808 696 769 q 540 846 619 846 l 324 846 l 324 569 m 588 1090 l 375 1090 l 224 1272 l 413 1272 l 476 1193 l 479 1193 l 546 1272 l 738 1272 l 588 1090 z "},"ř":{"ha":569,"x_min":64,"x_max":578,"o":"m 282 607 l 286 607 q 372 718 322 685 q 492 751 422 751 q 538 746 525 751 l 538 556 l 532 556 q 486 560 508 560 q 344 506 397 561 q 290 343 290 451 l 290 0 l 72 0 l 72 739 l 282 739 l 282 607 m 428 850 l 215 850 l 64 1056 l 251 1056 l 317 947 l 319 947 l 388 1056 l 578 1056 l 428 850 z "},"Ś":{"ha":958,"x_min":35,"x_max":910,"o":"m 493 -25 q 306 -1 389 -25 q 163 67 222 22 q 70 177 103 111 q 35 326 38 243 l 274 326 q 338 203 283 242 q 493 164 393 164 q 560 171 528 164 q 617 192 592 178 q 656 230 642 207 q 671 285 671 253 q 655 340 671 318 q 608 378 639 363 q 533 405 578 393 q 433 429 489 417 q 292 467 358 446 q 175 522 225 488 q 97 608 125 556 q 68 740 68 660 q 99 879 68 821 q 183 976 129 938 q 311 1033 238 1014 q 471 1051 385 1051 q 628 1032 556 1051 q 753 974 700 1013 q 838 877 806 935 q 875 743 869 819 l 643 743 q 588 838 633 804 q 464 871 542 871 q 346 842 390 871 q 301 764 301 813 q 318 714 301 733 q 367 680 335 694 q 445 654 399 665 q 553 629 492 643 q 687 592 622 614 q 801 535 751 571 q 880 444 850 499 q 910 308 910 390 q 878 166 910 228 q 790 62 846 104 q 658 -3 733 19 q 493 -25 582 -25 m 432 1272 l 694 1272 l 543 1090 l 372 1090 l 432 1272 z "},"ś":{"ha":749,"x_min":25,"x_max":713,"o":"m 379 -24 q 235 -6 299 -24 q 126 46 171 13 q 55 126 81 79 q 25 228 29 172 l 231 228 q 278 147 240 175 q 381 119 317 119 q 471 142 439 119 q 503 204 503 164 q 488 244 503 229 q 446 269 472 260 q 385 285 419 279 q 313 299 351 292 q 215 321 263 308 q 131 358 168 333 q 70 424 93 383 q 47 529 47 464 q 72 629 47 586 q 138 701 96 672 q 236 745 179 731 q 358 760 293 760 q 592 699 513 760 q 686 542 671 639 l 483 542 q 358 621 463 621 q 278 601 308 621 q 249 546 249 582 q 263 512 249 525 q 301 490 276 499 q 360 476 326 482 q 431 464 393 471 q 531 442 481 456 q 621 403 581 429 q 687 333 661 376 q 713 219 713 289 q 688 114 713 160 q 618 38 663 68 q 513 -8 574 7 q 379 -24 451 -24 m 353 1074 l 607 1074 l 442 850 l 279 850 l 353 1074 z "},"Ŝ":{"ha":958,"x_min":35,"x_max":910,"o":"m 493 -25 q 306 -1 389 -25 q 163 67 222 22 q 70 177 103 111 q 35 326 38 243 l 274 326 q 338 203 283 242 q 493 164 393 164 q 560 171 528 164 q 617 192 592 178 q 656 230 642 207 q 671 285 671 253 q 655 340 671 318 q 608 378 639 363 q 533 405 578 393 q 433 429 489 417 q 292 467 358 446 q 175 522 225 488 q 97 608 125 556 q 68 740 68 660 q 99 879 68 821 q 183 976 129 938 q 311 1033 238 1014 q 471 1051 385 1051 q 628 1032 556 1051 q 753 974 700 1013 q 838 877 806 935 q 875 743 869 819 l 643 743 q 588 838 633 804 q 464 871 542 871 q 346 842 390 871 q 301 764 301 813 q 318 714 301 733 q 367 680 335 694 q 445 654 399 665 q 553 629 492 643 q 687 592 622 614 q 801 535 751 571 q 880 444 850 499 q 910 308 910 390 q 878 166 910 228 q 790 62 846 104 q 658 -3 733 19 q 493 -25 582 -25 m 360 1272 l 572 1272 l 724 1090 l 535 1090 l 471 1169 l 468 1169 l 401 1090 l 210 1090 l 360 1272 z "},"ŝ":{"ha":749,"x_min":25,"x_max":713,"o":"m 379 -24 q 235 -6 299 -24 q 126 46 171 13 q 55 126 81 79 q 25 228 29 172 l 231 228 q 278 147 240 175 q 381 119 317 119 q 471 142 439 119 q 503 204 503 164 q 488 244 503 229 q 446 269 472 260 q 385 285 419 279 q 313 299 351 292 q 215 321 263 308 q 131 358 168 333 q 70 424 93 383 q 47 529 47 464 q 72 629 47 586 q 138 701 96 672 q 236 745 179 731 q 358 760 293 760 q 592 699 513 760 q 686 542 671 639 l 483 542 q 358 621 463 621 q 278 601 308 621 q 249 546 249 582 q 263 512 249 525 q 301 490 276 499 q 360 476 326 482 q 431 464 393 471 q 531 442 481 456 q 621 403 581 429 q 687 333 661 376 q 713 219 713 289 q 688 114 713 160 q 618 38 663 68 q 513 -8 574 7 q 379 -24 451 -24 m 254 1058 l 467 1058 l 618 853 l 431 853 l 365 961 l 363 961 l 294 853 l 104 853 l 254 1058 z "},"Ş":{"ha":958,"x_min":35,"x_max":910,"o":"m 429 -292 q 340 -280 381 -292 q 272 -250 300 -268 l 300 -196 q 345 -212 321 -206 q 396 -218 369 -218 q 444 -208 424 -218 q 464 -172 464 -197 q 450 -142 464 -151 q 415 -132 436 -132 q 391 -135 401 -132 q 369 -142 381 -137 l 344 -106 l 422 -22 q 142 83 244 -7 q 35 326 39 172 l 274 326 q 338 203 283 242 q 493 164 393 164 q 560 171 528 164 q 617 192 592 178 q 656 230 642 207 q 671 285 671 253 q 655 340 671 318 q 608 378 639 363 q 533 405 578 393 q 433 429 489 417 q 292 467 358 446 q 175 522 225 488 q 97 608 125 556 q 68 740 68 660 q 99 879 68 821 q 183 976 129 938 q 311 1033 238 1014 q 471 1051 385 1051 q 628 1032 556 1051 q 753 974 700 1013 q 838 877 806 935 q 875 743 869 819 l 643 743 q 588 838 633 804 q 464 871 542 871 q 346 842 390 871 q 301 764 301 813 q 318 714 301 733 q 367 680 335 694 q 445 654 399 665 q 553 629 492 643 q 687 592 622 614 q 801 535 751 571 q 880 444 850 499 q 910 308 910 390 q 879 168 910 229 q 794 65 849 107 q 667 -1 740 22 q 507 -25 593 -24 l 450 -76 l 450 -79 q 509 -78 481 -75 q 559 -94 538 -82 q 594 -128 581 -107 q 607 -178 607 -149 q 558 -261 607 -231 q 429 -292 508 -292 z "},"ş":{"ha":749,"x_min":25,"x_max":713,"o":"m 328 -292 q 239 -280 279 -292 q 171 -250 199 -268 l 199 -196 q 244 -212 219 -206 q 294 -218 268 -218 q 342 -208 322 -218 q 363 -172 363 -197 q 349 -142 363 -151 q 314 -132 335 -132 q 290 -135 300 -132 q 268 -142 279 -137 l 243 -106 l 321 -21 q 109 59 186 -8 q 25 228 32 126 l 231 228 q 278 147 240 175 q 381 119 317 119 q 471 142 439 119 q 503 204 503 164 q 488 244 503 229 q 446 269 472 260 q 385 285 419 279 q 313 299 351 292 q 215 321 263 308 q 131 358 168 333 q 70 424 93 383 q 47 529 47 464 q 72 629 47 586 q 138 701 96 672 q 236 745 179 731 q 358 760 293 760 q 592 699 513 760 q 686 542 671 639 l 483 542 q 358 621 463 621 q 278 601 308 621 q 249 546 249 582 q 263 512 249 525 q 301 490 276 499 q 360 476 326 482 q 431 464 393 471 q 531 442 481 456 q 621 403 581 429 q 687 333 661 376 q 713 219 713 289 q 690 119 713 163 q 626 45 667 75 q 531 -2 586 15 q 408 -22 475 -19 l 349 -76 l 349 -79 q 408 -78 379 -75 q 458 -94 436 -82 q 492 -128 479 -107 q 506 -178 506 -149 q 456 -261 506 -231 q 328 -292 407 -292 z "},"Š":{"ha":958,"x_min":35,"x_max":910,"o":"m 493 -25 q 306 -1 389 -25 q 163 67 222 22 q 70 177 103 111 q 35 326 38 243 l 274 326 q 338 203 283 242 q 493 164 393 164 q 560 171 528 164 q 617 192 592 178 q 656 230 642 207 q 671 285 671 253 q 655 340 671 318 q 608 378 639 363 q 533 405 578 393 q 433 429 489 417 q 292 467 358 446 q 175 522 225 488 q 97 608 125 556 q 68 740 68 660 q 99 879 68 821 q 183 976 129 938 q 311 1033 238 1014 q 471 1051 385 1051 q 628 1032 556 1051 q 753 974 700 1013 q 838 877 806 935 q 875 743 869 819 l 643 743 q 588 838 633 804 q 464 871 542 871 q 346 842 390 871 q 301 764 301 813 q 318 714 301 733 q 367 680 335 694 q 445 654 399 665 q 553 629 492 643 q 687 592 622 614 q 801 535 751 571 q 880 444 850 499 q 910 308 910 390 q 878 166 910 228 q 790 62 846 104 q 658 -3 733 19 q 493 -25 582 -25 m 572 1090 l 360 1090 l 208 1272 l 397 1272 l 461 1193 l 464 1193 l 531 1272 l 722 1272 l 572 1090 z "},"š":{"ha":749,"x_min":25,"x_max":713,"o":"m 379 -24 q 235 -6 299 -24 q 126 46 171 13 q 55 126 81 79 q 25 228 29 172 l 231 228 q 278 147 240 175 q 381 119 317 119 q 471 142 439 119 q 503 204 503 164 q 488 244 503 229 q 446 269 472 260 q 385 285 419 279 q 313 299 351 292 q 215 321 263 308 q 131 358 168 333 q 70 424 93 383 q 47 529 47 464 q 72 629 47 586 q 138 701 96 672 q 236 745 179 731 q 358 760 293 760 q 592 699 513 760 q 686 542 671 639 l 483 542 q 358 621 463 621 q 278 601 308 621 q 249 546 249 582 q 263 512 249 525 q 301 490 276 499 q 360 476 326 482 q 431 464 393 471 q 531 442 481 456 q 621 403 581 429 q 687 333 661 376 q 713 219 713 289 q 688 114 713 160 q 618 38 663 68 q 513 -8 574 7 q 379 -24 451 -24 m 474 850 l 261 850 l 110 1056 l 297 1056 l 363 947 l 365 947 l 433 1056 l 624 1056 l 474 850 z "},"Ţ":{"ha":928,"x_min":38,"x_max":890,"o":"m 38 1033 l 890 1033 l 890 832 l 582 832 l 582 0 l 344 0 l 344 832 l 38 832 l 38 1033 m 357 -292 q 428 -265 401 -283 q 456 -214 456 -246 l 363 -214 l 363 -71 l 572 -71 l 572 -169 q 556 -255 572 -219 q 510 -314 539 -290 q 442 -350 481 -337 q 357 -365 403 -362 l 357 -292 z "},"ţ":{"ha":540,"x_min":29,"x_max":499,"o":"m 29 739 l 140 739 l 140 975 l 354 975 l 354 739 l 499 739 l 499 600 l 354 600 l 354 233 q 376 177 354 192 q 436 163 397 163 q 461 163 447 163 q 486 165 475 164 l 497 165 l 497 3 q 447 -4 479 0 q 371 -8 415 -8 q 277 1 319 -8 q 204 33 235 10 q 157 92 174 56 q 140 186 140 129 l 140 600 l 29 600 l 29 739 m 199 -292 q 270 -265 243 -283 q 297 -214 297 -246 l 204 -214 l 204 -71 l 414 -71 l 414 -169 q 397 -255 414 -219 q 351 -314 381 -290 q 283 -350 322 -337 q 199 -365 244 -362 l 199 -292 z "},"Ț":{"ha":928,"x_min":38,"x_max":890,"o":"m 38 1033 l 890 1033 l 890 832 l 582 832 l 582 0 l 344 0 l 344 832 l 38 832 l 38 1033 m 357 -292 q 428 -265 401 -283 q 456 -214 456 -246 l 363 -214 l 363 -71 l 572 -71 l 572 -169 q 556 -255 572 -219 q 510 -314 539 -290 q 442 -350 481 -337 q 357 -365 403 -362 l 357 -292 z "},"ț":{"ha":540,"x_min":29,"x_max":499,"o":"m 29 739 l 140 739 l 140 975 l 354 975 l 354 739 l 499 739 l 499 600 l 354 600 l 354 233 q 376 177 354 192 q 436 163 397 163 q 461 163 447 163 q 486 165 475 164 l 497 165 l 497 3 q 447 -4 479 0 q 371 -8 415 -8 q 277 1 319 -8 q 204 33 235 10 q 157 92 174 56 q 140 186 140 129 l 140 600 l 29 600 l 29 739 m 199 -292 q 270 -265 243 -283 q 297 -214 297 -246 l 204 -214 l 204 -71 l 414 -71 l 414 -169 q 397 -255 414 -219 q 351 -314 381 -290 q 283 -350 322 -337 q 199 -365 244 -362 l 199 -292 z "},"Ť":{"ha":928,"x_min":38,"x_max":890,"o":"m 38 1033 l 890 1033 l 890 832 l 582 832 l 582 0 l 344 0 l 344 832 l 38 832 l 38 1033 m 574 1090 l 361 1090 l 210 1272 l 399 1272 l 463 1193 l 465 1193 l 532 1272 l 724 1272 l 574 1090 z "},"ť":{"ha":540,"x_min":29,"x_max":596,"o":"m 29 739 l 140 739 l 140 975 l 354 975 l 354 739 l 499 739 l 499 600 l 354 600 l 354 233 q 376 177 354 192 q 436 163 397 163 q 461 163 447 163 q 486 165 475 164 l 497 165 l 497 3 q 447 -4 479 0 q 371 -8 415 -8 q 277 1 319 -8 q 204 33 235 10 q 157 92 174 56 q 140 186 140 129 l 140 600 l 29 600 l 29 739 m 414 846 q 475 865 456 850 q 496 908 494 881 l 414 908 l 414 1033 l 596 1033 l 596 953 q 548 819 596 857 q 414 776 500 781 l 414 846 z "},"Ŧ":{"ha":928,"x_min":38,"x_max":890,"o":"m 38 1033 l 890 1033 l 890 832 l 582 832 l 582 590 l 786 590 l 786 450 l 582 450 l 582 0 l 344 0 l 344 450 l 142 450 l 142 590 l 344 590 l 344 832 l 38 832 l 38 1033 z "},"ŧ":{"ha":540,"x_min":29,"x_max":499,"o":"m 29 739 l 140 739 l 140 975 l 354 975 l 354 739 l 499 739 l 499 600 l 354 600 l 354 496 l 499 496 l 499 368 l 354 368 l 354 233 q 376 177 354 192 q 436 163 397 163 q 461 163 447 163 q 486 165 475 164 l 497 165 l 497 3 q 447 -4 479 0 q 371 -8 415 -8 q 277 1 319 -8 q 204 33 235 10 q 157 92 174 56 q 140 186 140 129 l 140 368 l 29 368 l 29 496 l 140 496 l 140 600 l 29 600 l 29 739 z "},"Ũ":{"ha":1006,"x_min":76,"x_max":931,"o":"m 506 -19 q 185 78 294 -19 q 76 360 76 176 l 76 1033 l 313 1033 l 313 354 q 359 221 313 269 q 506 172 406 172 q 646 223 599 172 q 693 358 693 274 l 693 1033 l 931 1033 l 931 360 q 822 79 931 178 q 506 -19 714 -19 m 604 1092 q 546 1100 572 1092 q 498 1119 519 1108 q 458 1138 476 1129 q 424 1147 439 1147 q 392 1133 406 1147 q 376 1090 379 1119 l 257 1090 q 269 1176 257 1139 q 301 1237 281 1213 q 349 1274 322 1261 q 407 1286 376 1286 q 465 1277 440 1286 q 511 1258 490 1268 q 549 1239 532 1247 q 583 1231 567 1231 q 631 1283 625 1231 l 750 1283 q 712 1144 750 1196 q 604 1092 674 1092 z "},"ũ":{"ha":832,"x_min":67,"x_max":760,"o":"m 553 0 l 553 106 l 549 106 q 456 10 508 40 q 326 -21 403 -21 q 133 53 200 -21 q 67 250 67 128 l 67 739 l 285 739 l 285 292 q 315 196 285 229 q 403 163 344 163 q 507 207 469 163 q 544 321 544 251 l 544 739 l 760 739 l 760 0 l 553 0 m 513 851 q 454 860 481 851 q 406 880 428 869 q 365 899 383 890 q 331 908 346 908 q 299 894 313 908 q 282 850 285 879 l 165 850 q 177 935 165 899 q 210 997 189 972 q 258 1033 231 1021 q 315 1046 285 1046 q 374 1037 349 1046 q 421 1017 400 1028 q 460 998 442 1007 q 494 989 478 989 q 542 1043 536 989 l 658 1043 q 620 903 658 956 q 513 851 582 851 z "},"Ū":{"ha":1006,"x_min":76,"x_max":931,"o":"m 506 -19 q 185 78 294 -19 q 76 360 76 176 l 76 1033 l 313 1033 l 313 354 q 359 221 313 269 q 506 172 406 172 q 646 223 599 172 q 693 358 693 274 l 693 1033 l 931 1033 l 931 360 q 822 79 931 178 q 506 -19 714 -19 m 286 1250 l 719 1250 l 719 1096 l 286 1096 l 286 1250 z "},"ū":{"ha":832,"x_min":67,"x_max":760,"o":"m 553 0 l 553 106 l 549 106 q 456 10 508 40 q 326 -21 403 -21 q 133 53 200 -21 q 67 250 67 128 l 67 739 l 285 739 l 285 292 q 315 196 285 229 q 403 163 344 163 q 507 207 469 163 q 544 321 544 251 l 544 739 l 760 739 l 760 0 l 553 0 m 194 1008 l 628 1008 l 628 854 l 194 854 l 194 1008 z "},"Ŭ":{"ha":1006,"x_min":76,"x_max":931,"o":"m 506 -19 q 185 78 294 -19 q 76 360 76 176 l 76 1033 l 313 1033 l 313 354 q 359 221 313 269 q 506 172 406 172 q 646 223 599 172 q 693 358 693 274 l 693 1033 l 931 1033 l 931 360 q 822 79 931 178 q 506 -19 714 -19 m 507 1082 q 345 1138 407 1082 q 279 1279 283 1193 l 406 1279 q 436 1235 413 1254 q 506 1217 460 1217 q 572 1237 549 1217 q 603 1279 596 1257 l 726 1279 q 709 1202 725 1238 q 665 1140 693 1167 q 597 1097 638 1113 q 507 1082 557 1082 z "},"ŭ":{"ha":832,"x_min":67,"x_max":760,"o":"m 553 0 l 553 106 l 549 106 q 456 10 508 40 q 326 -21 403 -21 q 133 53 200 -21 q 67 250 67 128 l 67 739 l 285 739 l 285 292 q 315 196 285 229 q 403 163 344 163 q 507 207 469 163 q 544 321 544 251 l 544 739 l 760 739 l 760 0 l 553 0 m 415 842 q 326 857 367 842 q 254 900 285 872 q 205 967 224 928 q 185 1057 186 1007 l 311 1057 q 342 998 317 1019 q 414 976 368 976 q 483 999 457 976 q 514 1057 508 1022 l 638 1057 q 619 969 636 1008 q 574 901 603 929 q 504 858 544 874 q 415 842 464 842 z "},"Ů":{"ha":1006,"x_min":76,"x_max":931,"o":"m 506 -19 q 185 78 294 -19 q 76 360 76 176 l 76 1033 l 313 1033 l 313 354 q 359 221 313 269 q 506 172 406 172 q 646 223 599 172 q 693 358 693 274 l 693 1033 l 931 1033 l 931 360 q 822 79 931 178 q 506 -19 714 -19 m 504 1036 q 442 1048 471 1036 q 392 1080 414 1060 q 357 1128 369 1100 q 344 1189 344 1156 q 357 1249 344 1221 q 392 1297 369 1276 q 442 1331 414 1318 q 504 1343 471 1343 q 565 1331 536 1343 q 616 1297 594 1318 q 650 1249 638 1276 q 663 1189 663 1221 q 650 1128 663 1156 q 616 1080 638 1100 q 565 1048 594 1060 q 504 1036 536 1036 m 504 1115 q 556 1136 536 1115 q 576 1189 576 1157 q 556 1243 576 1221 q 504 1265 536 1265 q 451 1243 471 1265 q 431 1189 431 1221 q 451 1136 431 1157 q 504 1115 471 1115 z "},"ů":{"ha":832,"x_min":67,"x_max":760,"o":"m 553 0 l 553 106 l 549 106 q 456 10 508 40 q 326 -21 403 -21 q 133 53 200 -21 q 67 250 67 128 l 67 739 l 285 739 l 285 292 q 315 196 285 229 q 403 163 344 163 q 507 207 469 163 q 544 321 544 251 l 544 739 l 760 739 l 760 0 l 553 0 m 413 828 q 351 840 379 828 q 300 872 322 851 q 265 919 278 892 q 253 981 253 947 q 265 1040 253 1013 q 300 1089 278 1068 q 351 1122 322 1110 q 413 1135 379 1135 q 474 1122 444 1135 q 524 1089 503 1110 q 558 1040 546 1068 q 571 981 571 1013 q 558 919 571 947 q 524 872 546 892 q 474 840 503 851 q 413 828 444 828 m 413 907 q 465 928 444 907 q 485 981 485 949 q 465 1035 485 1013 q 413 1057 444 1057 q 359 1035 379 1057 q 339 981 339 1013 q 359 928 339 949 q 413 907 379 907 z "},"Ű":{"ha":1006,"x_min":76,"x_max":931,"o":"m 506 -19 q 185 78 294 -19 q 76 360 76 176 l 76 1033 l 313 1033 l 313 354 q 359 221 313 269 q 506 172 406 172 q 646 223 599 172 q 693 358 693 274 l 693 1033 l 931 1033 l 931 360 q 822 79 931 178 q 506 -19 714 -19 m 613 1272 l 829 1272 l 706 1090 l 564 1090 l 613 1272 m 340 1272 l 557 1272 l 432 1090 l 290 1090 l 340 1272 z "},"ű":{"ha":832,"x_min":67,"x_max":760,"o":"m 553 0 l 553 106 l 549 106 q 456 10 508 40 q 326 -21 403 -21 q 133 53 200 -21 q 67 250 67 128 l 67 739 l 285 739 l 285 292 q 315 196 285 229 q 403 163 344 163 q 507 207 469 163 q 544 321 544 251 l 544 739 l 760 739 l 760 0 l 553 0 m 267 1074 l 479 1074 l 336 850 l 199 850 l 267 1074 m 535 1074 l 747 1074 l 606 850 l 468 850 l 535 1074 z "},"Ų":{"ha":1006,"x_min":76,"x_max":931,"o":"m 560 -256 q 434 -224 476 -256 q 392 -139 392 -192 q 414 -67 392 -96 q 465 -18 436 -37 q 175 88 274 -8 q 76 360 76 185 l 76 1033 l 313 1033 l 313 354 q 359 221 313 269 q 506 172 406 172 q 646 223 599 172 q 693 358 693 274 l 693 1033 l 931 1033 l 931 360 q 869 135 931 224 q 690 6 808 46 q 606 -35 643 -10 q 568 -101 568 -61 q 614 -139 568 -139 q 636 -137 626 -139 q 654 -133 646 -136 l 657 -133 l 657 -243 q 620 -252 643 -249 q 560 -256 597 -256 z "},"ų":{"ha":832,"x_min":67,"x_max":767,"o":"m 669 -256 q 548 -224 590 -256 q 506 -139 506 -192 q 536 -53 506 -86 q 604 0 567 -19 l 553 0 l 553 106 l 549 106 q 456 10 508 40 q 326 -21 403 -21 q 133 53 200 -21 q 67 250 67 128 l 67 739 l 285 739 l 285 292 q 315 196 285 229 q 403 163 344 163 q 507 207 469 163 q 544 321 544 251 l 544 739 l 760 739 l 760 3 q 698 -49 718 -21 q 678 -101 678 -78 q 724 -139 678 -139 q 746 -137 736 -139 q 764 -133 756 -136 l 767 -133 l 767 -243 q 730 -252 753 -249 q 669 -256 707 -256 z "},"Ŵ":{"ha":1388,"x_min":13,"x_max":1360,"o":"m 13 1033 l 253 1033 l 351 629 q 376 505 365 572 q 394 376 386 438 q 411 235 403 306 l 414 235 q 436 382 424 308 q 458 514 446 444 q 482 638 471 583 l 574 1033 l 797 1033 l 889 639 q 913 515 900 585 q 935 382 925 444 q 956 235 946 308 l 958 235 q 978 378 967 307 q 998 507 986 439 q 1024 631 1010 575 l 1119 1033 l 1360 1033 l 1076 0 l 844 0 l 744 433 q 724 543 733 482 q 706 660 714 604 q 688 790 696 725 l 685 790 q 667 660 676 725 q 649 543 658 604 q 628 433 639 482 l 526 0 l 293 0 l 13 1033 m 575 1272 l 788 1272 l 939 1090 l 750 1090 l 686 1169 l 683 1169 l 617 1090 l 425 1090 l 575 1272 z "},"ŵ":{"ha":1142,"x_min":10,"x_max":1131,"o":"m 10 739 l 232 739 l 310 451 q 326 378 318 418 q 340 304 333 339 q 353 222 347 264 l 356 222 q 371 304 364 263 q 385 381 378 340 q 403 454 393 421 l 478 739 l 663 739 l 740 454 q 758 381 750 421 q 774 304 767 340 q 789 221 781 263 l 792 221 q 804 303 797 261 q 819 378 811 338 q 836 451 826 418 l 915 739 l 1131 739 l 901 0 l 696 0 l 618 301 q 601 372 610 333 q 586 446 593 411 q 572 528 579 486 l 569 528 q 553 446 561 486 q 538 372 546 411 q 521 301 529 333 l 440 0 l 238 0 l 10 739 m 460 1058 l 672 1058 l 824 853 l 636 853 l 571 961 l 568 961 l 500 853 l 310 853 l 460 1058 z "},"Ŷ":{"ha":975,"x_min":15,"x_max":960,"o":"m 369 386 l 15 1033 l 275 1033 l 386 817 q 422 738 404 781 q 456 658 440 696 q 489 571 472 614 l 492 571 q 526 658 508 614 q 560 738 542 696 q 597 817 579 781 l 710 1033 l 960 1033 l 606 389 l 606 0 l 369 0 l 369 386 m 376 1272 l 589 1272 l 740 1090 l 551 1090 l 488 1169 l 485 1169 l 418 1090 l 226 1090 l 376 1272 z "},"ŷ":{"ha":774,"x_min":7,"x_max":767,"o":"m 233 -247 q 208 -247 231 -247 q 160 -247 186 -247 q 111 -245 133 -246 q 88 -244 89 -244 l 88 -74 l 99 -74 q 110 -74 100 -74 q 133 -75 121 -75 q 156 -75 146 -75 q 169 -75 167 -75 q 275 0 268 -75 q 265 59 275 19 q 236 149 256 99 l 7 739 l 236 739 l 331 456 q 354 373 343 418 q 374 289 365 328 q 392 199 383 243 l 394 199 q 415 290 404 244 q 436 374 425 329 q 460 456 447 418 l 550 739 l 767 739 l 503 -18 q 456 -126 481 -82 q 399 -197 431 -169 q 326 -235 367 -224 q 233 -247 286 -247 m 282 1058 l 494 1058 l 646 853 l 458 853 l 393 961 l 390 961 l 322 853 l 132 853 l 282 1058 z "},"Ÿ":{"ha":975,"x_min":15,"x_max":960,"o":"m 369 386 l 15 1033 l 275 1033 l 386 817 q 422 738 404 781 q 456 658 440 696 q 489 571 472 614 l 492 571 q 526 658 508 614 q 560 738 542 696 q 597 817 579 781 l 710 1033 l 960 1033 l 606 389 l 606 0 l 369 0 l 369 386 m 213 1276 l 425 1276 l 425 1090 l 213 1090 l 213 1276 m 553 1276 l 764 1276 l 764 1090 l 553 1090 l 553 1276 z "},"Ź":{"ha":956,"x_min":50,"x_max":901,"o":"m 50 192 l 432 656 q 485 715 456 683 q 540 774 514 746 q 603 836 571 806 l 603 840 q 524 836 563 838 q 453 834 490 835 q 385 833 415 833 l 88 833 l 88 1033 l 882 1033 l 882 847 l 514 397 q 456 331 488 365 q 394 267 424 296 l 326 199 l 326 194 q 410 199 368 196 q 485 201 446 200 q 557 203 525 203 l 901 203 l 901 0 l 50 0 l 50 192 m 449 1272 l 711 1272 l 560 1090 l 389 1090 l 449 1272 z "},"ź":{"ha":747,"x_min":50,"x_max":701,"o":"m 50 163 l 314 461 q 351 500 331 479 q 392 538 372 521 q 438 576 414 557 l 438 581 q 381 575 408 578 q 329 571 357 572 q 278 569 301 569 l 82 569 l 82 739 l 682 739 l 682 582 l 428 293 q 385 250 408 272 q 339 208 361 228 q 288 165 314 186 l 288 161 q 349 165 318 163 q 405 169 375 168 q 460 171 435 171 l 701 171 l 701 0 l 50 0 l 50 163 m 372 1074 l 626 1074 l 461 850 l 299 850 l 372 1074 z "},"Ż":{"ha":956,"x_min":50,"x_max":901,"o":"m 50 192 l 432 656 q 485 715 456 683 q 540 774 514 746 q 603 836 571 806 l 603 840 q 524 836 563 838 q 453 834 490 835 q 385 833 415 833 l 88 833 l 88 1033 l 882 1033 l 882 847 l 514 397 q 456 331 488 365 q 394 267 424 296 l 326 199 l 326 194 q 410 199 368 196 q 485 201 446 200 q 557 203 525 203 l 901 203 l 901 0 l 50 0 l 50 192 m 375 1278 l 596 1278 l 596 1090 l 375 1090 l 375 1278 z "},"ż":{"ha":747,"x_min":50,"x_max":701,"o":"m 50 163 l 314 461 q 351 500 331 479 q 392 538 372 521 q 438 576 414 557 l 438 581 q 381 575 408 578 q 329 571 357 572 q 278 569 301 569 l 82 569 l 82 739 l 682 739 l 682 582 l 428 293 q 385 250 408 272 q 339 208 361 228 q 288 165 314 186 l 288 161 q 349 165 318 163 q 405 169 375 168 q 460 171 435 171 l 701 171 l 701 0 l 50 0 l 50 163 m 274 1033 l 494 1033 l 494 843 l 274 843 l 274 1033 z "},"Ž":{"ha":956,"x_min":50,"x_max":901,"o":"m 50 192 l 432 656 q 485 715 456 683 q 540 774 514 746 q 603 836 571 806 l 603 840 q 524 836 563 838 q 453 834 490 835 q 385 833 415 833 l 88 833 l 88 1033 l 882 1033 l 882 847 l 514 397 q 456 331 488 365 q 394 267 424 296 l 326 199 l 326 194 q 410 199 368 196 q 485 201 446 200 q 557 203 525 203 l 901 203 l 901 0 l 50 0 l 50 192 m 594 1090 l 382 1090 l 231 1272 l 419 1272 l 483 1193 l 486 1193 l 553 1272 l 744 1272 l 594 1090 z "},"ž":{"ha":747,"x_min":50,"x_max":701,"o":"m 50 163 l 314 461 q 351 500 331 479 q 392 538 372 521 q 438 576 414 557 l 438 581 q 381 575 408 578 q 329 571 357 572 q 278 569 301 569 l 82 569 l 82 739 l 682 739 l 682 582 l 428 293 q 385 250 408 272 q 339 208 361 228 q 288 165 314 186 l 288 161 q 349 165 318 163 q 405 169 375 168 q 460 171 435 171 l 701 171 l 701 0 l 50 0 l 50 163 m 493 850 l 281 850 l 129 1056 l 317 1056 l 382 947 l 385 947 l 453 1056 l 643 1056 l 493 850 z "},"ƒ":{"ha":647,"x_min":4,"x_max":610,"o":"m 58 600 l 204 600 l 233 796 q 260 890 242 850 q 311 958 278 931 q 442 1006 363 1000 q 610 1001 522 1013 l 610 846 q 547 847 574 847 q 500 839 519 846 q 469 816 481 832 q 453 771 457 800 l 428 600 l 583 600 l 583 460 l 407 460 l 339 -19 q 315 -112 331 -72 q 268 -178 299 -151 q 215 -209 244 -199 q 152 -223 186 -219 q 81 -224 118 -226 q 4 -218 43 -222 l 4 -74 q 49 -74 29 -75 q 82 -65 68 -72 q 105 -42 96 -58 q 118 3 114 -26 l 185 460 l 58 460 l 58 600 z "},"Ș":{"ha":958,"x_min":35,"x_max":910,"o":"m 493 -25 q 306 -1 389 -25 q 163 67 222 22 q 70 177 103 111 q 35 326 38 243 l 274 326 q 338 203 283 242 q 493 164 393 164 q 560 171 528 164 q 617 192 592 178 q 656 230 642 207 q 671 285 671 253 q 655 340 671 318 q 608 378 639 363 q 533 405 578 393 q 433 429 489 417 q 292 467 358 446 q 175 522 225 488 q 97 608 125 556 q 68 740 68 660 q 99 879 68 821 q 183 976 129 938 q 311 1033 238 1014 q 471 1051 385 1051 q 628 1032 556 1051 q 753 974 700 1013 q 838 877 806 935 q 875 743 869 819 l 643 743 q 588 838 633 804 q 464 871 542 871 q 346 842 390 871 q 301 764 301 813 q 318 714 301 733 q 367 680 335 694 q 445 654 399 665 q 553 629 492 643 q 687 592 622 614 q 801 535 751 571 q 880 444 850 499 q 910 308 910 390 q 878 166 910 228 q 790 62 846 104 q 658 -3 733 19 q 493 -25 582 -25 m 358 -292 q 430 -265 403 -283 q 457 -214 457 -246 l 364 -214 l 364 -71 l 574 -71 l 574 -169 q 557 -255 574 -219 q 511 -314 540 -290 q 443 -350 482 -337 q 358 -365 404 -362 l 358 -292 z "},"ș":{"ha":749,"x_min":25,"x_max":713,"o":"m 379 -24 q 235 -6 299 -24 q 126 46 171 13 q 55 126 81 79 q 25 228 29 172 l 231 228 q 278 147 240 175 q 381 119 317 119 q 471 142 439 119 q 503 204 503 164 q 488 244 503 229 q 446 269 472 260 q 385 285 419 279 q 313 299 351 292 q 215 321 263 308 q 131 358 168 333 q 70 424 93 383 q 47 529 47 464 q 72 629 47 586 q 138 701 96 672 q 236 745 179 731 q 358 760 293 760 q 592 699 513 760 q 686 542 671 639 l 483 542 q 358 621 463 621 q 278 601 308 621 q 249 546 249 582 q 263 512 249 525 q 301 490 276 499 q 360 476 326 482 q 431 464 393 471 q 531 442 481 456 q 621 403 581 429 q 687 333 661 376 q 713 219 713 289 q 688 114 713 160 q 618 38 663 68 q 513 -8 574 7 q 379 -24 451 -24 m 257 -292 q 328 -265 301 -283 q 356 -214 356 -246 l 263 -214 l 263 -71 l 472 -71 l 472 -169 q 456 -255 472 -219 q 410 -314 439 -290 q 342 -350 381 -337 q 257 -365 303 -362 l 257 -292 z "},"ˆ":{"ha":694,"x_min":90,"x_max":604,"o":"m 240 1058 l 453 1058 l 604 853 l 417 853 l 351 961 l 349 961 l 281 853 l 90 853 l 240 1058 z "},"ˇ":{"ha":694,"x_min":90,"x_max":604,"o":"m 454 850 l 242 850 l 90 1056 l 278 1056 l 343 947 l 346 947 l 414 1056 l 604 1056 l 454 850 z "},"ˉ":{"ha":694,"x_min":133,"x_max":567,"o":"m 133 1008 l 567 1008 l 567 854 l 133 854 l 133 1008 z "},"˘":{"ha":694,"x_min":147,"x_max":600,"o":"m 378 842 q 288 857 329 842 q 217 900 247 872 q 167 967 186 928 q 147 1057 149 1007 l 274 1057 q 305 998 279 1019 q 376 976 331 976 q 445 999 419 976 q 476 1057 471 1022 l 600 1057 q 582 969 599 1008 q 536 901 565 929 q 467 858 507 874 q 378 842 426 842 z "},"˙":{"ha":694,"x_min":236,"x_max":457,"o":"m 236 1033 l 457 1033 l 457 843 l 236 843 l 236 1033 z "},"˚":{"ha":694,"x_min":189,"x_max":507,"o":"m 349 828 q 287 840 315 828 q 236 872 258 851 q 201 919 214 892 q 189 981 189 947 q 201 1040 189 1013 q 236 1089 214 1068 q 287 1122 258 1110 q 349 1135 315 1135 q 410 1122 381 1135 q 460 1089 439 1110 q 494 1040 482 1068 q 507 981 507 1013 q 494 919 507 947 q 460 872 482 892 q 410 840 439 851 q 349 828 381 828 m 349 907 q 401 928 381 907 q 421 981 421 949 q 401 1035 421 1013 q 349 1057 381 1057 q 295 1035 315 1057 q 275 981 275 1013 q 295 928 275 949 q 349 907 315 907 z "},"˛":{"ha":694,"x_min":144,"x_max":410,"o":"m 313 -256 q 187 -224 229 -256 q 144 -139 144 -192 q 155 -89 144 -111 q 181 -50 165 -67 q 215 -21 196 -33 q 254 0 235 -8 l 389 0 q 340 -51 358 -24 q 321 -101 321 -78 q 367 -139 321 -139 q 389 -137 379 -139 q 407 -133 399 -136 l 410 -133 l 410 -243 q 373 -252 396 -249 q 313 -256 350 -256 z "},"˜":{"ha":694,"x_min":106,"x_max":599,"o":"m 453 851 q 394 860 421 851 q 346 880 368 869 q 305 899 324 890 q 271 908 286 908 q 239 894 253 908 q 222 850 225 879 l 106 850 q 117 935 106 899 q 150 997 129 972 q 198 1033 171 1021 q 256 1046 225 1046 q 315 1037 289 1046 q 361 1017 340 1028 q 400 998 382 1007 q 435 989 418 989 q 482 1043 476 989 l 599 1043 q 560 903 599 956 q 453 851 522 851 z "},"˝":{"ha":694,"x_min":132,"x_max":681,"o":"m 468 1074 l 681 1074 l 539 850 l 401 850 l 468 1074 m 200 1074 l 413 1074 l 269 850 l 132 850 l 200 1074 z "},"Δ":{"ha":1004,"x_min":38,"x_max":967,"o":"m 38 156 l 371 1033 l 632 1033 l 967 156 l 967 0 l 38 0 l 38 156 m 710 183 l 567 576 q 535 672 549 625 q 514 757 522 719 q 497 840 504 801 l 494 840 q 476 757 486 801 q 454 672 467 719 q 424 576 442 625 l 282 183 l 710 183 z "},"Ω":{"ha":1083,"x_min":44,"x_max":1039,"o":"m 56 181 l 213 181 l 213 183 q 87 331 129 239 q 44 549 44 422 q 81 752 44 660 q 183 911 117 844 q 340 1015 249 978 q 542 1051 431 1051 q 743 1015 651 1051 q 901 911 835 978 q 1003 752 967 844 q 1039 549 1039 660 q 996 331 1039 422 q 869 183 953 239 l 869 181 l 1028 181 l 1028 0 l 590 0 l 590 174 q 684 213 644 182 q 749 290 724 243 q 787 398 775 336 q 799 532 799 460 q 732 773 799 686 q 542 860 665 860 q 351 773 418 860 q 285 532 285 686 q 297 398 285 460 q 334 290 308 336 q 399 213 360 243 q 493 174 439 182 l 493 0 l 56 0 l 56 181 z "},"μ":{"ha":838,"x_min":72,"x_max":765,"o":"m 72 739 l 290 739 l 290 292 q 320 196 290 229 q 408 163 350 163 q 513 207 475 163 q 550 321 550 251 l 550 739 l 765 739 l 765 0 l 558 0 l 558 106 l 554 106 q 477 22 526 56 q 353 -11 428 -11 q 313 -5 329 -11 q 288 10 296 1 l 285 10 q 288 -35 286 -11 q 290 -80 289 -54 q 290 -129 290 -106 l 290 -246 l 72 -246 l 72 739 z "},"π":{"ha":940,"x_min":29,"x_max":899,"o":"m 133 600 l 29 600 l 29 739 l 899 739 l 899 600 l 786 600 l 786 215 q 799 169 786 182 q 843 157 813 157 q 863 158 854 157 q 882 161 872 160 l 886 161 l 886 4 q 839 -6 864 -3 q 778 -10 814 -10 q 626 33 683 -10 q 569 182 569 75 l 569 600 l 351 600 l 351 0 l 133 0 l 133 600 z "},"Ẁ":{"ha":1388,"x_min":13,"x_max":1360,"o":"m 13 1033 l 253 1033 l 351 629 q 376 505 365 572 q 394 376 386 438 q 411 235 403 306 l 414 235 q 436 382 424 308 q 458 514 446 444 q 482 638 471 583 l 574 1033 l 797 1033 l 889 639 q 913 515 900 585 q 935 382 925 444 q 956 235 946 308 l 958 235 q 978 378 967 307 q 998 507 986 439 q 1024 631 1010 575 l 1119 1033 l 1360 1033 l 1076 0 l 844 0 l 744 433 q 724 543 733 482 q 706 660 714 604 q 688 790 696 725 l 685 790 q 667 660 676 725 q 649 543 658 604 q 628 433 639 482 l 526 0 l 293 0 l 13 1033 m 444 1272 l 707 1272 l 767 1090 l 597 1090 l 444 1272 z "},"ẁ":{"ha":1142,"x_min":10,"x_max":1131,"o":"m 10 739 l 232 739 l 310 451 q 326 378 318 418 q 340 304 333 339 q 353 222 347 264 l 356 222 q 371 304 364 263 q 385 381 378 340 q 403 454 393 421 l 478 739 l 663 739 l 740 454 q 758 381 750 421 q 774 304 767 340 q 789 221 781 263 l 792 221 q 804 303 797 261 q 819 378 811 338 q 836 451 826 418 l 915 739 l 1131 739 l 901 0 l 696 0 l 618 301 q 601 372 610 333 q 586 446 593 411 q 572 528 579 486 l 569 528 q 553 446 561 486 q 538 372 546 411 q 521 301 529 333 l 440 0 l 238 0 l 10 739 m 333 1074 l 588 1074 l 661 850 l 500 850 l 333 1074 z "},"Ẃ":{"ha":1388,"x_min":13,"x_max":1360,"o":"m 13 1033 l 253 1033 l 351 629 q 376 505 365 572 q 394 376 386 438 q 411 235 403 306 l 414 235 q 436 382 424 308 q 458 514 446 444 q 482 638 471 583 l 574 1033 l 797 1033 l 889 639 q 913 515 900 585 q 935 382 925 444 q 956 235 946 308 l 958 235 q 978 378 967 307 q 998 507 986 439 q 1024 631 1010 575 l 1119 1033 l 1360 1033 l 1076 0 l 844 0 l 744 433 q 724 543 733 482 q 706 660 714 604 q 688 790 696 725 l 685 790 q 667 660 676 725 q 649 543 658 604 q 628 433 639 482 l 526 0 l 293 0 l 13 1033 m 650 1272 l 913 1272 l 761 1090 l 590 1090 l 650 1272 z "},"ẃ":{"ha":1142,"x_min":10,"x_max":1131,"o":"m 10 739 l 232 739 l 310 451 q 326 378 318 418 q 340 304 333 339 q 353 222 347 264 l 356 222 q 371 304 364 263 q 385 381 378 340 q 403 454 393 421 l 478 739 l 663 739 l 740 454 q 758 381 750 421 q 774 304 767 340 q 789 221 781 263 l 792 221 q 804 303 797 261 q 819 378 811 338 q 836 451 826 418 l 915 739 l 1131 739 l 901 0 l 696 0 l 618 301 q 601 372 610 333 q 586 446 593 411 q 572 528 579 486 l 569 528 q 553 446 561 486 q 538 372 546 411 q 521 301 529 333 l 440 0 l 238 0 l 10 739 m 558 1074 l 813 1074 l 647 850 l 485 850 l 558 1074 z "},"Ẅ":{"ha":1388,"x_min":13,"x_max":1360,"o":"m 13 1033 l 253 1033 l 351 629 q 376 505 365 572 q 394 376 386 438 q 411 235 403 306 l 414 235 q 436 382 424 308 q 458 514 446 444 q 482 638 471 583 l 574 1033 l 797 1033 l 889 639 q 913 515 900 585 q 935 382 925 444 q 956 235 946 308 l 958 235 q 978 378 967 307 q 998 507 986 439 q 1024 631 1010 575 l 1119 1033 l 1360 1033 l 1076 0 l 844 0 l 744 433 q 724 543 733 482 q 706 660 714 604 q 688 790 696 725 l 685 790 q 667 660 676 725 q 649 543 658 604 q 628 433 639 482 l 526 0 l 293 0 l 13 1033 m 751 1276 l 963 1276 l 963 1090 l 751 1090 l 751 1276 m 411 1276 l 624 1276 l 624 1090 l 411 1090 l 411 1276 z "},"ẅ":{"ha":1142,"x_min":10,"x_max":1131,"o":"m 10 739 l 232 739 l 310 451 q 326 378 318 418 q 340 304 333 339 q 353 222 347 264 l 356 222 q 371 304 364 263 q 385 381 378 340 q 403 454 393 421 l 478 739 l 663 739 l 740 454 q 758 381 750 421 q 774 304 767 340 q 789 221 781 263 l 792 221 q 804 303 797 261 q 819 378 811 338 q 836 451 826 418 l 915 739 l 1131 739 l 901 0 l 696 0 l 618 301 q 601 372 610 333 q 586 446 593 411 q 572 528 579 486 l 569 528 q 553 446 561 486 q 538 372 546 411 q 521 301 529 333 l 440 0 l 238 0 l 10 739 m 636 1033 l 842 1033 l 842 843 l 636 843 l 636 1033 m 299 1033 l 506 1033 l 506 843 l 299 843 l 299 1033 z "},"Ỳ":{"ha":975,"x_min":15,"x_max":960,"o":"m 369 386 l 15 1033 l 275 1033 l 386 817 q 422 738 404 781 q 456 658 440 696 q 489 571 472 614 l 492 571 q 526 658 508 614 q 560 738 542 696 q 597 817 579 781 l 710 1033 l 960 1033 l 606 389 l 606 0 l 369 0 l 369 386 m 246 1272 l 508 1272 l 568 1090 l 399 1090 l 246 1272 z "},"ỳ":{"ha":774,"x_min":7,"x_max":767,"o":"m 233 -247 q 208 -247 231 -247 q 160 -247 186 -247 q 111 -245 133 -246 q 88 -244 89 -244 l 88 -74 l 99 -74 q 110 -74 100 -74 q 133 -75 121 -75 q 156 -75 146 -75 q 169 -75 167 -75 q 275 0 268 -75 q 265 59 275 19 q 236 149 256 99 l 7 739 l 236 739 l 331 456 q 354 373 343 418 q 374 289 365 328 q 392 199 383 243 l 394 199 q 415 290 404 244 q 436 374 425 329 q 460 456 447 418 l 550 739 l 767 739 l 503 -18 q 456 -126 481 -82 q 399 -197 431 -169 q 326 -235 367 -224 q 233 -247 286 -247 m 156 1074 l 410 1074 l 483 850 l 322 850 l 156 1074 z "},"–":{"ha":694,"x_min":0,"x_max":694,"o":"m 0 461 l 694 461 l 694 274 l 0 274 l 0 461 z "},"—":{"ha":1389,"x_min":278,"x_max":1111,"o":"m 278 461 l 1111 461 l 1111 274 l 278 274 l 278 461 z "},"‘":{"ha":317,"x_min":57,"x_max":264,"o":"m 57 796 q 74 901 57 857 q 120 974 92 944 q 186 1018 149 1003 q 264 1038 224 1033 l 264 954 q 195 909 224 943 q 167 819 167 875 l 167 817 l 260 817 l 260 613 l 57 613 l 57 796 z "},"’":{"ha":317,"x_min":53,"x_max":260,"o":"m 260 850 q 242 745 260 789 q 197 672 225 701 q 131 628 168 643 q 53 608 93 613 l 53 690 q 122 735 93 701 q 150 826 150 769 l 150 829 l 57 829 l 57 1033 l 260 1033 l 260 850 z "},"‚":{"ha":317,"x_min":53,"x_max":260,"o":"m 260 21 q 242 -84 260 -40 q 197 -157 225 -128 q 131 -201 168 -186 q 53 -221 93 -217 l 53 -139 q 122 -94 93 -128 q 150 -3 150 -60 l 150 0 l 57 0 l 57 204 l 260 204 l 260 21 z "},"“":{"ha":610,"x_min":57,"x_max":556,"o":"m 350 796 q 367 901 350 857 q 413 974 385 944 q 478 1018 442 1003 q 556 1038 515 1033 l 556 954 q 488 909 515 943 q 460 819 460 875 l 460 817 l 553 817 l 553 613 l 350 613 l 350 796 m 57 796 q 74 901 57 857 q 120 974 92 944 q 186 1018 149 1003 q 264 1038 224 1033 l 264 954 q 195 909 224 943 q 167 819 167 875 l 167 817 l 260 817 l 260 613 l 57 613 l 57 796 z "},"”":{"ha":610,"x_min":53,"x_max":553,"o":"m 260 850 q 242 745 260 789 q 197 672 225 701 q 131 628 168 643 q 53 608 93 613 l 53 690 q 122 735 93 701 q 150 826 150 769 l 150 829 l 57 829 l 57 1033 l 260 1033 l 260 850 m 553 850 q 535 745 553 789 q 490 672 518 701 q 424 628 461 643 q 346 608 386 613 l 346 690 q 415 735 386 701 q 443 826 443 769 l 443 829 l 350 829 l 350 1033 l 553 1033 l 553 850 z "},"„":{"ha":610,"x_min":53,"x_max":553,"o":"m 260 21 q 242 -84 260 -40 q 197 -157 225 -128 q 131 -201 168 -186 q 53 -221 93 -217 l 53 -139 q 122 -94 93 -128 q 150 -3 150 -60 l 150 0 l 57 0 l 57 204 l 260 204 l 260 21 m 553 21 q 535 -84 553 -40 q 490 -157 518 -128 q 424 -201 461 -186 q 346 -221 386 -217 l 346 -139 q 415 -94 386 -128 q 443 -3 443 -60 l 443 0 l 350 0 l 350 204 l 553 204 l 553 21 z "},"†":{"ha":872,"x_min":61,"x_max":810,"o":"m 61 746 l 319 746 l 319 1033 l 550 1033 l 550 746 l 810 746 l 810 565 l 550 565 l 550 -199 l 319 -199 l 319 565 l 61 565 l 61 746 z "},"‡":{"ha":872,"x_min":61,"x_max":810,"o":"m 61 746 l 319 746 l 319 1033 l 550 1033 l 550 746 l 810 746 l 810 565 l 550 565 l 550 269 l 810 269 l 810 88 l 550 88 l 550 -199 l 319 -199 l 319 88 l 61 88 l 61 269 l 319 269 l 319 565 l 61 565 l 61 746 z "},"•":{"ha":550,"x_min":65,"x_max":485,"o":"m 275 254 q 194 271 232 254 q 127 315 156 288 q 82 381 99 343 q 65 463 65 419 q 82 544 65 506 q 127 611 99 582 q 194 657 156 640 q 275 674 232 674 q 356 657 318 674 q 423 611 394 640 q 468 544 451 582 q 485 463 485 506 q 468 381 485 419 q 423 315 451 343 q 356 271 394 288 q 275 254 318 254 z "},"…":{"ha":1143,"x_min":61,"x_max":1082,"o":"m 61 228 l 292 228 l 292 0 l 61 0 l 61 228 m 456 228 l 688 228 l 688 0 l 456 0 l 456 228 m 851 228 l 1082 228 l 1082 0 l 851 0 l 851 228 z "},"‰":{"ha":1869,"x_min":43,"x_max":1826,"o":"m 846 989 l 976 989 l 438 0 l 307 0 l 846 989 m 303 433 q 199 453 246 433 q 117 511 151 474 q 63 602 82 549 q 43 722 43 656 q 63 841 43 788 q 117 932 82 894 q 199 990 151 969 q 303 1010 246 1010 q 408 990 360 1010 q 490 932 456 969 q 542 842 524 894 q 561 722 561 789 q 542 602 561 656 q 488 511 522 549 q 406 453 454 474 q 303 433 358 433 m 981 -25 q 878 -4 925 -25 q 796 54 831 17 q 742 145 761 92 q 722 265 722 199 q 742 384 722 331 q 796 475 761 438 q 878 533 831 513 q 981 554 925 554 q 1087 533 1039 554 q 1169 475 1135 513 q 1222 384 1203 438 q 1242 265 1242 331 q 1222 145 1242 199 q 1168 54 1203 92 q 1085 -4 1133 17 q 981 -25 1038 -25 m 303 553 q 374 600 351 553 q 396 722 396 647 q 374 844 396 796 q 303 893 351 893 q 233 845 254 893 q 211 722 211 797 q 233 600 211 647 q 303 553 254 553 m 981 96 q 1051 143 1029 96 q 1074 265 1074 190 q 1051 389 1074 340 q 981 438 1029 438 q 911 389 933 438 q 889 265 889 340 q 911 143 889 190 q 981 96 933 96 m 1567 -25 q 1462 -4 1510 -25 q 1379 54 1414 17 q 1325 145 1344 92 q 1306 265 1306 199 q 1325 384 1306 331 q 1380 475 1344 438 q 1463 533 1415 513 q 1567 554 1510 554 q 1672 533 1624 554 q 1753 475 1719 513 q 1807 384 1788 438 q 1826 265 1826 331 q 1807 145 1826 199 q 1753 54 1788 92 q 1672 -4 1719 17 q 1567 -25 1624 -25 m 1567 96 q 1638 143 1615 96 q 1660 265 1660 190 q 1637 389 1660 340 q 1567 438 1614 438 q 1497 389 1518 438 q 1475 265 1475 340 q 1497 143 1475 190 q 1567 96 1518 96 z "},"‹":{"ha":418,"x_min":82,"x_max":336,"o":"m 82 263 l 82 472 l 336 699 l 336 501 l 192 367 l 192 364 l 336 232 l 336 35 l 82 263 z "},"›":{"ha":418,"x_min":82,"x_max":336,"o":"m 336 471 l 336 263 l 82 35 l 82 233 l 228 367 l 228 369 l 82 503 l 82 699 l 336 471 z "},"⁄":{"ha":410,"x_min":-381,"x_max":635,"o":"m 490 1033 l 635 1033 l -237 -181 l -381 -181 l 490 1033 z "},"€":{"ha":954,"x_min":38,"x_max":921,"o":"m 38 629 l 111 629 q 165 784 128 714 q 257 904 203 854 q 381 982 311 954 q 535 1010 451 1010 q 688 984 621 1010 q 803 913 756 958 q 878 805 851 868 q 913 667 906 742 l 690 667 q 640 787 679 742 q 529 832 600 832 q 406 777 451 832 q 342 629 360 722 l 574 629 l 574 539 l 332 539 q 331 516 331 528 q 331 493 331 504 q 331 464 331 478 q 332 438 331 450 l 574 438 l 574 347 l 344 347 q 412 208 364 256 q 538 160 460 160 q 656 213 615 160 q 704 346 697 267 l 921 346 q 890 198 917 265 q 814 81 863 131 q 696 4 765 32 q 538 -24 626 -24 q 385 3 456 -24 q 260 77 315 29 q 168 194 206 125 q 113 347 131 263 l 38 347 l 38 438 l 100 438 q 99 465 99 451 q 99 493 99 478 q 99 516 99 504 q 100 539 99 528 l 38 539 l 38 629 z "},"ℓ":{"ha":604,"x_min":17,"x_max":563,"o":"m 94 810 q 113 917 94 872 q 163 990 131 961 q 241 1031 196 1018 q 340 1044 286 1044 q 503 989 444 1044 q 563 797 563 933 q 492 515 563 624 q 299 338 422 406 l 299 265 q 321 187 299 207 q 397 167 343 167 q 443 171 425 167 q 482 181 461 175 l 486 181 l 486 14 q 419 -2 458 4 q 336 -8 381 -8 q 237 2 282 -8 q 160 39 192 13 q 112 110 129 65 q 94 224 94 156 l 94 254 q 56 242 78 249 q 17 231 33 235 l 17 357 q 57 369 35 363 q 94 383 79 376 l 94 810 m 299 486 q 322 507 308 493 q 351 542 336 521 q 399 644 381 582 q 417 807 417 707 q 402 885 417 865 q 361 904 388 904 q 318 885 338 904 q 299 821 299 867 l 299 486 z "},"™":{"ha":1340,"x_min":71,"x_max":1239,"o":"m 625 1033 l 835 1033 l 883 871 q 899 808 892 843 q 914 744 907 774 q 929 675 921 708 l 932 675 q 946 744 939 708 q 961 808 953 774 q 978 871 969 843 l 1026 1033 l 1239 1033 l 1239 503 l 1100 503 l 1100 660 q 1100 731 1100 692 q 1101 806 1100 771 q 1104 885 1103 846 l 1100 885 q 1082 810 1092 846 q 1064 742 1074 778 q 1043 674 1054 706 l 990 503 l 868 503 l 815 674 q 795 742 804 706 q 778 811 786 779 q 760 885 768 847 l 757 885 q 758 806 757 846 q 760 731 760 771 q 761 660 761 692 l 761 503 l 625 503 l 625 1033 m 71 1033 l 535 1033 l 535 906 l 381 906 l 381 503 l 225 503 l 225 906 l 71 906 l 71 1033 z "},"Ω":{"ha":1083,"x_min":44,"x_max":1039,"o":"m 56 181 l 213 181 l 213 183 q 87 331 129 239 q 44 549 44 422 q 81 752 44 660 q 183 911 117 844 q 340 1015 249 978 q 542 1051 431 1051 q 743 1015 651 1051 q 901 911 835 978 q 1003 752 967 844 q 1039 549 1039 660 q 996 331 1039 422 q 869 183 953 239 l 869 181 l 1028 181 l 1028 0 l 590 0 l 590 174 q 684 213 644 182 q 749 290 724 243 q 787 398 775 336 q 799 532 799 460 q 732 773 799 686 q 542 860 665 860 q 351 773 418 860 q 285 532 285 686 q 297 398 285 460 q 334 290 308 336 q 399 213 360 243 q 493 174 439 182 l 493 0 l 56 0 l 56 181 z "},"℮":{"ha":1043,"x_min":40,"x_max":1003,"o":"m 300 506 l 300 124 q 406 73 344 92 q 549 54 468 54 q 788 122 700 54 q 915 313 875 190 l 996 313 q 942 180 979 240 q 848 75 904 119 q 717 6 792 31 q 549 -19 642 -19 q 333 20 428 -19 q 174 131 239 60 q 74 301 108 203 q 40 518 40 400 q 78 735 40 636 q 182 904 115 833 q 340 1014 249 975 q 540 1053 432 1053 q 708 1027 632 1053 q 840 953 785 1001 q 967 763 932 875 q 1001 506 1003 651 l 300 506 m 540 985 q 404 965 465 985 q 300 913 343 944 l 300 574 l 746 574 l 746 932 q 656 969 708 954 q 540 985 604 985 z "},"∂":{"ha":856,"x_min":43,"x_max":806,"o":"m 578 619 q 473 781 554 724 q 240 860 392 839 l 240 1043 q 496 988 389 1032 q 672 868 603 943 q 773 688 740 793 q 806 447 806 582 q 781 258 806 344 q 705 110 756 172 q 577 13 654 47 q 396 -22 500 -22 q 246 2 311 -22 q 135 70 181 26 q 67 172 90 114 q 43 300 43 231 q 69 452 43 382 q 144 573 96 522 q 259 652 192 624 q 408 681 326 681 q 505 666 461 681 q 578 619 549 651 m 399 131 q 476 151 443 131 q 531 206 510 172 q 564 283 553 240 q 575 369 575 325 q 540 488 575 444 q 439 531 506 531 q 309 467 357 531 q 261 303 261 404 q 296 177 261 224 q 399 131 331 131 z "},"∆":{"ha":1004,"x_min":38,"x_max":967,"o":"m 38 156 l 371 1033 l 632 1033 l 967 156 l 967 0 l 38 0 l 38 156 m 710 183 l 567 576 q 535 672 549 625 q 514 757 522 719 q 497 840 504 801 l 494 840 q 476 757 486 801 q 454 672 467 719 q 424 576 442 625 l 282 183 l 710 183 z "},"∏":{"ha":1061,"x_min":96,"x_max":965,"o":"m 965 1033 l 965 -144 l 726 -144 l 726 832 l 333 832 l 333 -144 l 96 -144 l 96 1033 l 965 1033 z "},"∑":{"ha":933,"x_min":68,"x_max":875,"o":"m 68 -144 l 68 54 l 424 456 l 424 458 l 68 846 l 68 1033 l 861 1033 l 861 847 l 339 847 l 339 844 l 656 507 l 656 414 l 329 53 l 329 50 l 875 50 l 875 -144 l 68 -144 z "},"−":{"ha":842,"x_min":74,"x_max":768,"o":"m 74 563 l 768 563 l 768 388 l 74 388 l 74 563 z "},"∕":{"ha":410,"x_min":-381,"x_max":635,"o":"m 490 1033 l 635 1033 l -237 -181 l -381 -181 l 490 1033 z "},"∙":{"ha":357,"x_min":63,"x_max":294,"o":"m 63 572 l 294 572 l 294 343 l 63 343 l 63 572 z "},"√":{"ha":949,"x_min":25,"x_max":936,"o":"m 25 479 l 282 479 l 360 281 q 385 210 374 244 q 406 149 397 176 q 424 89 415 117 l 426 89 q 442 149 433 117 q 458 210 449 176 q 478 281 467 244 l 714 1033 l 936 1033 l 550 -144 l 317 -144 l 131 293 l 25 293 l 25 479 z "},"∞":{"ha":1040,"x_min":38,"x_max":1003,"o":"m 269 176 q 169 197 213 176 q 97 254 126 218 q 53 338 68 290 q 38 440 38 386 q 53 542 38 494 q 98 626 68 590 q 171 683 128 663 q 269 704 214 704 q 351 692 314 704 q 418 658 388 679 q 475 609 449 638 q 525 547 501 581 q 573 609 547 581 q 628 658 599 638 q 692 692 657 679 q 771 704 728 704 q 865 685 822 704 q 938 633 907 667 q 985 549 968 599 q 1003 440 1003 500 q 985 331 1003 379 q 938 248 968 282 q 865 195 907 214 q 771 176 822 176 q 628 222 685 176 q 525 335 571 267 q 475 272 501 301 q 418 222 449 243 q 351 188 388 200 q 269 176 314 176 m 285 549 q 220 517 240 549 q 200 440 200 485 q 220 363 200 396 q 285 331 240 331 q 360 364 328 331 q 417 439 392 397 q 360 516 392 483 q 285 549 328 549 m 756 331 q 822 363 800 331 q 843 440 843 396 q 822 517 843 485 q 756 549 800 549 q 685 516 715 549 q 629 439 656 483 q 685 364 656 397 q 756 331 715 331 z "},"∫":{"ha":538,"x_min":-1,"x_max":531,"o":"m -1 -75 l 3 -75 q 31 -79 17 -78 q 65 -81 46 -81 q 133 -63 111 -81 q 156 3 156 -46 l 156 815 q 217 1002 156 944 q 401 1060 278 1060 q 467 1056 432 1060 q 531 1044 501 1053 l 531 879 l 528 879 q 471 886 507 886 q 399 869 422 886 q 375 803 375 851 l 375 -11 q 315 -197 375 -137 q 131 -256 254 -256 q 63 -252 99 -256 q -1 -242 28 -249 l -1 -75 z "},"≈":{"ha":842,"x_min":76,"x_max":765,"o":"m 586 494 q 503 502 546 494 q 419 519 460 510 q 341 535 378 528 q 278 543 304 543 q 219 485 228 543 l 76 485 q 129 667 78 611 q 263 722 181 722 q 346 714 303 722 q 429 697 389 706 q 504 679 469 688 q 564 671 539 671 q 606 684 594 671 q 621 725 618 697 l 765 725 q 722 553 765 611 q 586 494 679 494 m 586 189 q 503 197 546 189 q 419 213 460 204 q 341 230 378 222 q 278 238 304 238 q 219 179 228 238 l 76 179 q 129 361 78 306 q 263 417 181 417 q 346 409 303 417 q 429 392 389 401 q 504 374 469 382 q 564 367 539 367 q 606 379 594 367 q 621 419 618 392 l 765 419 q 722 248 765 307 q 586 189 679 189 z "},"≠":{"ha":838,"x_min":85,"x_max":760,"o":"m 85 682 l 469 682 l 543 826 l 686 826 l 613 682 l 760 682 l 760 517 l 529 517 l 458 379 l 760 379 l 760 214 l 375 214 l 301 69 l 158 69 l 232 214 l 85 214 l 85 379 l 315 379 l 386 517 l 85 517 l 85 682 z "},"≤":{"ha":751,"x_min":76,"x_max":668,"o":"m 76 167 l 668 167 l 668 0 l 76 0 l 76 167 m 76 403 l 76 615 l 668 815 l 668 633 l 424 561 q 358 542 393 551 q 292 526 324 533 q 218 508 256 518 l 218 506 q 292 490 256 497 q 359 475 324 483 q 424 458 394 467 l 668 389 l 668 203 l 76 403 z "},"≥":{"ha":751,"x_min":83,"x_max":675,"o":"m 675 0 l 83 0 l 83 167 l 675 167 l 675 0 m 675 615 l 675 403 l 83 203 l 83 385 l 328 457 q 392 475 357 465 q 460 492 428 485 q 533 510 496 500 l 533 513 q 460 528 496 519 q 392 543 428 535 q 328 560 357 551 l 83 629 l 83 815 l 675 615 z "},"◊":{"ha":879,"x_min":32,"x_max":847,"o":"m 847 515 l 557 0 l 324 0 l 32 517 l 322 1033 l 556 1033 l 847 515 m 372 300 q 403 239 390 265 q 424 193 415 213 q 439 154 433 171 l 442 154 q 457 193 447 171 q 507 300 472 233 l 618 511 l 504 731 q 474 790 486 764 q 454 836 463 817 q 438 875 444 858 l 435 875 q 419 836 428 858 q 399 790 411 817 q 369 731 388 764 l 257 519 l 372 300 z "},"":{"ha":1222,"x_min":94,"x_max":1129,"o":"m 94 1035 l 1129 1035 l 1129 0 l 94 0 l 94 1035 m 264 415 l 507 415 l 507 171 l 715 171 l 715 415 l 958 415 l 958 622 l 715 622 l 715 858 l 507 858 l 507 622 l 264 622 l 264 415 z "},"ﬀ":{"ha":1014,"x_min":28,"x_max":976,"o":"m 604 597 l 357 597 l 357 0 l 139 0 l 139 597 l 28 597 l 28 739 l 139 739 l 139 793 q 160 904 139 861 q 225 974 181 947 q 342 1021 269 1011 q 507 1021 415 1031 l 507 865 q 438 865 467 867 q 392 853 410 863 q 365 826 374 844 q 357 778 357 808 l 357 739 l 604 739 l 604 801 q 625 913 604 869 q 690 982 646 956 q 810 1028 735 1018 q 976 1028 885 1039 l 976 872 q 906 872 935 874 q 858 862 876 871 q 831 835 839 853 q 822 786 822 817 l 822 739 l 976 739 l 976 597 l 822 597 l 822 0 l 604 0 l 604 597 z "},"ﬁ":{"ha":894,"x_min":28,"x_max":822,"o":"m 28 739 l 139 739 l 139 801 q 160 913 139 869 q 225 982 181 956 q 344 1028 269 1018 q 511 1028 419 1039 l 511 872 q 440 872 469 874 q 392 862 411 871 q 365 835 374 853 q 357 786 357 817 l 357 739 l 511 739 l 511 597 l 357 597 l 357 0 l 139 0 l 139 597 l 28 597 l 28 739 m 604 739 l 821 739 l 821 0 l 604 0 l 604 739 m 603 1033 l 822 1033 l 822 843 l 603 843 l 603 1033 z "},"ﬂ":{"ha":899,"x_min":28,"x_max":824,"o":"m 28 739 l 139 739 l 139 801 q 160 913 139 869 q 225 982 181 956 q 344 1028 269 1018 q 511 1028 419 1039 l 511 872 q 440 872 469 874 q 392 862 411 871 q 365 835 374 853 q 357 786 357 817 l 357 739 l 511 739 l 511 597 l 357 597 l 357 0 l 139 0 l 139 597 l 28 597 l 28 739 m 604 1033 l 824 1033 l 824 0 l 604 0 l 604 1033 z "},"ﬃ":{"ha":1360,"x_min":28,"x_max":1288,"o":"m 604 597 l 357 597 l 357 0 l 139 0 l 139 597 l 28 597 l 28 739 l 139 739 l 139 793 q 160 904 139 861 q 225 974 181 947 q 342 1021 269 1011 q 507 1021 415 1031 l 507 865 q 438 865 467 867 q 392 853 410 863 q 365 826 374 844 q 357 778 357 808 l 357 739 l 604 739 l 604 801 q 625 913 604 869 q 690 982 646 956 q 810 1028 735 1018 q 976 1028 885 1039 l 976 872 q 906 872 935 874 q 858 862 876 871 q 831 835 839 853 q 822 786 822 817 l 822 739 l 976 739 l 976 597 l 822 597 l 822 0 l 604 0 l 604 597 m 1069 739 l 1286 739 l 1286 0 l 1069 0 l 1069 739 m 1068 1033 l 1288 1033 l 1288 843 l 1068 843 l 1068 1033 z "},"ﬄ":{"ha":1364,"x_min":28,"x_max":1289,"o":"m 604 597 l 357 597 l 357 0 l 139 0 l 139 597 l 28 597 l 28 739 l 139 739 l 139 793 q 160 904 139 861 q 225 974 181 947 q 342 1021 269 1011 q 507 1021 415 1031 l 507 865 q 438 865 467 867 q 392 853 410 863 q 365 826 374 844 q 357 778 357 808 l 357 739 l 604 739 l 604 801 q 625 913 604 869 q 690 982 646 956 q 810 1028 735 1018 q 976 1028 885 1039 l 976 872 q 906 872 935 874 q 858 862 876 871 q 831 835 839 853 q 822 786 822 817 l 822 739 l 976 739 l 976 597 l 822 597 l 822 0 l 604 0 l 604 597 m 1069 1033 l 1289 1033 l 1289 0 l 1069 0 l 1069 1033 z "},"":{"ha":894,"x_min":28,"x_max":822,"o":"m 28 739 l 139 739 l 139 801 q 160 913 139 869 q 225 982 181 956 q 344 1028 269 1018 q 511 1028 419 1039 l 511 872 q 440 872 469 874 q 392 862 411 871 q 365 835 374 853 q 357 786 357 817 l 357 739 l 511 739 l 511 597 l 357 597 l 357 0 l 139 0 l 139 597 l 28 597 l 28 739 m 604 739 l 821 739 l 821 0 l 604 0 l 604 739 m 603 1033 l 822 1033 l 822 843 l 603 843 l 603 1033 z "},"":{"ha":899,"x_min":28,"x_max":824,"o":"m 28 739 l 139 739 l 139 801 q 160 913 139 869 q 225 982 181 956 q 344 1028 269 1018 q 511 1028 419 1039 l 511 872 q 440 872 469 874 q 392 862 411 871 q 365 835 374 853 q 357 786 357 817 l 357 739 l 511 739 l 511 597 l 357 597 l 357 0 l 139 0 l 139 597 l 28 597 l 28 739 m 604 1033 l 824 1033 l 824 0 l 604 0 l 604 1033 z "},"⁰":{"ha":681,"x_min":44,"x_max":636,"o":"m 340 517 q 426 572 401 517 q 451 715 451 626 q 426 860 451 803 q 340 917 400 917 q 255 860 281 917 q 229 715 229 803 q 255 572 229 626 q 340 517 281 517 m 340 383 q 224 406 278 383 q 130 472 169 429 q 67 577 90 515 q 44 715 44 639 q 67 852 44 790 q 128 957 89 914 q 222 1024 168 1000 q 340 1047 276 1047 q 461 1024 407 1047 q 554 957 515 1000 q 615 852 593 914 q 636 715 636 790 q 614 577 636 639 q 552 472 592 515 q 458 406 513 429 q 340 383 404 383 z "},"⁴":{"ha":647,"x_min":46,"x_max":621,"o":"m 350 533 l 46 533 l 46 676 l 350 1040 l 528 1040 l 528 657 l 621 657 l 621 533 l 528 533 l 528 400 l 350 400 l 350 533 m 156 647 q 194 651 175 649 q 230 656 211 654 q 264 657 249 657 l 350 657 l 350 790 q 351 820 350 804 q 354 851 351 836 q 360 886 357 868 l 357 886 l 338 857 q 300 806 319 829 l 236 726 q 185 675 211 700 q 156 650 169 661 l 156 647 z "},"⁵":{"ha":604,"x_min":28,"x_max":563,"o":"m 296 382 q 194 396 240 382 q 112 435 147 410 q 55 497 76 461 q 28 575 33 532 l 189 575 q 223 531 196 549 q 293 514 250 514 q 363 542 336 514 q 390 614 390 569 q 363 686 390 663 q 293 710 336 710 q 237 699 261 710 q 199 672 213 689 l 47 672 l 114 1033 l 519 1033 l 519 901 l 232 901 l 208 778 l 211 778 q 263 813 231 800 q 343 825 294 825 q 429 811 389 825 q 499 771 469 797 q 546 706 529 744 q 563 618 563 668 q 543 522 563 565 q 489 447 524 478 q 405 399 454 415 q 296 382 356 382 z "},"⁶":{"ha":640,"x_min":44,"x_max":600,"o":"m 335 385 q 217 405 268 385 q 131 461 167 425 q 44 717 44 547 q 63 852 44 790 q 119 958 81 914 q 339 1049 194 1049 q 502 1003 439 1049 q 585 874 565 957 l 413 874 q 390 911 407 893 q 335 929 374 929 q 253 889 285 929 q 215 771 222 849 l 217 771 q 367 836 269 836 q 456 820 414 836 q 531 775 499 804 q 581 704 563 746 q 600 611 600 663 q 581 518 600 560 q 526 447 561 476 q 442 401 492 417 q 335 385 393 385 m 329 513 q 403 540 375 513 q 431 611 431 568 q 403 684 431 656 q 329 713 375 713 q 253 684 282 713 q 225 611 225 656 q 254 540 225 568 q 329 513 283 513 z "},"⁷":{"ha":560,"x_min":35,"x_max":528,"o":"m 131 400 q 151 553 132 481 q 203 686 171 625 q 276 799 235 747 q 365 893 318 851 l 365 896 q 326 892 350 893 q 278 890 307 890 q 213 889 249 889 l 35 889 l 35 1033 l 528 1033 l 528 903 q 385 692 443 819 q 322 400 326 564 l 131 400 z "},"⁸":{"ha":633,"x_min":38,"x_max":597,"o":"m 317 383 q 113 436 188 383 q 38 578 38 489 q 72 674 38 632 q 172 735 106 715 l 172 739 q 67 868 67 778 q 85 940 67 907 q 135 997 103 972 q 214 1034 168 1021 q 317 1047 260 1047 q 501 999 433 1047 q 568 872 568 951 q 542 797 568 831 q 464 743 517 763 l 464 739 q 564 677 531 719 q 597 582 597 635 q 522 436 597 489 q 317 383 447 383 m 317 788 q 382 808 360 788 q 404 863 404 828 q 382 915 404 894 q 317 936 360 936 q 253 915 275 936 q 231 863 231 894 q 253 808 231 828 q 317 788 275 788 m 317 504 q 393 528 365 504 q 421 590 421 551 q 394 656 421 631 q 318 682 367 682 q 242 656 271 682 q 214 590 214 631 q 242 527 214 550 q 317 504 271 504 z "},"⁹":{"ha":636,"x_min":40,"x_max":592,"o":"m 310 383 q 137 432 206 383 q 53 560 68 481 l 219 560 q 247 522 226 540 q 306 504 267 504 q 383 540 356 504 q 407 587 399 558 q 418 657 415 615 l 415 657 q 358 611 392 629 q 275 593 324 593 q 184 609 226 593 q 110 654 142 625 q 59 725 78 683 q 40 819 40 767 q 60 913 40 871 q 116 985 81 956 q 201 1031 151 1015 q 308 1047 250 1047 q 413 1031 365 1047 q 496 985 460 1014 q 569 878 547 944 q 592 715 592 811 q 574 576 592 642 q 517 465 556 510 q 310 383 443 383 m 311 717 q 385 746 357 717 q 414 819 414 775 q 385 892 414 863 q 311 921 357 921 q 236 892 265 921 q 207 819 207 863 q 236 746 207 775 q 311 717 265 717 z "},"₀":{"ha":681,"x_min":44,"x_max":636,"o":"m 340 -106 q 426 -51 401 -106 q 451 93 451 4 q 426 238 451 181 q 340 294 400 294 q 255 238 281 294 q 229 93 229 181 q 255 -51 229 4 q 340 -106 281 -106 m 340 -239 q 224 -216 278 -239 q 130 -150 169 -193 q 67 -45 90 -107 q 44 93 44 17 q 67 230 44 168 q 128 335 89 292 q 222 401 168 378 q 340 425 276 425 q 461 401 407 425 q 554 335 515 378 q 615 230 593 292 q 636 93 636 168 q 614 -45 636 17 q 552 -150 592 -107 q 458 -216 513 -193 q 340 -239 404 -239 z "},"₁":{"ha":475,"x_min":40,"x_max":379,"o":"m 200 161 l 40 161 l 40 282 q 174 318 124 285 q 238 418 224 351 l 379 418 l 379 -222 l 200 -222 l 200 161 z "},"₂":{"ha":606,"x_min":39,"x_max":563,"o":"m 39 -222 q 82 -71 40 -129 q 186 32 124 -12 q 265 83 228 61 q 329 124 301 104 q 373 164 357 143 q 389 213 389 185 q 369 269 389 247 q 310 290 350 290 q 240 260 265 290 q 214 182 214 231 l 47 182 q 67 285 47 240 q 121 361 86 331 q 205 408 156 392 q 314 424 254 424 q 419 408 372 424 q 497 365 465 392 q 544 301 528 338 q 561 224 561 264 q 553 164 561 190 q 533 117 546 138 q 501 78 519 96 q 461 44 482 61 q 410 8 438 25 q 356 -24 382 -8 q 306 -53 329 -39 q 267 -85 282 -68 l 563 -85 l 563 -222 l 39 -222 l 39 -222 z "},"₃":{"ha":617,"x_min":31,"x_max":576,"o":"m 315 -239 q 192 -222 244 -239 q 103 -174 139 -204 q 49 -103 68 -143 q 31 -18 31 -64 l 199 -18 q 225 -81 201 -53 q 304 -108 249 -108 q 374 -87 350 -108 q 399 -29 399 -67 q 371 31 399 14 q 292 47 343 47 l 256 47 l 256 164 l 286 164 q 360 181 333 164 q 386 232 386 197 q 364 283 386 264 q 306 301 342 301 q 238 276 258 301 q 215 222 218 251 l 49 222 q 70 301 51 264 q 122 365 89 338 q 203 409 156 393 q 313 425 251 425 q 411 413 367 425 q 488 377 456 400 q 538 320 519 354 q 556 243 556 286 q 526 167 556 196 q 444 118 497 138 l 444 117 q 542 62 507 99 q 576 -39 576 25 q 556 -128 576 -90 q 499 -190 535 -165 q 417 -227 464 -215 q 315 -239 369 -239 z "},"₄":{"ha":647,"x_min":46,"x_max":621,"o":"m 350 -89 l 46 -89 l 46 54 l 350 418 l 528 418 l 528 35 l 621 35 l 621 -89 l 528 -89 l 528 -222 l 350 -222 l 350 -89 m 156 25 q 194 29 175 26 q 230 33 211 32 q 264 35 249 35 l 350 35 l 350 168 q 351 198 350 182 q 354 229 351 214 q 360 264 357 246 l 357 264 l 338 235 q 300 183 319 207 l 236 104 q 185 53 211 78 q 156 28 169 39 l 156 25 z "},"₅":{"ha":604,"x_min":28,"x_max":563,"o":"m 296 -240 q 194 -226 240 -240 q 112 -187 147 -212 q 55 -126 76 -161 q 28 -47 33 -90 l 189 -47 q 223 -91 196 -74 q 293 -108 250 -108 q 363 -81 336 -108 q 390 -8 390 -53 q 363 64 390 40 q 293 88 336 88 q 237 77 261 88 q 199 50 213 67 l 47 50 l 114 411 l 519 411 l 519 279 l 232 279 l 208 156 l 211 156 q 263 190 231 178 q 343 203 294 203 q 429 189 389 203 q 499 149 469 175 q 546 84 529 122 q 563 -4 563 46 q 543 -101 563 -57 q 489 -176 524 -144 q 405 -224 454 -207 q 296 -240 356 -240 z "},"₆":{"ha":640,"x_min":44,"x_max":600,"o":"m 335 -237 q 217 -217 268 -237 q 131 -161 167 -197 q 44 94 44 -75 q 63 230 44 168 q 119 336 81 292 q 339 426 194 426 q 502 381 439 426 q 585 251 565 335 l 413 251 q 390 289 407 271 q 335 307 374 307 q 253 267 285 307 q 215 149 222 226 l 217 149 q 367 214 269 214 q 456 198 414 214 q 531 153 499 182 q 581 82 563 124 q 600 -11 600 40 q 581 -104 600 -62 q 526 -176 561 -146 q 442 -222 492 -206 q 335 -237 393 -237 m 329 -110 q 403 -82 375 -110 q 431 -11 431 -54 q 403 62 431 33 q 329 90 375 90 q 253 62 282 90 q 225 -11 225 33 q 254 -82 225 -54 q 329 -110 283 -110 z "},"₇":{"ha":560,"x_min":35,"x_max":528,"o":"m 131 -222 q 151 -69 132 -142 q 203 64 171 3 q 276 177 235 125 q 365 271 318 229 l 365 274 q 326 269 350 271 q 278 267 307 268 q 213 267 249 267 l 35 267 l 35 411 l 528 411 l 528 281 q 385 69 443 197 q 322 -222 326 -58 l 131 -222 z "},"₈":{"ha":633,"x_min":38,"x_max":597,"o":"m 317 -239 q 113 -186 188 -239 q 38 -44 38 -133 q 72 51 38 10 q 172 113 106 93 l 172 117 q 67 246 67 156 q 85 317 67 285 q 135 374 103 350 q 214 412 168 399 q 317 425 260 425 q 501 377 433 425 q 568 250 568 329 q 542 174 568 208 q 464 121 517 140 l 464 117 q 564 55 531 97 q 597 -40 597 13 q 522 -186 597 -133 q 317 -239 447 -239 m 317 165 q 382 185 360 165 q 404 240 404 206 q 382 293 404 272 q 317 314 360 314 q 253 293 275 314 q 231 240 231 272 q 253 185 231 206 q 317 165 275 165 m 317 -118 q 393 -94 365 -118 q 421 -32 421 -71 q 394 34 421 8 q 318 60 367 60 q 242 34 271 60 q 214 -32 214 8 q 242 -95 214 -72 q 317 -118 271 -118 z "},"₉":{"ha":636,"x_min":40,"x_max":592,"o":"m 310 -239 q 137 -190 206 -239 q 53 -62 68 -142 l 219 -62 q 247 -100 226 -82 q 306 -118 267 -118 q 383 -82 356 -118 q 407 -35 399 -64 q 418 35 415 -7 l 415 35 q 358 -11 392 7 q 275 -29 324 -29 q 184 -13 226 -29 q 110 32 142 3 q 59 103 78 61 q 40 197 40 144 q 60 291 40 249 q 116 363 81 333 q 201 409 151 393 q 308 425 250 425 q 413 408 365 425 q 496 363 460 392 q 569 256 547 322 q 592 93 592 189 q 574 -47 592 19 q 517 -157 556 -112 q 310 -239 443 -239 m 311 94 q 385 124 357 94 q 414 197 414 153 q 385 269 414 240 q 311 299 357 299 q 236 269 265 299 q 207 197 207 240 q 236 124 207 153 q 311 94 265 94 z "},"Ǽ":{"ha":1451,"x_min":14,"x_max":1396,"o":"m 1379 835 l 875 835 l 875 628 l 1307 628 l 1307 442 l 875 442 l 875 208 l 1396 208 l 1396 0 l 636 0 l 636 201 l 315 201 l 249 0 l 14 0 l 368 1033 l 1379 1033 l 1379 835 m 371 369 l 636 369 l 636 835 l 524 835 l 371 369 m 814 1272 l 1076 1272 l 925 1090 l 754 1090 l 814 1272 z "},"Ǿ":{"ha":1110,"x_min":33,"x_max":1075,"o":"m 33 10 l 161 153 q 74 315 104 224 q 44 513 44 406 q 80 728 44 629 q 182 898 115 826 q 343 1010 249 969 q 556 1051 438 1051 q 730 1024 650 1051 q 872 949 810 997 l 992 1083 l 1075 1013 l 950 871 q 1035 709 1006 800 q 1065 513 1065 618 q 1030 299 1065 397 q 928 128 994 200 q 767 15 861 56 q 556 -25 672 -25 q 381 1 460 -25 q 240 75 303 26 l 117 -62 l 33 10 m 286 513 q 317 328 286 406 l 733 793 q 658 842 701 825 q 557 860 614 860 q 440 833 490 860 q 355 760 389 807 q 303 649 321 713 q 286 513 286 586 m 557 169 q 674 196 624 169 q 758 268 724 222 q 808 376 792 314 q 825 513 825 439 q 817 610 825 564 q 794 697 810 657 l 381 232 q 557 169 447 169 m 518 1272 l 781 1272 l 629 1090 l 458 1090 l 518 1272 z "},"ǽ":{"ha":1296,"x_min":42,"x_max":1260,"o":"m 324 -21 q 115 37 189 -21 q 42 204 42 94 q 65 306 42 265 q 126 371 88 346 q 218 409 165 396 q 332 429 271 422 q 474 463 431 443 q 518 524 518 482 q 492 588 518 564 q 408 613 465 613 q 315 586 346 613 q 279 515 283 560 l 78 515 q 100 607 79 563 q 161 685 121 651 q 263 740 201 719 q 406 760 324 760 q 657 668 583 760 q 759 735 700 711 q 894 760 818 760 q 1033 737 974 760 q 1140 668 1092 714 q 1233 515 1207 607 q 1258 314 1260 424 l 732 314 q 784 183 742 231 q 906 136 826 136 q 985 155 956 136 q 1033 208 1015 174 l 1246 208 q 1203 117 1232 160 q 1132 44 1175 75 q 1032 -5 1089 13 q 904 -22 975 -22 q 729 15 800 -22 q 617 119 658 53 q 496 13 564 46 q 324 -21 428 -21 m 653 1074 l 907 1074 l 742 850 l 579 850 l 653 1074 m 363 124 q 480 164 436 124 q 524 265 524 204 l 524 361 q 466 337 500 346 q 396 319 432 328 q 289 282 324 304 q 254 211 254 260 q 286 143 254 163 q 363 124 318 124 m 892 606 q 781 561 817 606 q 733 440 744 517 l 1036 440 q 992 562 1031 518 q 892 606 954 606 z "},"ȷ":{"ha":363,"x_min":-51,"x_max":290,"o":"m 72 -251 q 8 -249 43 -251 q -51 -240 -26 -246 l -51 -86 l -43 -86 q -15 -86 -28 -86 q 8 -85 -3 -86 q 56 -66 40 -82 q 72 -10 72 -50 l 72 739 l 290 739 l 290 -18 q 276 -130 290 -89 q 235 -196 261 -171 q 163 -239 204 -226 q 72 -251 122 -251 z "},"ǿ":{"ha":856,"x_min":26,"x_max":829,"o":"m 26 -18 l 133 101 q 63 222 88 154 q 38 368 38 289 q 65 523 38 451 q 144 647 93 594 q 268 730 196 700 q 429 760 340 760 q 557 741 499 760 q 663 689 615 722 l 761 799 l 829 738 l 729 626 q 795 509 772 575 q 818 368 818 443 q 790 213 818 285 q 712 89 763 142 q 589 6 661 36 q 429 -24 517 -24 q 306 -7 363 -24 q 203 42 249 10 l 94 -79 l 26 -18 m 254 368 q 258 307 254 336 q 269 253 261 278 l 544 558 q 494 593 524 581 q 428 606 465 606 q 299 540 344 606 q 254 368 254 474 m 417 1074 l 671 1074 l 506 850 l 343 850 l 417 1074 m 428 133 q 555 199 510 133 q 600 368 600 264 q 589 471 600 422 l 318 171 q 428 133 360 133 z "},"⅓":{"ha":1340,"x_min":44,"x_max":1296,"o":"m 204 783 l 44 783 l 44 904 q 178 940 128 907 q 242 1040 228 974 l 383 1040 l 383 400 l 204 400 l 204 783 m 964 1033 l 1108 1033 l 236 -181 l 93 -181 l 964 1033 m 1035 -169 q 911 -152 964 -169 q 823 -104 858 -135 q 769 -34 788 -74 q 750 51 750 6 l 918 51 q 944 -11 921 17 q 1024 -39 968 -39 q 1094 -18 1069 -39 q 1118 40 1118 3 q 1090 100 1118 83 q 1011 117 1063 117 l 975 117 l 975 233 l 1006 233 q 1079 250 1053 233 q 1106 301 1106 267 q 1083 352 1106 333 q 1025 371 1061 371 q 958 346 978 371 q 935 292 938 321 l 768 292 q 790 370 771 333 q 842 435 808 407 q 923 478 875 463 q 1032 494 971 494 q 1131 482 1086 494 q 1207 447 1175 469 q 1257 390 1239 424 q 1275 313 1275 356 q 1246 236 1275 265 q 1164 188 1217 207 l 1164 186 q 1261 131 1226 168 q 1296 31 1296 94 q 1275 -58 1296 -21 q 1219 -121 1254 -96 q 1136 -158 1183 -146 q 1035 -169 1089 -169 z "},"⅛":{"ha":1310,"x_min":44,"x_max":1269,"o":"m 204 783 l 44 783 l 44 904 q 178 940 128 907 q 242 1040 228 974 l 383 1040 l 383 400 l 204 400 l 204 783 m 950 1033 l 1094 1033 l 222 -181 l 79 -181 l 950 1033 m 989 -169 q 785 -117 860 -169 q 710 25 710 -64 q 744 121 710 79 q 844 182 778 163 l 844 186 q 739 315 739 225 q 757 387 739 354 q 808 444 775 419 q 886 481 840 468 q 989 494 932 494 q 1173 447 1106 494 q 1240 319 1240 399 q 1215 244 1240 278 q 1136 190 1189 210 l 1136 186 q 1236 124 1203 167 q 1269 29 1269 82 q 1194 -117 1269 -64 q 989 -169 1119 -169 m 989 235 q 1054 255 1032 235 q 1076 310 1076 275 q 1054 363 1076 342 q 989 383 1032 383 q 925 363 947 383 q 903 310 903 342 q 925 255 903 275 q 989 235 947 235 m 989 -49 q 1065 -25 1038 -49 q 1093 38 1093 -1 q 1066 103 1093 78 q 990 129 1039 129 q 915 103 943 129 q 886 38 886 78 q 915 -26 886 -3 q 989 -49 943 -49 z "},"⅜":{"ha":1419,"x_min":35,"x_max":1379,"o":"m 319 383 q 196 401 249 383 q 108 449 143 418 q 53 519 72 479 q 35 604 35 558 l 203 604 q 229 542 206 569 q 308 514 253 514 q 378 535 354 514 q 403 593 403 556 q 375 653 403 636 q 296 669 347 669 l 260 669 l 260 786 l 290 786 q 364 803 338 786 q 390 854 390 819 q 368 905 390 886 q 310 924 346 924 q 242 899 263 924 q 219 844 222 874 l 53 844 q 74 923 56 886 q 126 988 93 960 q 208 1031 160 1015 q 317 1047 256 1047 q 415 1035 371 1047 q 492 999 460 1022 q 542 942 524 976 q 560 865 560 908 q 531 789 560 818 q 449 740 501 760 l 449 739 q 546 684 511 721 q 581 583 581 647 q 560 494 581 532 q 503 432 539 457 q 421 395 468 407 q 319 383 374 383 m 1061 1033 l 1206 1033 l 333 -181 l 190 -181 l 1061 1033 m 1099 -169 q 894 -117 969 -169 q 819 25 819 -64 q 853 121 819 79 q 954 182 888 163 l 954 186 q 849 315 849 225 q 867 387 849 354 q 917 444 885 419 q 996 481 950 468 q 1099 494 1042 494 q 1283 447 1215 494 q 1350 319 1350 399 q 1324 244 1350 278 q 1246 190 1299 210 l 1246 186 q 1346 124 1313 167 q 1379 29 1379 82 q 1304 -117 1379 -64 q 1099 -169 1229 -169 m 1099 235 q 1164 255 1142 235 q 1186 310 1186 275 q 1164 363 1186 342 q 1099 383 1142 383 q 1035 363 1057 383 q 1013 310 1013 342 q 1035 255 1013 275 q 1099 235 1057 235 m 1099 -49 q 1175 -25 1147 -49 q 1203 38 1203 -1 q 1176 103 1203 78 q 1100 129 1149 129 q 1024 103 1053 129 q 996 38 996 78 q 1024 -26 996 -3 q 1099 -49 1053 -49 z "},"⅝":{"ha":1388,"x_min":32,"x_max":1347,"o":"m 300 382 q 198 396 244 382 q 116 435 151 410 q 59 497 81 461 q 32 575 38 532 l 193 575 q 227 531 200 549 q 297 514 254 514 q 367 542 340 514 q 394 614 394 569 q 367 686 394 663 q 297 710 340 710 q 241 699 265 710 q 203 672 217 689 l 51 672 l 118 1033 l 524 1033 l 524 901 l 236 901 l 213 778 l 215 778 q 267 813 235 800 q 347 825 299 825 q 433 811 393 825 q 503 771 474 797 q 550 706 533 744 q 567 618 567 668 q 547 522 567 565 q 493 447 528 478 q 409 399 458 415 q 300 382 360 382 m 1039 1033 l 1183 1033 l 311 -181 l 168 -181 l 1039 1033 m 1067 -169 q 863 -117 938 -169 q 788 25 788 -64 q 822 121 788 79 q 922 182 856 163 l 922 186 q 817 315 817 225 q 835 387 817 354 q 885 444 853 419 q 964 481 918 468 q 1067 494 1010 494 q 1251 447 1183 494 q 1318 319 1318 399 q 1292 244 1318 278 q 1214 190 1267 210 l 1214 186 q 1314 124 1281 167 q 1347 29 1347 82 q 1272 -117 1347 -64 q 1067 -169 1197 -169 m 1067 235 q 1132 255 1110 235 q 1154 310 1154 275 q 1132 363 1154 342 q 1067 383 1110 383 q 1003 363 1025 383 q 981 310 981 342 q 1003 255 981 275 q 1067 235 1025 235 m 1067 -49 q 1143 -25 1115 -49 q 1171 38 1171 -1 q 1144 103 1171 78 q 1068 129 1117 129 q 992 103 1021 129 q 964 38 964 78 q 992 -26 964 -3 q 1067 -49 1021 -49 z "},"⅔":{"ha":1463,"x_min":43,"x_max":1418,"o":"m 43 400 q 86 551 44 493 q 190 654 128 610 q 269 705 232 683 q 333 746 306 726 q 377 786 361 765 q 393 835 393 807 q 374 891 393 869 q 314 913 354 913 q 244 883 269 913 q 218 804 218 853 l 51 804 q 71 908 51 863 q 125 983 90 953 q 209 1030 160 1014 q 318 1046 258 1046 q 423 1030 376 1046 q 501 987 469 1014 q 549 923 532 960 q 565 846 565 886 q 558 786 565 813 q 537 739 550 760 q 505 701 524 718 q 465 667 486 683 q 414 631 442 647 q 360 599 386 614 q 310 569 333 583 q 271 538 286 554 l 567 538 l 567 400 l 43 400 m 1108 1033 l 1253 1033 l 381 -181 l 238 -181 l 1108 1033 m 1157 -169 q 1033 -152 1086 -169 q 945 -104 981 -135 q 891 -34 910 -74 q 872 51 872 6 l 1040 51 q 1067 -11 1043 17 q 1146 -39 1090 -39 q 1216 -18 1192 -39 q 1240 40 1240 3 q 1213 100 1240 83 q 1133 117 1185 117 l 1097 117 l 1097 233 l 1128 233 q 1201 250 1175 233 q 1228 301 1228 267 q 1206 352 1228 333 q 1147 371 1183 371 q 1080 346 1100 371 q 1057 292 1060 321 l 890 292 q 912 370 893 333 q 964 435 931 407 q 1045 478 997 463 q 1154 494 1093 494 q 1253 482 1208 494 q 1329 447 1297 469 q 1379 390 1361 424 q 1397 313 1397 356 q 1368 236 1397 265 q 1286 188 1339 207 l 1286 186 q 1383 131 1349 168 q 1418 31 1418 94 q 1397 -58 1418 -21 q 1341 -121 1376 -96 q 1258 -158 1306 -146 q 1157 -169 1211 -169 z "},"⅞":{"ha":1346,"x_min":39,"x_max":1306,"o":"m 1025 -169 q 821 -117 896 -169 q 746 25 746 -64 q 780 121 746 79 q 881 182 814 163 l 881 186 q 775 315 775 225 q 793 387 775 354 q 844 444 811 419 q 922 481 876 468 q 1025 494 968 494 q 1209 447 1142 494 q 1276 319 1276 399 q 1251 244 1276 278 q 1172 190 1225 210 l 1172 186 q 1272 124 1239 167 q 1306 29 1306 82 q 1231 -117 1306 -64 q 1025 -169 1156 -169 m 957 1033 l 1101 1033 l 229 -181 l 86 -181 l 957 1033 m 135 400 q 156 553 136 481 q 207 686 175 625 q 281 799 239 747 q 369 893 322 851 l 369 896 q 331 892 354 893 q 282 890 311 890 q 217 889 253 889 l 39 889 l 39 1033 l 532 1033 l 532 903 q 389 692 447 819 q 326 400 331 564 l 135 400 m 1025 -49 q 1101 -25 1074 -49 q 1129 38 1129 -1 q 1102 103 1129 78 q 1026 129 1075 129 q 951 103 979 129 q 922 38 922 78 q 951 -26 922 -3 q 1025 -49 979 -49 m 1025 235 q 1090 255 1068 235 q 1113 310 1113 275 q 1090 363 1113 342 q 1025 383 1068 383 q 961 363 983 383 q 939 310 939 342 q 961 255 939 275 q 1025 235 983 235 z "},"Ⓟ":{"ha":1204,"x_min":71,"x_max":1133,"o":"m 603 -25 q 394 15 492 -25 q 225 128 297 56 q 112 299 153 200 q 71 513 71 397 q 112 728 71 629 q 225 898 153 826 q 394 1010 297 969 q 603 1051 492 1051 q 811 1010 714 1051 q 980 898 908 969 q 1092 728 1051 826 q 1133 513 1133 629 q 1092 299 1133 397 q 980 128 1051 200 q 811 15 908 56 q 603 -25 714 -25 m 603 44 q 781 80 699 44 q 922 178 863 115 q 1016 326 982 240 q 1050 513 1050 413 q 1016 699 1050 614 q 922 847 982 785 q 781 945 863 910 q 603 981 699 981 q 424 945 507 981 q 281 847 342 910 q 187 699 221 785 q 153 513 153 614 q 187 326 153 413 q 281 178 221 240 q 424 80 342 115 q 603 44 507 44 m 388 808 l 656 808 q 747 794 708 808 q 814 754 786 781 q 872 613 872 700 q 819 474 872 528 q 676 419 765 419 l 539 419 l 539 228 l 388 228 l 388 808 m 539 538 l 640 538 q 701 556 679 538 q 722 610 722 575 q 701 665 722 646 q 639 685 679 685 l 539 685 l 539 538 z "},"′":{"ha":335,"x_min":43,"x_max":292,"o":"m 101 1033 l 292 1033 l 235 653 l 43 653 l 101 1033 z "},"″":{"ha":615,"x_min":43,"x_max":572,"o":"m 382 1033 l 572 1033 l 515 653 l 324 653 l 382 1033 m 101 1033 l 292 1033 l 235 653 l 43 653 l 101 1033 z "}," ":{"ha":153,"x_min":0,"x_max":0,"o":""}}}
